<svg width="28" height="28" viewBox="0 0 28 28" fill="none" xmlns="http://www.w3.org/2000/svg">
<g clip-path="url(#clip0_37_3837)">
<path d="M2.95996 11.4409C2.95996 11.4409 13.9724 18.1105 24.9848 11.4409" stroke="white" stroke-width="0.921052" stroke-miterlimit="10"/>
<path d="M20.7088 24.5451L14 14.5659" stroke="white" stroke-width="0.921052" stroke-miterlimit="10"/>
<path d="M7.28613 24.5451L14.0005 14.5659" stroke="white" stroke-width="0.921052" stroke-miterlimit="10"/>
<path d="M14.0004 11.1776C15.7772 11.1776 17.2176 9.73717 17.2176 7.96036C17.2176 6.18355 15.7772 4.74316 14.0004 4.74316C12.2236 4.74316 10.7832 6.18355 10.7832 7.96036C10.7832 9.73717 12.2236 11.1776 14.0004 11.1776Z" stroke="white" stroke-width="0.921052" stroke-miterlimit="10"/>
<path d="M26.1014 11.9114C26.8947 11.9114 27.5378 11.2683 27.5378 10.475C27.5378 9.68167 26.8947 9.03857 26.1014 9.03857C25.3081 9.03857 24.665 9.68167 24.665 10.475C24.665 11.2683 25.3081 11.9114 26.1014 11.9114Z" stroke="white" stroke-width="0.921052" stroke-miterlimit="10"/>
<path d="M1.89245 11.9114C2.68576 11.9114 3.32885 11.2683 3.32885 10.475C3.32885 9.68167 2.68576 9.03857 1.89245 9.03857C1.09915 9.03857 0.456055 9.68167 0.456055 10.475C0.456055 11.2683 1.09915 11.9114 1.89245 11.9114Z" stroke="white" stroke-width="0.921052" stroke-miterlimit="10"/>
<path d="M20.7089 25.9812C21.5022 25.9812 22.1453 25.3381 22.1453 24.5448C22.1453 23.7515 21.5022 23.1084 20.7089 23.1084C19.9156 23.1084 19.2725 23.7515 19.2725 24.5448C19.2725 25.3381 19.9156 25.9812 20.7089 25.9812Z" stroke="white" stroke-width="0.921052" stroke-miterlimit="10"/>
<path d="M7.28503 25.9812C8.07833 25.9812 8.72143 25.3381 8.72143 24.5448C8.72143 23.7515 8.07833 23.1084 7.28503 23.1084C6.49173 23.1084 5.84863 23.7515 5.84863 24.5448C5.84863 25.3381 6.49173 25.9812 7.28503 25.9812Z" stroke="white" stroke-width="0.921052" stroke-miterlimit="10"/>
<path d="M22.6123 22.4671C22.8419 22.6771 23.0351 22.9235 23.1863 23.1979C25.6307 20.7619 26.9999 17.4495 26.9915 13.9971C26.9915 13.7143 26.9803 13.4343 26.9635 13.1543C26.6863 13.2439 26.3951 13.2887 26.1011 13.2887C26.0843 13.2887 26.0647 13.2887 26.0479 13.2887C26.0619 13.5239 26.0703 13.7591 26.0703 13.9971C26.0759 17.1667 24.8355 20.2103 22.6123 22.4671Z" fill="white"/>
<path d="M13.9614 26.1069C12.5978 26.1097 11.2454 25.8801 9.95744 25.4321C9.85944 25.7289 9.71104 26.0061 9.52344 26.2553C12.4102 27.2913 15.5714 27.2857 18.4554 26.2357C18.2678 25.9865 18.125 25.7065 18.0298 25.4097C16.7222 25.8717 15.3474 26.1069 13.9614 26.1069Z" fill="white"/>
<path d="M1.87641 13.2916C1.56561 13.2888 1.25761 13.2356 0.963615 13.1348C0.944015 13.4204 0.935615 13.7088 0.935615 14C0.924415 17.458 2.29921 20.7732 4.74921 23.212C4.76041 23.2232 4.77161 23.2344 4.78281 23.2456C4.92841 22.9684 5.11601 22.7164 5.34281 22.5036C3.10281 20.244 1.84841 17.1836 1.85681 14C1.85681 13.762 1.86241 13.5268 1.87641 13.2916Z" fill="white"/>
<path d="M23.173 4.78787C18.0854 -0.299732 9.83658 -0.299732 4.74898 4.78787C3.87538 5.65867 3.13058 6.64987 2.53418 7.73347C2.83658 7.80347 3.12498 7.92387 3.38818 8.08907C3.93418 7.11747 4.61178 6.22707 5.39858 5.44027C10.1278 0.711068 17.7914 0.711068 22.5206 5.44027C23.3186 6.23547 24.0018 7.13987 24.5506 8.12267C24.8082 7.95187 25.0938 7.82587 25.3962 7.74747C24.7998 6.66107 24.0522 5.66427 23.173 4.78787Z" fill="white"/>
</g>
<defs>
<clipPath id="clip0_37_3837">
<rect width="28" height="28" fill="white"/>
</clipPath>
</defs>
</svg>
