<svg width="56" height="46" viewBox="0 0 56 46" fill="none" xmlns="http://www.w3.org/2000/svg">
<path d="M22.5223 0H0.136499H0V0.136499H0.136499C6.36083 1.01009 9.4639 8.23541 10.2374 11.7389C10.7834 15.2332 14.4688 18.3818 16.2433 19.5193C18.5365 21.0481 20.9298 21.3393 21.8398 21.2938H27.2997C31.6677 21.1846 35.5806 18.4273 36.9911 17.0623C41.6776 11.8754 51.1596 1.36499 51.5964 0.818991C52.0332 0.272997 51.5964 0.0454995 51.3234 0H40.1306C37.073 0 34.3976 1.91098 33.4421 2.86647L20.0653 17.6083C19.0825 18.5911 17.8358 18.1998 17.3353 17.8813C16.3525 17.3353 16.8348 16.2888 17.1988 15.8338L23.6142 8.32641V0.95549L22.5223 0Z" fill="#A4A174"/>
<path d="M9.28223 30.8487V15.6974C9.96472 18.0179 13.9232 20.4748 15.5612 21.7033C17.5379 23.1859 20.6571 23.8873 22.1131 23.8873H29.484C34.5072 23.9965 43.1339 33.6697 46.8193 38.4926C51.0781 43.7342 54.6907 45.2266 55.9647 45.3176V45.8636L40.5404 45.5906C36.0632 45.4814 27.937 35.1712 24.4336 30.0297C23.014 27.1906 19.8381 26.2988 18.4276 26.2078H16.7896C13.0769 26.2078 10.2377 29.3017 9.28223 30.8487Z" fill="#A4A174"/>
<path d="M20.7679 46H11.6228C11.0013 46 10.4091 45.7363 9.99332 45.2743C9.62347 44.8634 9.42255 44.3279 9.4308 43.7751L9.52167 37.6869C9.54345 36.2277 9.68548 34.7481 10.2819 33.4161C11.9479 29.6957 14.6572 28.7621 15.9699 28.8012H16.6654C18.2877 28.8012 20.0181 28.8737 21.2668 29.9094C23.3113 31.6051 23.8868 34.4952 23.8868 36.0356C23.8413 38.3106 23.7776 43.1336 23.8868 44.2255C24.0292 45.649 22.1985 46 20.7679 46Z" fill="#A4A174"/>
</svg>
