<svg width="487" height="480" viewBox="0 0 487 480" fill="none" xmlns="http://www.w3.org/2000/svg">
<path d="M98.5627 0H-161.415H-163V1.62908H-161.415C-89.1284 12.0552 -53.0908 98.2878 -44.1079 140.101C-37.767 181.805 5.03421 219.383 25.6422 232.958C52.274 251.204 80.0684 254.68 90.6366 254.137H154.046C204.773 252.833 250.216 219.926 266.597 203.635C321.023 141.73 431.144 16.2908 436.216 9.77448C441.289 3.25816 436.216 0.543027 433.046 0H303.057C267.548 0 236.478 22.8071 225.381 34.2107L70.0286 210.151C58.6149 221.881 44.1365 217.211 38.324 213.41C26.9104 206.893 32.5115 194.404 36.7388 188.973L111.245 99.3739V11.4036L98.5627 0Z" fill="#A4A174" fill-opacity="0.05"/>
<path d="M-55.2041 368.172V187.344C-47.278 215.039 -1.30634 244.362 17.7164 259.024C40.673 276.717 76.8983 285.089 93.8074 285.089H179.41C237.746 286.392 337.933 401.84 380.734 459.401C430.193 521.957 472.148 539.769 486.944 540.855V547.371L307.813 544.113C255.818 542.81 161.444 419.76 120.756 358.398C104.27 324.513 67.3869 313.869 51.0062 312.783H31.9835C-11.1348 312.783 -44.1075 349.709 -55.2041 368.172Z" fill="#A4A174" fill-opacity="0.05"/>
<path d="M90.6701 549H-27.6292C-35.0787 549 -42.1659 545.786 -47.0739 540.182C-51.2866 535.372 -53.5668 529.171 -53.4739 522.777L-52.1523 431.778C-52.073 426.32 -51.389 420.847 -49.7807 415.631C-31.7494 357.151 5.46085 343.216 22.4728 343.736H49.7418C55.8416 343.736 62.006 344.363 67.6099 346.772C104.791 362.756 114.416 408.015 114.416 430.077C113.888 457.229 113.148 514.789 114.416 527.822C114.923 533.034 113.926 537.204 112.276 540.436C108.475 547.883 99.0313 549 90.6701 549Z" fill="#A4A174" fill-opacity="0.05"/>
</svg>
