<svg width="1244" height="854" viewBox="0 0 727 499" fill="none" xmlns="http://www.w3.org/2000/svg">
<g clip-path="url(#clip0_73_1764)">
<path d="M372.502 0.229894C364.172 1.17845 360.31 2.25636 355.494 4.88646C352.847 6.3093 352.673 6.35242 351.458 5.74879C350.33 5.14516 349.983 5.18828 348.117 5.79191C341.045 8.16331 331.672 15.3206 325.034 23.4265C312.538 38.6035 307.678 57.5315 312.234 73.0966C313.492 77.4082 315.748 82.4959 317.744 85.4278C318.872 87.0663 319.306 87.4543 320.087 87.2387C320.912 87.0663 321.129 87.325 321.91 89.7395C324.123 96.5087 325.077 100.605 325.902 107.46C326.9 115.609 327.984 119.231 331.108 124.922C334.97 131.907 346.078 147.559 352.369 154.931C357.142 160.45 359.572 162.046 363.998 162.434C367.035 162.692 368.12 163.555 365.473 163.598C362.74 163.598 339.136 171.617 331.239 175.196C321.389 179.637 312.711 187.053 309.37 193.822C307.721 197.142 300.562 218.528 299.13 224.478C297.351 231.765 296.396 237.974 295.485 248.71C294.487 260.135 294.01 263.11 291.58 271.992C288.066 284.755 286.634 293.68 286.113 305.623C285.679 315.497 286.287 316.618 292.708 317.868C297.047 318.73 302.905 320.714 306.333 322.482C309.413 324.034 308.502 324.034 300.692 322.438C293.142 320.886 289.888 320.8 287.849 322.007C286.243 322.999 286.634 323.818 283.987 313.815C281.774 305.623 280.429 303.036 277.045 300.665C275.613 299.63 274.181 299.069 272.142 298.724C270.536 298.466 257.346 297.474 242.767 296.569C228.231 295.62 214.737 294.758 212.828 294.628C210.918 294.499 198.813 293.723 185.926 292.904C155.162 290.92 139.065 289.843 124.529 288.765C104.83 287.342 102.877 287.299 101.185 288.333C99.1459 289.627 98.3649 291.783 98.712 295.016C99.3195 300.535 102.27 311.789 107.39 328.044C114.983 352.146 134.422 406.817 138.457 415.527C139.412 417.51 140.149 419.321 140.149 419.493C140.149 419.709 108.995 419.881 70.0747 419.881C0 419.881 0 419.881 0 420.959C0 422.037 0 422.037 71.0727 422.037C142.102 422.037 142.102 422.037 143.1 423.762C145.096 427.211 147.439 427.944 164.404 430.445C169.958 431.221 174.644 431.997 174.731 432.127C174.861 432.256 174.601 432.515 174.167 432.644C166.14 435.49 160.456 438.853 155.509 443.768C150.737 448.511 146.745 455.194 142.84 465.154C130.257 497.06 130.69 495.766 132.296 495.766C133.077 495.766 136.201 488.436 143.013 470.543C146.094 462.394 149.348 455.539 152.212 451.098C157.852 442.388 167.745 435.964 179.157 433.636C182.151 432.989 187.271 433.679 218.251 438.68C229.099 440.448 239.295 442.086 240.944 442.345C244.025 442.819 244.589 443.337 242.68 443.811C240.207 444.372 234.349 447.519 231.355 449.847C225.541 454.375 221.722 460.195 219.076 468.689C218.338 471.017 217.6 472.915 217.427 472.915C217.253 472.915 216.385 471.017 215.474 468.689C213.348 463.343 211.396 460.152 208.141 456.66C204.019 452.305 200.288 450.667 199.03 452.693C198.379 453.771 198.899 455.108 202.023 460.195C208.792 471.19 209.617 472.57 209.486 472.699C209.4 472.785 208.272 471.492 206.97 469.81C203.238 465.067 198.118 460.928 195.688 460.756C193.606 460.583 193.172 461.532 194.083 464.378C195.732 469.638 202.11 478.477 208.619 484.642C211.656 487.531 212.394 488.005 213.695 488.005C214.997 488.005 215.214 488.178 215.474 489.169C216.819 495.12 217.687 496.758 219.032 495.939C220.117 495.249 220.377 493.61 220.855 484.944C221.505 473.13 223.545 466.102 228.404 459.419C232.743 453.34 241.378 447.303 248.234 445.536C252.746 444.328 258.517 444.889 280.516 448.511C310.585 453.512 310.845 453.555 317.614 453.555C323.211 453.555 326.119 452.909 337.096 449.416C343.301 447.433 343.301 447.433 344.125 448.295C346.165 450.494 351.198 450.494 357.446 448.338C359.485 447.648 361.221 447.088 361.264 447.174C361.308 447.217 360.223 449.028 358.878 451.184C354.365 458.341 352.586 466.145 353.541 474.984C354.105 480.417 355.667 486.022 357.923 490.808C359.746 494.645 360.744 495.766 361.525 494.99C361.915 494.602 361.915 493.869 361.481 491.972C358.097 476.493 357.142 468.819 357.967 462.524C359.312 451.701 363.955 445.665 373.37 442.474C376.581 441.397 377.362 441.31 383.35 441.31C389.121 441.31 390.292 441.44 393.763 442.474C398.666 443.897 402.008 445.579 406.086 448.683C410.642 452.133 411.944 453.771 420.144 466.232C423.399 471.19 425.351 472.828 429.82 474.251C431.469 474.769 433.161 475.502 433.595 475.89C434.94 477.011 438.715 483.564 438.412 484.254C437.717 486.151 429.256 487.402 420.231 487.014C417.107 486.884 414.243 486.626 413.853 486.496C413.462 486.324 412.768 485.203 412.378 483.996C411.51 481.279 410.208 478.692 409.601 478.304C408.733 477.787 407.865 479.037 407.865 480.762C407.865 481.71 408.516 484.685 409.34 487.315C410.165 489.946 411.206 493.654 411.64 495.551C412.291 498.439 412.551 499 413.289 499C414.07 499 414.157 498.698 414.2 495.551C414.2 492.144 414.2 492.144 416.153 491.498C417.411 491.11 420.144 490.851 424.136 490.851C430.862 490.808 432.12 491.067 439.8 494.128C444.486 495.939 445.441 495.939 446.482 494.042C446.699 493.61 448.521 492.446 450.474 491.455C453.251 490.032 455.16 489.428 459.456 488.652C471.301 486.453 475.727 483.823 487.703 472.225C493.69 466.404 494.558 465.671 495.6 465.887C496.25 466.016 498.507 465.8 500.589 465.455C502.672 465.067 505.623 464.636 507.098 464.507C509.788 464.205 509.788 464.205 510.96 466.016C512.174 467.784 512.174 467.827 511.61 471.104C511.307 472.915 510.048 478.477 508.79 483.392C506.924 490.722 506.621 492.446 507.098 492.834C508.052 493.61 509.181 492.188 510.916 488.048C513.823 481.236 514.734 477.528 514.821 472.268C514.865 469.465 515.125 467.137 515.429 466.533C515.949 465.542 515.993 465.542 518.64 468.042C524.367 473.346 532.004 477.269 540.465 479.21C543.762 479.986 549.62 480.029 702.049 480.029C860.205 480.029 860.205 480.029 860.335 479.08C860.465 478.132 860.465 478.132 706.735 478.089C622.168 478.089 550.271 477.873 546.93 477.701C543.589 477.485 540.378 477.097 539.77 476.881C538.686 476.407 538.686 476.407 539.944 476.407C541.81 476.364 544.76 474.812 545.975 473.216C548.709 469.681 551.139 463.213 553.004 454.59C553.568 451.96 555.434 441.569 557.126 431.523C563.982 390.649 570.491 358.915 578.431 327.397C583.681 306.572 586.588 297.56 592.576 283.461C598.824 268.759 599.952 263.628 597.436 261.386C597.002 260.998 596.611 260.351 596.611 259.963C596.611 258.669 594.876 256.427 592.836 255.134C588.02 252.116 580.166 250.736 558.428 249.141C551.312 248.623 547.45 248.02 546.192 247.287C544.847 246.467 543.979 244.398 540.899 234.654C533.696 211.802 525.799 191.106 521.113 182.957C518.943 179.249 515.906 175.455 513.737 173.859C512.391 172.868 511.914 172.782 509.614 172.954C504.928 173.299 498.81 176.49 493.213 181.491C491.825 182.698 490.566 183.604 490.436 183.474C490.046 183.043 492.823 179.033 494.819 177.223C497.552 174.722 499.982 173.299 504.191 171.704C508.486 170.108 508.964 169.332 506.751 167.478C505.059 166.055 499.678 163.339 495.643 161.787C491.347 160.235 479.025 156.527 467.439 153.422C458.197 150.922 455.681 149.973 458.328 149.973C459.846 149.973 461.886 148.507 462.797 146.696C464.098 144.066 463.882 136.779 462.363 131.649C460.454 125.31 457.677 118.929 453.511 111.47C447.22 100.174 446.265 97.2417 444.964 84.8673C442.447 60.679 439.974 50.7192 433.031 36.7926C425.698 21.9605 416.977 12.5181 405.479 6.8267C397.625 2.94622 391.42 1.22157 382.395 0.359243C377.839 -0.0719206 375.149 -0.115037 372.502 0.229894ZM384.218 2.55818C391.334 3.37739 399.881 5.96437 405.609 9.02563C419.537 16.3985 430.949 32.1791 437.327 52.9181C439.54 60.0323 441.058 67.9226 442.143 77.9687C444.269 97.0692 444.66 98.837 448.521 106.339C450.084 109.357 452.86 114.704 454.683 118.283C459.456 127.466 461.669 134.753 461.669 141.005C461.669 144.282 460.888 146.653 459.586 147.343C458.024 148.162 446.916 147.559 440.841 146.308C430.862 144.282 428.475 143.29 425.264 139.841C420.709 134.925 417.411 124.276 417.411 114.402C417.411 108.969 417.541 108.754 420.188 107.978C423.269 107.072 425.221 105.606 427.608 102.459C432.641 95.8189 435.027 87.9717 434.723 79.176C434.55 74.9937 434.42 74.39 433.031 71.7168C431.73 69.2161 431.166 68.6124 429.126 67.4483C426.74 66.1117 426.74 66.1117 417.628 65.853C408.386 65.5512 406.13 65.2925 398.753 63.7834C394.978 63.0073 392.939 62.4899 385.606 60.5497C377.362 58.3076 357.316 51.8833 349.896 49.0807C344.733 47.1405 340.958 44.8122 340.047 43.0444C338.311 39.7676 340.524 31.5324 346.035 20.5808C349.549 13.5529 352.369 9.41368 354.799 7.81837C361.959 3.03246 372.502 1.17845 384.218 2.55818ZM350.157 7.68903C350.157 7.94772 348.464 10.1467 346.425 12.5612C338.788 21.6156 333.582 32.9552 332.887 41.9234C332.584 45.8039 332.584 45.8039 329.546 47.313C321.997 51.1503 315.965 60.7222 315.748 69.1298C315.748 70.7683 315.835 73.4846 316.009 75.1661C316.312 77.8825 316.269 78.098 315.705 77.1064C315.401 76.5027 314.533 73.8726 313.883 71.2857C310.585 58.5663 313.796 43.3463 322.517 30.1958C328.462 21.2707 337.4 13.0355 345.774 8.89628C349.202 7.21475 350.157 6.95605 350.157 7.68903ZM342.65 22.6504C340.871 26.1859 338.528 32.7396 337.79 36.4908C336.445 43.0876 338.094 45.9332 345.427 49.3825C353.931 53.4355 382.308 62.3606 396.367 65.3787C405.913 67.4483 407.518 67.6639 417.454 67.9657C426.783 68.2675 426.827 68.2675 428.649 69.4748C433.248 72.4929 434.29 81.418 431.209 90.9036C430.254 93.7924 428.302 98.0178 428.041 97.716C427.955 97.6298 428.432 95.6895 429.126 93.4044C430.862 87.6268 431.556 81.03 430.905 77.0201C430.298 73.4415 429.256 71.4581 427.26 70.294C421.793 66.974 416.109 70.682 413.072 79.5209C410.816 85.9883 409.21 85.6434 403.7 77.2788C398.797 69.8628 397.842 69.3023 382.699 65.2494C364.172 60.291 351.675 55.2464 343.691 49.555C341.435 47.9166 339.613 46.9249 338.919 46.9249C338.181 46.9249 336.359 48.0459 333.668 50.1586C321.259 59.9029 319.437 62.7917 318.959 73.0103C318.699 78.6154 318.699 78.6154 318.091 74.7781C317.05 68.0951 318.091 63.3091 321.736 57.4453C324.036 53.7804 327.247 50.8054 330.631 49.0807C334.319 47.2267 334.71 46.6231 335.013 42.0097C335.144 39.8538 335.708 36.6201 336.272 34.8523C337.66 30.1527 342.867 19.7185 343.475 20.3221C343.605 20.4515 343.214 21.4863 342.65 22.6504ZM343.475 51.8402C353.324 58.437 363.434 62.4037 384.218 67.8364C392.245 69.9491 396.323 71.5875 398.45 73.6139C399.144 74.2176 400.793 76.4596 402.094 78.6154C405.001 83.2289 406.173 84.6086 408.169 85.5141C409.948 86.3764 411.38 86.1177 412.638 84.738C413.159 84.2206 413.983 83.7894 414.504 83.7894C415.241 83.7894 415.805 83.0995 417.064 80.7281C417.932 79.0897 419.537 76.7614 420.578 75.6404C422.271 73.8726 422.704 73.6139 423.963 73.7433C425.264 73.8726 425.568 74.1745 426.523 76.0285C427.521 78.0549 427.608 78.6154 427.608 84.4362C427.564 93.275 425.915 98.7508 421.967 102.804C419.147 105.779 417.628 105.391 416.803 101.553C416.63 100.777 416.239 100.389 415.719 100.389C414.808 100.389 414.374 101.208 414.374 102.761C414.374 103.321 413.896 105.865 413.289 108.452C412.681 110.996 411.77 114.833 411.293 116.989C409.688 123.931 406.346 130.484 401.183 136.866C393.894 145.92 380.616 156.182 372.372 159.114C369.639 160.105 369.639 160.105 368.814 159.027C367.99 157.95 367.99 157.95 366.775 159.157C363.998 161.744 359.659 160.019 354.626 154.328C345.774 144.325 333.495 126.302 330.631 119.231C329.026 115.264 328.679 113.54 327.854 106.469C327.117 100.217 326.596 97.8885 324.34 90.688C320.131 77.1926 319.697 70.3371 322.778 63.999C323.472 62.5762 324.687 60.6359 325.511 59.7305C327.247 57.7471 338.007 49.167 338.788 49.1239C339.092 49.0807 341.175 50.3311 343.475 51.8402ZM422.401 71.8031C421.707 72.148 420.188 73.3552 419.06 74.4332C417.888 75.5542 416.977 76.2009 416.977 75.8991C416.977 75.0799 419.711 72.2773 421.099 71.6737C422.921 70.8545 423.963 70.9838 422.401 71.8031ZM416.977 106.598C416.977 106.9 416.673 107.417 416.326 107.719C415.805 108.15 415.675 108.107 415.675 107.417C415.675 106.943 415.805 106.426 415.979 106.296C416.456 105.779 416.977 105.951 416.977 106.598ZM416.109 124.103C416.934 128.544 418.973 134.451 420.665 137.254C422.704 140.574 424.831 142.773 427.955 144.627C429.3 145.489 430.428 146.179 430.428 146.222C430.428 146.265 428.345 146.308 425.742 146.308C422.835 146.351 420.101 146.61 418.452 147.041C416.37 147.602 415.458 147.688 414.287 147.3C412.334 146.696 407.518 147.645 403.049 149.499C391.551 154.242 378.534 167.09 372.719 179.465C371.157 182.828 371.157 182.828 371.114 176.662C371.114 172.523 370.854 169.289 370.376 167.004C369.942 165.107 369.595 163.296 369.552 162.994C369.508 162.692 370.68 162.046 372.285 161.442C376.147 160.105 378.317 158.984 383.22 155.708C391.681 150.102 399.795 142.557 404.915 135.443C409.731 128.846 412.334 122.853 414.243 114.186C415.024 110.522 415.024 110.522 415.285 115.911C415.458 118.886 415.805 122.551 416.109 124.103ZM431.73 148.895C451.125 151.87 463.491 161.27 469.696 177.783C470.564 180.154 471.562 182.569 471.865 183.173C472.386 184.164 472.299 184.38 470.607 186.234C466.181 191.106 467.092 197.229 472.603 200.031C473.861 200.678 474.295 201.195 474.555 202.446C475.163 205.378 474.903 215.898 474.122 219.175C473.08 223.357 471.995 226.72 471.692 226.72C471.562 226.72 471.431 224.909 471.431 222.71C471.388 219.477 471.214 218.399 470.433 216.933C468.394 213.052 464.098 211.457 460.54 213.268C457.547 214.82 455.247 217.838 453.121 223.055C452.34 224.952 451.559 226.548 451.342 226.634C451.168 226.677 450.127 225.211 449.086 223.4C445.788 217.45 445.441 217.062 442.1 215.079C436.806 211.974 434.029 208.827 430.688 202.014C428.562 197.66 427.304 195.633 425.742 194.081C423.442 191.796 421.316 190.675 420.231 191.106C417.324 192.184 417.888 202.704 421.186 208.654C422.574 211.241 426.827 215.294 429.69 216.803C430.818 217.407 431.73 218.011 431.73 218.183C431.73 219.218 420.882 216.545 415.415 214.173C402.051 208.353 394.284 200.462 390.336 188.692C389.207 185.458 389.207 185.328 389.858 182.44C392.505 170.884 398.623 160.623 406.26 154.888C413.81 149.24 421.793 147.386 431.73 148.895ZM466.225 155.319C487.963 161.27 497.856 164.46 502.629 167.133C505.232 168.599 505.536 169.246 503.887 169.634C500.155 170.496 494.211 174.42 491.304 177.956C487.876 182.138 486.748 185.673 488.614 186.622C489.699 187.226 490.393 186.794 494.298 183.345C499.765 178.473 506.1 175.024 509.571 174.981C511.046 174.981 511.524 175.239 513.172 177.007C516.21 180.327 519.247 185.113 522.631 192.011C527.187 201.195 529.097 206.714 536.733 232.541C539.727 242.673 544.413 258.152 548.665 271.906C553.525 287.687 557.734 304.545 559.686 316.187C562.029 330.07 562.073 353.31 559.73 364.606C558.428 370.944 554.349 378.059 551.963 378.059C550.488 378.059 549.62 376.808 549.924 375.084C551.746 364.089 551.052 354.603 547.798 347.575C546.019 343.738 544.543 341.582 540.378 336.882C538.599 334.813 537.21 333.045 537.341 332.916C538.078 332.14 547.06 338.823 551.876 343.781C555.174 347.101 555.608 347.403 556.215 346.842C556.779 346.239 556.606 345.764 554.263 342.401C551.225 337.917 547.711 334.252 543.242 330.932C538.946 327.742 536.299 326.578 534.173 326.966C532.221 327.268 532.134 327.095 530.659 321.274C527.448 308.383 519.811 294.37 511.393 285.962C505.015 279.538 499.505 276.692 491.044 275.269C486.054 274.45 484.405 273.933 479.372 271.604C476.161 270.138 475.64 269.75 475.857 269.017C476.031 268.327 475.814 268.026 474.946 267.681C473.601 267.163 473.167 266.344 473.557 264.835C473.861 263.714 473.905 263.714 476.204 266.258C478.894 269.233 481.888 270.958 487.703 272.855C491.044 273.976 492.432 274.234 495.6 274.191C501.891 274.191 501.934 273.286 495.86 270.311C493.387 269.104 490.696 267.551 489.785 266.818C486.227 263.886 485.88 256.988 489.004 250.865C489.568 249.787 491.477 246.424 493.256 243.363C500.242 231.42 502.455 225.297 502.759 216.933C503.019 210.724 502.282 206.671 500.025 201.799C497.031 195.331 493.473 191.408 486.922 187.355C479.458 182.741 479.458 182.741 476.725 182.828C473.731 182.957 473.861 183.13 471.605 176.921C467.396 165.279 459.543 156.656 448.478 151.439C446.656 150.577 445.18 149.801 445.18 149.757C445.18 149.585 446.352 149.93 466.225 155.319ZM408.95 150.318C408.69 150.534 407.258 151.568 405.696 152.646C400.402 156.354 395.673 162.261 392.115 169.462C390.032 173.687 387.906 180.241 387.906 182.397C387.906 183.431 387.081 184.639 384.304 187.872C375.713 197.703 372.329 204.386 372.285 211.371C372.285 214.26 371.678 213.483 370.767 209.474C369.856 205.593 369.769 198.134 370.55 193.521C371.765 186.105 375.236 178.042 380.009 171.359C385.78 163.253 396.323 154.543 404.134 151.396C407.431 150.059 409.861 149.542 408.95 150.318ZM365.343 166.142C365.343 167.004 364.475 168.686 362.132 172.307C361.091 173.903 359.919 176.145 359.529 177.266C357.142 184.251 361.655 196.151 366.471 195.59C367.86 195.418 367.86 195.418 368.077 202.144C368.25 207.749 368.467 209.43 369.422 212.621C370.593 216.545 371.635 218.83 373.153 220.684C374.628 222.538 377.102 231.161 377.536 236.206C378.447 246.381 378.881 249.011 380.139 252.719C382.569 259.963 387.428 266.732 394.675 272.984C398.797 276.52 398.797 276.52 393.677 277.037C384.001 278.029 376.711 280.141 372.285 283.246C368.901 285.574 363.39 292.559 355.407 304.545C351.936 309.762 347.38 316.445 345.254 319.334C341.739 324.163 341.435 324.767 341.869 325.715C342.129 326.276 342.52 326.75 342.78 326.75C343.041 326.75 343.561 327.483 343.952 328.345C344.299 329.251 345.167 330.674 345.861 331.536C347.076 333.045 347.076 333.174 346.512 334.554C346.165 335.373 345.384 337.874 344.733 340.116C344.082 342.358 342.607 346.196 341.479 348.567C339.656 352.318 338.745 353.612 334.883 357.621C332.41 360.208 329.46 363.658 328.245 365.296C326.943 367.021 326.032 367.969 325.945 367.581C325.858 367.236 326.119 365.296 326.509 363.313C327.637 357.277 327.767 352.922 326.986 346.67C326.205 340.547 324.166 331.752 321.997 325.025C319.567 317.48 317.441 304.675 316.269 290.964C315.618 283.375 315.531 258.712 316.052 239.655C316.529 222.02 315.792 212.923 313.883 212.923C311.626 212.923 310.585 224.392 309.978 256.47C309.5 280.745 311.236 296.612 316.312 313.988C317.658 318.644 318.395 322.525 319.567 331.234C321.563 346.325 322.387 353.31 322.387 355.638C322.387 357.578 322.387 357.578 321.129 355.336C316.833 347.618 310.455 342.66 302.167 340.547C298.175 339.513 296.223 339.469 293.836 340.289C292.838 340.634 291.971 340.806 291.841 340.634C291.754 340.461 290.843 337.745 289.888 334.597C287.935 328.259 287.588 324.681 288.847 323.689C289.931 322.74 293.62 323.042 301.95 324.767C310.325 326.491 313.145 326.707 313.579 325.629C313.969 324.594 312.147 323.042 308.112 320.973C303.426 318.601 298.653 316.963 293.403 315.971C291.146 315.54 289.107 314.979 288.803 314.678C288.152 314.031 288.239 301.182 288.933 295.275C289.714 288.721 291.276 281.004 293.533 272.812C295.963 263.886 296.57 260.092 297.438 249.572C298.219 240.086 299.737 230.213 301.343 224.133C303.122 217.493 310.194 196.496 311.409 194.297C315.488 186.838 324.557 180.025 336.923 175.153C341.652 173.299 364.258 165.538 365.039 165.495C365.213 165.495 365.343 165.797 365.343 166.142ZM368.944 172.609C369.422 177.395 369.378 177.783 367.99 185.415C367.209 189.769 366.515 193.391 366.428 193.477C365.56 194.297 362.653 190.287 361.655 186.881C360.83 184.164 360.83 179.896 361.612 177.654C361.959 176.662 363.26 174.334 364.432 172.48C365.647 170.583 366.862 168.427 367.122 167.651C367.903 165.538 368.337 166.788 368.944 172.609ZM480.023 185.544C480.066 185.76 479.762 186.018 479.372 186.105C478.894 186.191 478.591 185.975 478.591 185.544C478.591 184.811 479.892 184.768 480.023 185.544ZM475.987 185.76C476.682 186.191 476.291 188.519 474.729 192.658C474.252 193.952 473.861 195.676 473.818 196.409C473.818 198.177 473.08 198.22 471.475 196.582C468.915 193.909 469.826 188.735 473.297 186.406C475.076 185.199 475.12 185.199 475.987 185.76ZM388.947 191.063C390.422 195.03 393.72 200.549 396.584 203.868C401.357 209.344 410.425 214.949 419.277 217.881C428.172 220.856 439.887 221.632 440.321 219.304C440.408 218.744 439.713 218.356 437.284 217.666C425.959 214.303 420.101 206.973 420.535 196.496C420.622 194.512 420.839 193.305 421.186 193.219C421.49 193.089 422.704 193.995 423.876 195.159C425.481 196.754 426.74 198.738 428.649 202.661C432.163 209.775 435.678 213.828 441.102 216.847C443.835 218.399 444.139 218.744 446.482 223.055C447.48 224.952 448.912 227.151 449.65 227.884C452.036 230.428 453.598 229.695 456.592 224.694C457.677 222.84 458.848 221.029 459.152 220.684C461.452 217.968 464.576 217.278 465.834 219.175C467.613 221.848 466.789 230.428 464.229 235.645C462.84 238.491 459.152 242.242 457.72 242.242C457.286 242.242 456.635 241.682 456.245 240.949C454.856 238.232 453.815 239.439 452.296 245.605C451.081 250.52 448.218 256.514 445.267 260.351C437.067 271.044 420.578 281.047 411.119 281.047C407.605 281.047 406.563 280.443 399.621 274.536C390.943 267.077 387.559 263.326 384.304 257.333C381.744 252.633 380.573 248.192 380.096 241.035C379.488 232.929 379.141 231.118 377.058 224.435C374.889 217.45 374.281 214.001 374.585 210.163C374.932 206.197 376.191 202.575 378.707 198.522C381.007 194.814 386.561 187.959 387.298 187.915C387.559 187.915 388.296 189.338 388.947 191.063ZM486.357 189.554C491.391 192.572 495.296 196.668 497.812 201.583C499.548 204.903 500.763 210.465 500.806 215.122C500.806 217.709 500.589 220.08 500.329 220.511C499.982 221.158 499.895 220.296 499.852 216.976C499.808 203.179 492.389 191.58 481.758 188.778C478.808 188.002 478.808 188.002 481.237 187.959C483.277 187.915 484.014 188.131 486.357 189.554ZM485.143 192.313C493.821 196.884 499.071 209.086 497.682 221.503C496.771 229.825 494.124 236.809 487.529 248.451C483.928 254.832 482.886 260.308 484.622 264.016C485.62 266.172 488.527 268.931 491.608 270.656C493.864 271.906 493.907 271.992 492.649 271.992C490.913 271.992 485.75 270.225 482.539 268.5C478.851 266.56 476.638 264.533 475.336 261.946C474.338 259.834 474.252 259.23 474.338 255.091C474.469 250.477 474.035 248.925 472.733 249.399C471.605 249.831 471.128 253.409 471.431 259.101C471.605 262.076 471.605 264.921 471.475 265.439C471.171 266.301 471.084 266.344 469.999 265.784C464.229 262.765 462.927 253.754 467.092 245.648C467.526 244.829 469.479 241.638 471.475 238.534C477.593 228.833 479.979 223.314 480.76 216.89C481.541 210.552 480.109 203.136 477.506 199.729C476.682 198.651 476.508 198.091 476.768 197.53C476.985 197.099 477.419 195.504 477.723 193.952C477.983 192.4 478.33 190.977 478.461 190.761C478.894 190.071 482.539 190.934 485.143 192.313ZM478.547 208.654C479.198 212.492 479.155 214.993 478.33 218.873C476.985 225.427 473.124 232.886 468.698 237.585C466.528 239.914 463.057 242.501 462.667 242.07C462.536 241.94 463.144 241.035 463.968 240.086C464.836 239.095 466.051 237.025 466.702 235.516C467.83 232.886 467.917 232.8 468.654 233.446C469.392 234.093 469.522 234.05 470.52 233.058C474.469 229.135 477.68 216.157 477.029 206.714C476.812 203.825 476.855 203.696 477.463 204.774C477.81 205.378 478.33 207.145 478.547 208.654ZM466.615 215.553C468.524 217.062 469.479 219.433 469.435 222.495C469.392 225.211 469.392 225.211 469.002 222.71C468.264 217.752 466.311 215.596 462.84 216.07C461.886 216.2 460.54 216.717 459.89 217.191C458.328 218.356 457.85 218.356 458.892 217.191C461.191 214.604 464.532 213.915 466.615 215.553ZM314.143 232.584C314.143 238.62 313.926 248.451 313.666 254.444C313.275 262.593 313.319 268.715 313.709 279.063C313.969 286.609 314.317 293.076 314.447 293.507C314.62 293.982 314.577 294.068 314.23 293.766C313.275 292.861 312.321 282.125 312.104 269.578C311.887 258.109 312.494 230.946 313.145 224.047C313.666 218.054 314.143 221.977 314.143 232.584ZM465.313 244.7C463.057 249.701 462.45 252.288 462.623 256.039C462.753 259.187 463.014 260.092 464.272 262.464C465.183 264.188 466.442 265.74 467.656 266.646C469.609 268.112 469.609 268.112 468.09 268.112C466.051 268.112 461.452 265.784 460.193 264.102C457.503 260.523 456.245 256.212 456.549 251.555C456.852 247.2 457.503 245.993 459.89 245.605C460.931 245.433 462.58 244.786 463.578 244.225C465.964 242.759 466.138 242.846 465.313 244.7ZM455.898 244.915C455.768 245.476 455.334 247.157 454.943 248.71C454.075 252.073 454.292 255.953 455.594 259.704C457.503 265.18 460.54 268.241 465.487 269.664C467.743 270.354 467.743 270.354 466.875 271.561C465.791 273.113 460.237 278.072 457.416 280.098C449.433 285.746 432.12 290.144 415.155 290.834C409.384 291.05 407.865 290.964 405.522 290.36C402.051 289.411 400.489 288.118 400.489 286.135C400.489 284.884 401.704 281.909 402.658 280.917C402.832 280.702 404.047 281.09 405.305 281.737C411.38 284.927 420.795 282.513 432.554 274.709C444.573 266.775 452.079 256.643 454.509 245.131C454.639 244.441 455.03 243.967 455.42 243.967C455.941 243.967 456.071 244.225 455.898 244.915ZM547.147 249.917C547.971 250.175 554.61 250.908 561.899 251.512C577.65 252.849 582.987 253.582 587.586 255.004C591.101 256.126 594.442 258.454 594.442 259.79C594.442 260.135 593.27 261.688 591.882 263.24C586.458 269.233 580.514 281.09 575.871 295.361C571.792 307.779 569.362 317.825 566.021 336.451C564.893 342.617 563.895 347.748 563.808 347.834C563.722 347.92 563.635 347.446 563.635 346.756C563.592 339.556 563.114 327.009 562.767 323.732C560.988 308.081 556.042 287.902 546.973 259.273C545.151 253.582 543.676 248.753 543.676 248.537C543.676 248.365 544.109 248.451 544.674 248.796C545.194 249.141 546.322 249.658 547.147 249.917ZM596.611 264.835C596.611 267.853 595.483 271.044 588.628 287.385C582.943 300.967 578.431 316.833 571.272 348.093C564.893 375.989 560.381 399.186 554.957 431.523C551.095 454.719 549.88 460.195 547.494 465.973C545.888 469.853 544.413 472.354 544.24 471.75C544.153 471.492 544.457 469.379 544.934 467.051C545.845 462.61 547.06 453.9 549.316 435.835C551.703 417.036 553.482 407.162 558.602 384.957C561.856 370.772 563.375 363.183 567.28 341.539C568.842 332.959 570.707 323.171 571.445 319.765C576.782 294.672 585.33 273.372 593.617 264.447C595.657 262.248 596.611 262.377 596.611 264.835ZM473.427 271.518C474.729 271.949 477.549 273.113 479.675 274.062C481.845 275.01 484.926 276.132 486.531 276.563C489.525 277.296 489.525 277.296 486.054 278.891C481.411 281.047 477.94 284.539 475.553 289.368C472.776 295.06 472.299 297.345 472.343 306.27C472.343 319.507 474.772 328.733 481.021 339.297C482.062 341.108 482.93 342.789 482.93 343.005C482.93 343.695 469.349 349.214 447.22 357.535C433.031 362.882 430.341 363.916 419.147 368.357C405.826 373.661 402.441 374.609 396.28 374.911C390.639 375.213 387.906 374.825 376.841 372.41C372.546 371.419 366.992 370.427 364.475 370.168C359.919 369.651 359.919 369.651 359.963 368.142C359.963 366.719 363.174 347.015 363.998 343.35C364.215 342.401 365.083 339.081 365.95 336.02C368.901 325.5 370.506 315.669 370.55 307.779C370.55 301.829 370.246 300.449 368.944 300.449C368.12 300.449 367.729 300.837 367.079 302.346C365.039 306.83 363.477 316.704 362.696 329.553C362.436 333.821 362.132 337.572 362.045 337.874C361.915 338.262 360.961 337.702 359.268 336.149C355.277 332.657 351.068 329.423 348.508 327.957C345.904 326.491 345.904 326.535 348.247 322.87C349.506 320.886 352.934 315.281 367.599 291.438C369.725 287.989 373.153 284.755 376.277 283.289C382.525 280.314 397.321 277.856 400.055 279.322C400.836 279.753 400.836 279.883 399.578 282.168C397.321 286.523 398.276 289.325 402.875 291.61C405.479 292.904 405.479 292.904 413.289 292.861C429.083 292.774 446.656 288.851 456.115 283.289C459.369 281.392 465.444 276.218 468.785 272.51C469.696 271.518 470.607 270.699 470.781 270.699C470.954 270.699 472.126 271.044 473.427 271.518ZM494.775 279.15C494.905 279.322 493.387 280.443 491.304 281.65C481.628 287.385 476.074 297 475.25 309.417C474.859 315.238 474.252 313.427 474.252 306.399C474.252 297.647 475.38 293.076 478.851 287.902C482.062 283.073 485.49 280.616 490.48 279.538C493.56 278.848 494.385 278.805 494.775 279.15ZM501.848 281.521C509.224 286.523 520.896 305.321 525.886 320.153C527.448 324.939 528.489 329.768 527.925 329.768C527.751 329.768 526.884 329.38 525.929 328.863C521.503 326.578 514.821 327.656 505.492 332.183C499.678 334.985 492.172 339.599 490.566 341.367C490.089 341.884 489.395 342.272 488.961 342.272C487.269 342.272 482.062 333.347 479.675 326.319C475.684 314.678 476.898 301.096 482.756 292.343C484.882 289.11 488.831 285.402 491.998 283.634C493.473 282.815 495.513 281.607 496.511 280.961C498.593 279.667 499.244 279.753 501.848 281.521ZM103.311 291.007C102.27 291.998 101.966 292.688 101.966 293.982C101.966 296.094 105.264 306.572 123.01 361.028C134.335 395.823 138.153 407.809 137.85 408.068C137.589 408.369 131.385 391.554 123.748 369.866C106.869 321.964 99.5365 296.827 100.838 291.61C101.142 290.489 102.313 289.756 103.832 289.713C104.483 289.67 104.396 289.929 103.311 291.007ZM130.821 291.61C136.808 291.955 149.088 292.731 158.156 293.335C167.225 293.939 185.665 295.103 199.16 295.922C248.711 298.983 270.146 300.449 272.358 300.88C275.656 301.57 277.826 303.338 279.388 306.572C280.733 309.417 283.336 318.687 285.506 328.475C287.111 335.589 289.107 342.617 290.799 347.23C292.925 352.965 305.465 396.599 305.465 398.28C305.465 399.142 305.725 400.22 306.072 400.695C306.723 401.643 316.182 433.592 317.354 438.723C317.744 440.448 318.048 442.906 318.048 444.199C318.048 447.347 317.007 448.166 313.579 447.735C309.934 447.26 256.565 439.327 252.529 438.637C246.845 437.689 239.773 436.611 209.79 432.17C165.142 425.616 149.652 423.201 147.179 422.425C145.096 421.735 144.098 419.666 140.366 408.024C138.544 402.333 135.203 392.028 132.99 385.173C130.777 378.274 126.265 364.434 123.01 354.345C119.756 344.255 115.851 332.226 114.332 327.612C109.343 312.435 105.047 298.983 104.396 296.396C103.615 293.464 103.919 292.473 106.002 291.61C107.867 290.791 117.109 290.791 130.821 291.61ZM520.245 301.311C522.328 304.89 524.367 308.986 524.758 310.366C525.061 311.401 522.675 307.218 518.9 300.018C516.947 296.353 517.772 297.129 520.245 301.311ZM367.946 316.143C367.426 320.886 365.603 330.501 365.169 330.976C365.039 331.105 364.822 331.105 364.736 331.019C364.128 330.458 366.558 310.926 367.599 307.563C368.163 305.839 368.163 305.839 368.294 308.641C368.38 310.193 368.207 313.557 367.946 316.143ZM525.886 313.168C525.886 313.384 525.669 313.298 525.452 312.953C525.235 312.608 525.018 312.091 525.018 311.875C525.018 311.616 525.235 311.746 525.452 312.091C525.669 312.435 525.886 312.91 525.886 313.168ZM345.34 323.904C345.037 324.508 344.646 325.025 344.429 325.025C343.908 325.025 343.995 324.681 344.776 323.473C345.687 322.137 346.035 322.395 345.34 323.904ZM532.134 329.165C533.392 330.286 533.392 330.286 531.613 333.907C530.355 336.365 529.791 338.09 529.791 339.297C529.791 340.246 530.745 343.997 531.96 347.575C534.65 355.724 535.258 358.484 535.822 364.434C536.429 370.384 535.822 371.72 535.041 366.202C534.39 361.286 532.741 354.56 530.225 346.584C528.836 342.229 528.359 339.987 528.316 337.659C528.272 334.727 528.142 334.382 526.71 332.7C525.148 330.846 525.148 330.846 522.154 330.889C517.728 330.932 513.78 332.269 503.497 337.357C498.463 339.814 494.211 341.841 494.038 341.841C492.475 341.841 498.854 337.745 505.492 334.468C512.695 330.932 515.776 329.984 520.245 329.984C523.716 329.984 524.107 330.07 526.059 331.364C527.231 332.097 528.446 332.614 528.706 332.528C529.4 332.226 530.225 330.415 530.225 329.122C530.225 327.785 530.572 327.785 532.134 329.165ZM538.599 330.199C541.333 331.924 541.159 332.183 538.252 330.76C536.95 330.113 535.865 329.423 535.865 329.251C535.865 328.647 536.516 328.863 538.599 330.199ZM352.89 333.433C355.797 335.718 355.884 336.451 353.107 334.813C351.371 333.778 347.987 330.846 347.987 330.372C347.987 329.984 350.46 331.493 352.89 333.433ZM524.671 333.519C525.105 333.907 525.452 334.64 525.452 335.115C525.452 336.494 527.448 344.428 529.357 350.593C530.311 353.612 531.57 358.742 532.221 361.976C533.652 369.435 533.566 377.369 532.004 381.939C527.925 393.624 515.732 410.051 501.848 422.425C493.994 429.41 493.56 429.971 492.692 433.981C490.393 444.285 485.576 451.4 478.07 455.323C475.597 456.617 474.252 456.875 474.252 455.97C474.252 455.711 475.684 453.857 477.419 451.96C482.279 446.527 485.229 440.577 483.016 440.577C482.626 440.577 481.021 441.698 479.458 443.078C475.293 446.743 473.601 447.993 469.262 450.451C465.357 452.693 463.404 453.21 463.404 452.003C463.404 451.658 465.747 448.813 468.654 445.708C474.989 438.853 477.419 435.705 477.202 434.67C476.898 432.989 475.553 433.765 470.65 438.378C462.927 445.665 456.462 449.632 456.462 447.131C456.462 446.01 458.154 443.595 464.706 435.446C469.999 428.763 471.388 426.349 469.783 426.349C469.479 426.349 466.311 429.281 462.753 432.859C453.641 441.957 451.298 443.595 451.819 440.362C452.123 438.508 454.813 434.153 460.714 425.961C465.661 419.148 465.834 418.804 465.14 418.372C464.359 417.898 462.667 419.278 460.801 422.037C458.762 425.055 456.896 426.521 453.815 427.686C451.429 428.591 449.086 428.462 449.086 427.427C449.086 426.737 453.338 423.072 457.46 420.14C461.408 417.338 465.183 415.742 469.696 414.88C471.865 414.492 474.208 413.931 474.946 413.63C475.901 413.242 477.94 410.741 482.583 404.316C489.829 394.227 492.085 390.476 496.164 381.637C500.199 372.885 501.631 370.815 504.625 369.435C510.526 366.762 514.821 364.434 515.255 363.701C515.863 362.58 514.518 361.674 512.218 361.674C510.309 361.674 505.536 363.744 502.932 365.727C502.108 366.331 501.284 366.719 501.153 366.547C500.98 366.331 500.112 364.348 499.201 362.106C498.29 359.863 496.207 355.336 494.558 352.059C492.953 348.783 491.608 345.937 491.608 345.678C491.608 345.42 492.909 344.643 494.558 343.954C496.164 343.221 501.24 340.806 505.84 338.564C516.687 333.261 522.631 331.665 524.671 333.519ZM536.733 336.882C539.467 340.03 542.938 346.885 544.196 351.542C545.541 356.544 545.541 366.848 544.196 371.764C542.981 376.161 541.636 379.007 539.423 381.896C537.688 384.181 534.694 386.941 534.347 386.596C534.217 386.509 534.824 384.569 535.605 382.327C537.644 376.722 538.208 372.669 537.905 366.288C537.601 359.432 536.733 355.25 533.869 346.584C532.568 342.66 531.526 339.254 531.526 339.038C531.526 338.176 533.783 334.037 534.173 334.166C534.39 334.252 535.518 335.46 536.733 336.882ZM352.543 336.882C355.494 338.78 359.442 340.504 360.917 340.547C362.349 340.547 362.176 341.668 359.746 348.308C357.706 353.827 356.665 358.009 355.884 363.399C355.58 365.77 355.58 365.77 353.715 363.054C350.764 358.829 346.295 355.767 343.561 356.155C340.958 356.5 343.258 359.432 350.2 364.52C353.237 366.805 353.671 367.323 354.365 369.349C354.886 371.031 354.973 371.85 354.669 372.367C353.845 373.661 350.938 374.997 344.646 376.981C337.27 379.309 330.978 382.37 327.247 385.431C324.687 387.544 320.695 391.985 316.356 397.677C314.447 400.177 314.447 400.177 311.973 399.919C308.98 399.574 308.199 399.315 307.895 398.453C307.548 397.59 307.938 397.03 308.893 397.03C310.064 397.03 313.622 394.313 315.705 391.813C317.961 389.053 319.74 385.82 321.259 381.637C323.906 374.264 328.245 367.797 336.098 359.475C341.956 353.31 344.169 349.386 346.685 340.763C348.291 335.201 348.681 334.382 349.419 334.813C349.723 335.028 351.111 335.934 352.543 336.882ZM324.383 342.272C325.251 347.101 325.728 358.009 325.034 358.398C324.73 358.613 324.557 358.182 324.557 357.061C324.557 356.155 324.079 351.154 323.472 345.98C322.864 340.806 322.387 336.149 322.43 335.632C322.474 334.295 323.602 338.047 324.383 342.272ZM302.211 342.703C306.853 343.867 310.759 346.152 314.36 349.774C317.397 352.836 320.434 357.32 320.131 358.268C320.044 358.527 318.916 357.88 317.614 356.716C311.366 351.413 299.737 346.67 295.138 347.575C294.01 347.791 293.923 347.705 293.359 345.42C292.752 342.789 292.708 342.919 294.184 342.315C295.876 341.625 298.566 341.755 302.211 342.703ZM487.052 343.609C487.225 343.824 487.833 344.212 488.397 344.428C488.961 344.643 489.438 345.118 489.438 345.42C489.438 345.764 490.827 348.826 492.475 352.275C495.99 359.475 496.467 361.114 493.43 355.423C490.48 349.947 487.746 345.764 486.791 345.247C486.314 345.031 485.576 344.902 485.143 345.075C484.448 345.29 484.405 345.161 484.839 343.824C485.186 342.617 485.403 342.401 486.054 342.746C486.444 342.962 486.922 343.35 487.052 343.609ZM488.484 350.895C491.347 355.681 495.252 363.615 496.598 367.366C497.769 370.686 497.769 370.686 496.033 372.755C494.038 375.127 491.521 380.214 489.438 386.251C488.657 388.493 487.703 390.692 487.355 391.123C486.574 391.985 483.884 392.848 478.157 394.012C468.437 395.995 462.016 396.642 440.408 397.892C426.306 398.668 420.144 399.358 416.587 400.522C415.719 400.824 412.812 402.161 410.121 403.54C404.481 406.429 401.791 407.119 396.367 407.076C391.767 407.076 389.511 406.645 380.486 404.101C370.116 401.212 369.292 401.341 360.483 407.076C354.496 411.043 351.849 412.25 349.289 412.293C345.384 412.379 346.512 410.396 354.409 403.454C361.134 397.547 362.479 396.771 366.515 396.469C371.374 396.081 374.542 394.141 373.11 392.416C372.676 391.942 371.895 391.813 369.899 391.942C366.862 392.158 363.174 393.667 359.833 396.167C358.27 397.375 357.142 397.892 356.144 397.892C350.46 397.935 342.91 401.773 334.97 408.671C329.026 413.845 325.815 415.527 324.643 414.147C323.862 413.242 324.513 411.819 327.464 407.895C329.937 404.532 341.175 393.063 343.258 391.726C344.559 390.864 347.076 390.39 354.886 389.484C358.097 389.096 361.351 388.493 362.176 388.148C363.911 387.285 364.085 385.992 362.479 385.388C360.614 384.655 348.204 386.725 344.256 388.407C341.175 389.743 329.329 401.341 324.079 408.197C321.693 411.301 319.523 412.983 317.874 412.983C316.356 412.983 316.443 412.336 318.482 408.456C321.129 403.497 328.505 393.925 332.627 390.131C334.84 388.105 335.664 387.76 347.206 384.354C351.328 383.103 353.498 381.68 353.064 380.516C352.63 379.395 351.111 379.611 344.863 381.767C338.138 384.052 333.191 386.38 331.152 388.148C329.546 389.528 319.697 401.859 317.918 404.661C315.445 408.542 312.798 407.809 314.837 403.799C315.792 401.945 319.306 397.202 322.951 392.804C328.722 385.863 333.799 382.715 344.95 379.18C348.378 378.059 352.586 376.463 354.322 375.601C357.403 374.049 357.403 374.049 368.641 375.601C392.592 378.964 396.887 378.835 410.642 374.566C413.723 373.618 420.535 371.591 425.829 370.082C446.656 364.175 460.714 358.829 477.723 350.507C485.707 346.541 485.88 346.541 488.484 350.895ZM547.581 353.525C548.926 358.268 549.229 365.857 548.231 372.281C547.45 377.369 547.45 377.369 548.839 378.576C549.577 379.223 550.184 379.913 550.184 380.085C550.141 381.12 538.469 388.363 536.777 388.407C536.473 388.407 537.471 387.07 539.033 385.431C544.109 380.042 546.973 372.712 547.407 363.615C547.667 359.303 547.017 352.792 546.019 349.774C545.802 349.084 545.845 349.084 546.236 349.645C546.453 349.99 547.06 351.758 547.581 353.525ZM472.516 350.249C472.516 351.714 434.116 366.547 432.077 365.9C431.816 365.814 438.325 363.183 446.526 360.036C454.726 356.888 463.882 353.396 466.875 352.189C472.993 349.817 472.516 349.947 472.516 350.249ZM301.386 353.051C312.538 358.182 318.916 366.59 318.916 376.161C318.916 379.093 318.048 381.12 315.054 385.087C312.494 388.45 307.287 393.408 306.81 392.934C306.55 392.675 303.946 384.052 300.952 373.747C297.959 363.442 295.225 354.086 294.878 352.965C294.531 351.887 294.357 350.895 294.444 350.766C294.834 350.378 297.742 351.37 301.386 353.051ZM309.153 353.612C313.015 355.552 315.098 357.061 319.089 360.812C320.999 362.623 322.647 363.83 323.211 363.83C323.689 363.83 324.123 364.003 324.123 364.261C324.123 365.296 321.866 374.178 321.519 374.394C321.346 374.523 320.825 373.143 320.434 371.376C318.829 364.132 314.143 358.009 306.68 353.482C304.554 352.232 302.862 351.154 302.862 351.068C302.862 350.766 306.333 352.189 309.153 353.612ZM500.72 369.478C500.72 369.694 500.416 369.866 500.069 369.866C499.678 369.866 499.418 369.478 499.418 368.961C499.418 368.185 499.505 368.142 500.069 368.573C500.416 368.875 500.72 369.263 500.72 369.478ZM358.054 370.341C358.704 371.764 358.704 371.807 357.88 371.936C356.839 372.109 356.839 372.152 356.491 370.125C356.101 368.056 356.969 368.142 358.054 370.341ZM368.727 372.928C370.463 373.186 371.808 373.488 371.678 373.618C371.374 373.919 363.607 372.798 363.607 372.41C363.607 372.281 364.041 372.195 364.605 372.281C365.126 372.367 366.992 372.626 368.727 372.928ZM558.428 376.42C552.874 398.108 549.056 419.148 546.062 444.889C544.89 454.59 543.806 461.877 542.374 469.379C541.897 471.837 541.506 473.906 541.506 474.036C541.506 474.122 540.812 474.208 539.987 474.208C537.991 474.208 534.781 472.742 529.53 469.465C527.187 467.956 523.282 465.714 520.896 464.464C516.557 462.179 516.557 462.179 516.513 452.133C516.427 436.912 514.778 425.53 511.35 417.208C511.177 416.734 512.044 415.397 514.474 412.681C520.245 406.214 525.929 398.668 528.489 394.098C529.4 392.459 529.661 392.287 531.179 392.287C536.907 392.287 553.048 382.5 556.909 376.679C558.255 374.652 558.905 374.566 558.428 376.42ZM494.905 379.223C494.298 380.344 493.821 381.163 493.777 380.991C493.734 380.387 495.556 376.636 495.773 376.894C495.903 377.024 495.513 378.059 494.905 379.223ZM315.054 389.14C314.533 390.131 310.672 393.882 310.672 393.408C310.672 393.106 315.011 388.407 315.314 388.407C315.401 388.407 315.271 388.751 315.054 389.14ZM531.96 389.743C531.96 389.959 531.657 390.131 531.309 390.131C530.919 390.131 530.789 389.872 530.919 389.484C531.179 388.838 531.96 389.01 531.96 389.743ZM486.705 395.133C486.574 395.262 486.01 395.305 485.446 395.219C484.448 395.003 484.448 395.003 485.533 394.572C486.531 394.141 487.312 394.529 486.705 395.133ZM484.665 397.547C484.622 397.849 482.409 401.126 479.719 404.791C474.338 412.164 474.772 411.819 468.654 412.94C464.663 413.716 461.712 414.88 458.111 417.251C451.385 421.606 446.482 426.133 446.482 427.944C446.482 428.763 448.218 430.143 449.606 430.488C450.344 430.617 451.776 430.488 452.817 430.229C453.902 429.928 454.856 429.798 454.987 429.884C455.117 430.014 454.336 431.48 453.294 433.075C452.253 434.714 450.951 436.869 450.431 437.861C448.131 442.431 450.648 445.579 454.639 443.164C456.245 442.173 456.375 442.431 455.16 444.242C453.381 446.915 454.423 450.063 457.069 450.063C458.458 450.063 459.065 449.804 462.753 447.692C465.01 446.355 465.01 446.614 462.667 449.201C460.237 451.917 461.408 455.151 464.619 454.633C466.658 454.331 469.999 452.693 474.122 449.934C478.764 446.872 478.591 446.959 478.591 447.347C478.591 447.562 477.115 449.33 475.336 451.27C472.646 454.202 472.082 455.064 472.082 456.272C472.082 457.479 472.299 457.824 473.427 458.255C477.115 459.807 485.837 453.814 490.002 446.915C491.781 443.897 494.645 436.395 494.645 434.627C494.645 432.73 495.86 430.833 498.81 428.074C500.459 426.521 503.366 423.762 505.275 421.908C507.228 420.097 509.007 418.588 509.311 418.588C510.179 418.588 512.391 427.082 513.52 434.972C514.257 439.887 514.908 459.117 514.431 460.971C514.04 462.567 512.305 462.524 508.833 460.756C506.794 459.721 505.406 459.376 503.019 459.204C498.81 458.945 496.164 460.152 492.866 463.946C485.316 472.57 476.638 479.986 470.477 483.09C467.179 484.728 465.4 485.289 460.063 486.324C455.507 487.229 452.644 488.048 450.257 489.169C447.35 490.506 446.786 490.635 446.309 490.118C445.831 489.558 442.534 484.513 439.279 479.296C438.585 478.175 436.936 475.631 435.591 473.691C434.246 471.707 432.207 468.646 431.035 466.878C422.878 454.418 411.206 444.156 399.838 439.499C389.815 435.403 380.486 435.835 369.335 440.965C357.359 446.441 353.15 447.907 349.549 447.907C348.291 447.907 346.946 447.648 346.468 447.347C345.601 446.7 346.685 446.269 363.174 440.836C379.879 435.36 406.13 426.349 413.115 423.762C422.314 420.313 424.483 418.674 423.746 415.829C423.225 413.802 422.054 413.457 410.425 412.121C396.801 410.525 395.846 410.396 396.627 409.965C397.408 409.534 402.441 408.757 404.394 408.757C405.218 408.757 407.692 408.283 409.818 407.636C414.634 406.257 420.058 405.437 430.428 404.575C446.743 403.239 448.955 403.023 453.425 402.376C455.941 402.031 462.363 400.867 467.743 399.789C476.161 398.065 480.673 397.332 483.928 397.073C484.318 397.073 484.665 397.288 484.665 397.547ZM459.629 399.186C458.197 399.746 445.571 401.255 435.852 401.988C426.653 402.678 420.969 403.282 416.803 403.972C415.415 404.23 414.157 404.316 414.027 404.187C413.723 403.842 417.237 402.333 419.58 401.816C422.791 401.126 429.517 400.565 443.228 399.832C450.387 399.444 456.462 399.056 456.679 398.97C456.939 398.884 457.894 398.841 458.848 398.798C460.28 398.798 460.41 398.884 459.629 399.186ZM354.018 400.781C354.018 400.997 353.107 401.859 352.066 402.807C350.026 404.575 347.119 405.308 345.601 404.446C344.863 404.058 344.906 403.972 345.948 403.282C348.725 401.514 354.148 399.832 354.018 400.781ZM312.798 402.462C312.885 402.549 312.754 403.109 312.494 403.713C311.366 406.17 312.277 409.102 314.186 409.102C315.314 409.102 315.445 409.534 314.881 411.56C314.49 413.112 314.533 413.5 315.184 414.233C316.616 415.785 318.178 415.742 321.606 413.931C321.78 413.845 322.17 414.276 322.43 414.88C322.691 415.44 323.515 416.173 324.166 416.475C326.813 417.553 329.503 416.13 336.662 410.008C338.919 408.068 340.958 406.515 341.218 406.472C342.52 406.386 346.902 406.602 347.206 406.774C347.38 406.903 346.946 407.766 346.251 408.757C343.735 412.164 345.08 414.535 349.506 414.449C351.892 414.406 355.06 413.026 360.31 409.663C363.347 407.723 363.347 407.723 365.517 408.413C367.513 409.059 374.672 410.008 407.865 413.845C420.014 415.268 420.882 415.397 420.882 415.958C420.882 416.173 419.363 416.734 417.541 417.165C415.675 417.639 406.173 420.27 396.367 423.029C386.604 425.745 375.54 428.807 371.852 429.798C368.163 430.79 363.477 432.04 361.438 432.601C354.496 434.541 339.092 438.766 330.848 441.008C325.858 442.345 322.257 443.552 321.693 444.07C320.478 445.234 320.218 445.105 320.218 443.38C320.218 441.095 318.786 435.188 315.922 425.659C314.533 420.959 312.451 413.975 311.366 410.18C310.238 406.386 309.24 402.937 309.11 402.462C308.893 401.773 309.023 401.729 310.715 401.988C311.756 402.161 312.711 402.376 312.798 402.462ZM378.794 405.869C381.527 406.645 385.042 407.55 386.604 407.809C389.294 408.326 390.466 408.844 390.032 409.275C389.728 409.62 368.25 407.205 366.688 406.688C365.734 406.386 366.948 405.308 369.075 404.575C371.071 403.842 372.242 404.015 378.794 405.869ZM416.109 420.27C414.027 421.391 402.789 425.314 371.852 435.705C336.228 447.692 322.083 452.046 321.302 451.27C320.955 450.925 322.474 446.398 323.211 445.708C323.602 445.32 327.333 444.07 331.499 442.949C335.664 441.871 345.34 439.241 352.977 437.128C360.614 435.015 371.548 432.04 377.275 430.488C383.003 428.979 394.154 425.875 402.008 423.589C409.904 421.347 416.63 419.493 416.977 419.493C417.324 419.493 416.934 419.838 416.109 420.27ZM161.627 426.996C182.107 430.057 183.539 430.316 183.236 430.747C183.105 431.005 182.238 431.049 181.196 430.876C180.242 430.747 173.69 429.755 166.704 428.677C153.297 426.694 148.133 425.659 147.743 425.012C147.569 424.797 147.743 424.711 148.046 424.84C148.35 424.926 154.468 425.918 161.627 426.996ZM204.366 433.42C221.809 436.007 249.101 440.146 252.746 440.793C254.655 441.138 260.339 442 265.329 442.733C270.363 443.423 282.251 445.191 291.797 446.614C312.19 449.718 316.616 450.106 318.265 449.028C318.916 448.597 319.48 448.338 319.567 448.425C319.653 448.511 319.393 449.287 319.003 450.235C318.352 451.874 318.352 451.874 314.837 451.615C309.24 451.141 297.047 449.201 266.631 443.984C261.294 443.078 257.823 442.733 254.091 442.733C250.013 442.733 248.754 442.604 248.147 442.043C247.626 441.569 239.556 440.103 221.419 437.128C197.598 433.204 191.74 432.127 193.519 431.997C193.866 431.954 198.769 432.644 204.366 433.42ZM396.801 440.664C408.516 444.458 420.709 454.849 429.951 468.948C431.252 470.888 432.207 472.613 432.077 472.742C431.643 473.13 427.434 471.276 425.698 469.94C424.657 469.12 422.488 466.232 420.188 462.653C415.458 455.28 413.462 452.693 409.991 449.373C405.262 444.932 401.357 442.69 395.282 440.879C393.243 440.276 390.9 439.586 390.075 439.327C388.687 438.939 388.73 438.896 390.726 439.154C391.941 439.284 394.675 439.931 396.801 440.664ZM206.276 457.565C209.443 460.799 211.396 464.076 213.739 470.026C214.867 472.915 215.995 475.545 216.212 475.803C216.819 476.623 217.687 476.493 218.729 475.372C219.64 474.424 219.64 474.424 219.379 476.148C219.249 477.097 219.032 480.589 218.859 483.909C218.685 487.229 218.425 490.204 218.295 490.506C218.121 490.808 217.123 488.005 216.125 484.254C213.825 475.89 212.654 473.303 207.1 464.507C202.501 457.22 201.329 455.151 201.329 454.375C201.329 453.555 204.019 455.28 206.276 457.565ZM505.275 461.489C507.228 461.92 506.404 462.437 503.019 462.912C501.153 463.213 498.897 463.558 498.029 463.688C494.732 464.248 497.075 461.963 500.416 461.316C502.151 460.971 502.889 461.014 505.275 461.489ZM198.682 464.464C202.804 467.482 206.406 471.88 210.615 479.037C212.958 483.047 214.042 485.85 213.175 485.85C211.786 485.85 204.627 477.959 200.548 471.923C197.251 467.094 195.341 462.998 196.383 462.998C196.556 462.998 197.554 463.645 198.682 464.464ZM513.737 464.938C513.737 465.283 513.563 465.585 513.303 465.585C513.086 465.585 512.869 465.283 512.869 464.938C512.869 464.593 513.086 464.291 513.303 464.291C513.563 464.291 513.737 464.593 513.737 464.938ZM527.751 470.759C531.483 473.001 534.434 474.898 534.347 475.027C534.043 475.329 526.884 471.75 524.28 469.983C521.937 468.387 519.464 466.102 520.505 466.49C520.766 466.576 524.02 468.517 527.751 470.759ZM356.361 477.657C356.535 479.21 356.491 479.641 356.231 478.951C355.884 477.873 355.667 474.769 355.971 475.114C356.058 475.2 356.231 476.364 356.361 477.657ZM537.167 475.717C537.991 476.019 538.382 476.321 538.035 476.321C537.688 476.321 536.82 476.062 536.082 475.717C534.39 474.984 535.171 474.941 537.167 475.717ZM442.924 488.868C444.877 491.886 445.05 492.36 444.486 492.964C443.922 493.524 443.575 493.438 441.362 492.489C440.017 491.843 437.37 490.851 435.505 490.204C432.294 489.126 431.599 488.436 433.682 488.436C435.157 488.436 438.498 487.186 439.366 486.281C439.844 485.85 440.321 485.461 440.451 485.461C440.625 485.418 441.709 486.971 442.924 488.868ZM414.547 488.911C414.764 489.083 414.417 489.471 413.766 489.773C412.508 490.377 412.421 490.334 411.987 488.954C411.727 488.048 411.814 488.005 412.942 488.264C413.593 488.436 414.33 488.695 414.547 488.911Z" fill="#373737"/>
</g>
<defs>
<clipPath id="clip0_73_1764">
<rect width="727" height="499" fill="white"/>
</clipPath>
</defs>
</svg>
