<svg width="695" height="447" viewBox="0 0 695 447" fill="none" xmlns="http://www.w3.org/2000/svg">
<path d="M298.329 34.2805C291.657 35.0446 288.564 35.9129 284.707 38.0316C282.587 39.1777 282.448 39.2125 281.475 38.7262C280.572 38.24 280.294 38.2747 278.799 38.761C273.135 40.6712 265.629 46.4367 260.312 52.9663C250.304 65.192 246.412 80.4393 250.061 92.9775C251.069 96.4507 252.876 100.549 254.474 102.911C255.378 104.231 255.725 104.543 256.351 104.37C257.011 104.231 257.185 104.439 257.81 106.384C259.583 111.837 260.347 115.136 261.007 120.659C261.807 127.223 262.675 130.141 265.177 134.725C268.27 140.352 277.166 152.96 282.205 158.899C286.027 163.344 287.973 164.629 291.518 164.942C293.95 165.15 294.819 165.845 292.699 165.88C290.51 165.88 271.606 172.34 265.282 175.223C257.393 178.8 250.443 184.774 247.768 190.227C246.447 192.901 240.713 210.128 239.567 214.921C238.142 220.791 237.377 225.792 236.648 234.441C235.848 243.645 235.466 246.041 233.52 253.196C230.705 263.477 229.559 270.666 229.142 280.287C228.794 288.24 229.281 289.143 234.424 290.151C237.899 290.845 242.59 292.443 245.335 293.867C247.802 295.117 247.073 295.117 240.818 293.832C234.771 292.582 232.165 292.512 230.532 293.485C229.246 294.284 229.559 294.944 227.439 286.886C225.667 280.287 224.589 278.203 221.879 276.293C220.732 275.459 219.585 275.008 217.952 274.73C216.666 274.521 206.102 273.723 194.426 272.993C182.785 272.229 171.978 271.534 170.449 271.43C168.92 271.326 159.225 270.701 148.904 270.041C124.266 268.443 111.374 267.575 99.7325 266.707C83.956 265.56 82.3923 265.526 81.037 266.359C79.4038 267.401 78.7783 269.138 79.0563 271.743C79.5428 276.188 81.9058 285.254 86.0063 298.347C92.0875 317.763 107.656 361.803 110.887 368.819C111.652 370.416 112.243 371.875 112.243 372.014C112.243 372.188 87.292 372.326 56.1213 372.326C0 372.326 0 372.326 0 373.195C0 374.063 0 374.063 56.9205 374.063C113.806 374.063 113.806 374.063 114.606 375.452C116.204 378.231 118.081 378.821 131.668 380.836C136.116 381.461 139.869 382.086 139.938 382.19C140.043 382.295 139.834 382.503 139.487 382.607C133.058 384.899 128.506 387.609 124.544 391.568C120.722 395.388 117.525 400.772 114.397 408.795C104.32 434.497 104.667 433.455 105.953 433.455C106.578 433.455 109.08 427.55 114.536 413.136C117.003 406.572 119.61 401.05 121.903 397.472C126.421 390.457 134.344 385.281 143.483 383.406C145.881 382.885 149.981 383.441 174.793 387.47C183.48 388.894 191.646 390.213 192.967 390.422C195.434 390.804 195.886 391.221 194.357 391.603C192.376 392.054 187.685 394.59 185.287 396.465C180.631 400.112 177.573 404.801 175.453 411.643C174.862 413.519 174.271 415.047 174.132 415.047C173.993 415.047 173.298 413.519 172.569 411.643C170.866 407.336 169.302 404.766 166.696 401.953C163.395 398.445 160.406 397.125 159.398 398.757C158.877 399.626 159.294 400.702 161.796 404.801C167.217 413.657 167.877 414.769 167.773 414.873C167.704 414.943 166.8 413.901 165.758 412.546C162.769 408.726 158.669 405.391 156.723 405.252C155.055 405.113 154.707 405.878 155.437 408.17C156.757 412.407 161.866 419.527 167.078 424.494C169.511 426.821 170.101 427.203 171.144 427.203C172.186 427.203 172.36 427.342 172.569 428.141C173.646 432.934 174.341 434.254 175.418 433.594C176.287 433.038 176.495 431.718 176.878 424.737C177.399 415.22 179.032 409.559 182.924 404.176C186.399 399.278 193.314 394.416 198.805 392.992C202.419 392.019 207.041 392.471 224.659 395.388C248.741 399.417 248.949 399.452 254.37 399.452C258.853 399.452 261.181 398.931 269.973 396.118C274.942 394.52 274.942 394.52 275.602 395.215C277.236 396.986 281.267 396.986 286.271 395.25C287.904 394.694 289.294 394.242 289.329 394.312C289.363 394.347 288.495 395.805 287.417 397.542C283.803 403.307 282.379 409.594 283.143 416.714C283.595 421.09 284.846 425.605 286.653 429.461C288.112 432.552 288.912 433.455 289.537 432.83C289.85 432.517 289.85 431.926 289.502 430.398C286.792 417.929 286.027 411.747 286.688 406.676C287.765 397.959 291.483 393.096 299.024 390.526C301.595 389.658 302.221 389.588 307.016 389.588C311.638 389.588 312.576 389.692 315.356 390.526C319.283 391.672 321.959 393.027 325.225 395.527C328.874 398.306 329.917 399.626 336.484 409.663C339.091 413.657 340.654 414.977 344.234 416.123C345.554 416.54 346.909 417.131 347.257 417.443C348.334 418.346 351.357 423.626 351.114 424.181C350.558 425.709 343.782 426.717 336.554 426.404C334.052 426.3 331.758 426.092 331.446 425.987C331.133 425.848 330.577 424.945 330.264 423.973C329.569 421.785 328.527 419.701 328.04 419.388C327.345 418.971 326.65 419.979 326.65 421.368C326.65 422.132 327.171 424.529 327.832 426.647C328.492 428.766 329.326 431.753 329.673 433.281C330.195 435.608 330.403 436.06 330.994 436.06C331.619 436.06 331.689 435.816 331.724 433.281C331.724 430.537 331.724 430.537 333.287 430.016C334.295 429.704 336.484 429.495 339.681 429.495C345.068 429.461 346.075 429.669 352.226 432.135C355.979 433.594 356.744 433.594 357.578 432.065C357.751 431.718 359.211 430.78 360.775 429.981C362.999 428.835 364.528 428.349 367.968 427.724C377.455 425.953 380.999 423.834 390.59 414.491C395.386 409.802 396.081 409.212 396.915 409.385C397.436 409.49 399.243 409.316 400.911 409.038C402.579 408.726 404.942 408.378 406.123 408.274C408.278 408.031 408.278 408.031 409.216 409.49C410.189 410.914 410.189 410.948 409.737 413.588C409.494 415.047 408.486 419.527 407.479 423.487C405.984 429.391 405.741 430.78 406.123 431.093C406.888 431.718 407.791 430.572 409.181 427.238C411.51 421.75 412.239 418.763 412.309 414.526C412.344 412.268 412.552 410.393 412.795 409.906C413.212 409.108 413.247 409.108 415.367 411.122C419.954 415.394 426.07 418.555 432.846 420.118C435.487 420.743 440.178 420.778 562.255 420.778C688.919 420.778 688.919 420.778 689.023 420.013C689.127 419.249 689.127 419.249 566.008 419.215C498.28 419.215 440.7 419.041 438.024 418.902C435.348 418.728 432.777 418.416 432.29 418.242C431.421 417.86 431.421 417.86 432.429 417.86C433.923 417.825 436.286 416.575 437.259 415.29C439.449 412.442 441.395 407.232 442.889 400.286C443.341 398.167 444.835 389.797 446.19 381.704C451.681 348.778 456.893 323.216 463.252 297.826C467.457 281.051 469.785 273.792 474.581 262.435C479.585 250.591 480.488 246.458 478.473 244.652C478.125 244.339 477.813 243.818 477.813 243.506C477.813 242.464 476.423 240.658 474.789 239.616C470.932 237.185 464.642 236.073 447.233 234.788C441.534 234.371 438.441 233.885 437.433 233.295C436.356 232.635 435.661 230.967 433.194 223.118C427.425 204.71 421.101 188.039 417.348 181.474C415.61 178.488 413.178 175.431 411.44 174.146C410.363 173.347 409.981 173.278 408.139 173.417C404.386 173.695 399.486 176.265 395.003 180.294C393.891 181.266 392.884 181.995 392.779 181.891C392.467 181.544 394.691 178.314 396.289 176.855C398.478 174.841 400.424 173.695 403.795 172.409C407.235 171.124 407.618 170.499 405.845 169.006C404.49 167.86 400.181 165.671 396.949 164.421C393.509 163.171 383.64 160.184 374.362 157.683C366.96 155.669 364.945 154.905 367.064 154.905C368.281 154.905 369.914 153.724 370.644 152.265C371.686 150.146 371.512 144.277 370.296 140.143C368.767 135.038 366.543 129.898 363.207 123.889C358.168 114.789 357.404 112.427 356.361 102.459C354.346 82.9747 352.365 74.9516 346.805 63.7332C340.932 51.7854 333.948 44.1791 324.739 39.5945C318.449 36.4686 313.48 35.0794 306.252 34.3847C302.603 34.0374 300.449 34.0027 298.329 34.2805ZM307.711 36.1561C313.41 36.816 320.256 38.8999 324.843 41.3659C335.998 47.305 345.137 60.0169 350.245 76.723C352.018 82.4537 353.234 88.8097 354.103 96.9022C355.805 112.288 356.118 113.712 359.211 119.756C360.462 122.187 362.686 126.494 364.145 129.377C367.968 136.774 369.74 142.644 369.74 147.68C369.74 150.32 369.115 152.23 368.072 152.786C366.821 153.446 357.925 152.96 353.06 151.952C345.068 150.32 343.156 149.521 340.585 146.743C336.936 142.783 334.295 134.204 334.295 126.251C334.295 121.874 334.399 121.701 336.519 121.076C338.986 120.346 340.55 119.165 342.461 116.63C346.492 111.281 348.404 104.96 348.16 97.8747C348.021 94.5057 347.917 94.0195 346.805 91.8661C345.763 89.8516 345.311 89.3654 343.678 88.4276C341.766 87.3509 341.766 87.3509 334.469 87.1425C327.067 86.8994 325.26 86.691 319.353 85.4754C316.329 84.8502 314.696 84.4335 308.823 82.8705C302.221 81.0645 286.166 75.8894 280.224 73.6318C276.089 72.0689 273.066 70.1934 272.336 68.7694C270.946 66.1297 272.718 59.4959 277.131 50.674C279.946 45.0127 282.205 41.6784 284.151 40.3934C289.885 36.5381 298.329 35.0446 307.711 36.1561ZM280.433 40.2892C280.433 40.4976 279.077 42.2689 277.444 44.2139C271.328 51.5076 267.158 60.6421 266.602 67.8663C266.359 70.9922 266.359 70.9922 263.926 72.2078C257.88 75.299 253.05 83.0094 252.876 89.7822C252.876 91.102 252.945 93.2901 253.084 94.6446C253.328 96.8328 253.293 97.0064 252.841 96.2076C252.598 95.7213 251.903 93.6027 251.382 91.5188C248.741 81.2728 251.312 69.0125 258.297 58.4192C263.058 51.2297 270.216 44.5959 276.923 41.2617C279.668 39.9071 280.433 39.6987 280.433 40.2892ZM274.421 52.3411C272.996 55.1892 271.12 60.4684 270.529 63.4901C269.452 68.8041 270.772 71.0964 276.645 73.8749C283.456 77.1397 306.182 84.3293 317.441 86.7605C325.086 88.4276 326.372 88.6013 334.33 88.8444C341.801 89.0875 341.836 89.0875 343.295 90.06C346.979 92.4913 347.813 99.6808 345.346 107.322C344.581 109.649 343.017 113.053 342.809 112.809C342.739 112.74 343.122 111.177 343.678 109.336C345.068 104.682 345.624 99.3682 345.102 96.1381C344.616 93.2554 343.782 91.6577 342.183 90.7199C337.805 88.0456 333.253 91.0325 330.82 98.1526C329.013 103.362 327.727 103.085 323.314 96.3465C319.387 90.3726 318.623 89.9211 306.495 86.6563C291.657 82.6621 281.649 78.5985 275.255 74.0139C273.448 72.6941 271.988 71.8952 271.432 71.8952C270.842 71.8952 269.382 72.7983 267.228 74.5001C257.289 82.3495 255.83 84.6766 255.447 92.908C255.239 97.4232 255.239 97.4232 254.752 94.3321C253.918 88.9486 254.752 85.0934 257.671 80.3698C259.513 77.4176 262.085 75.0211 264.795 73.6318C267.749 72.1383 268.062 71.6521 268.305 67.9358C268.409 66.1992 268.861 63.5943 269.313 62.1703C270.425 58.3845 274.595 49.9794 275.081 50.4656C275.185 50.5698 274.873 51.4034 274.421 52.3411ZM275.081 75.8547C282.969 81.1687 291.066 84.364 307.711 88.7402C314.14 90.4421 317.407 91.7619 319.109 93.3943C319.665 93.8805 320.986 95.6866 322.028 97.4232C324.357 101.14 325.295 102.251 326.893 102.98C328.318 103.675 329.465 103.467 330.473 102.355C330.89 101.938 331.55 101.591 331.967 101.591C332.558 101.591 333.009 101.035 334.017 99.1251C334.712 97.8052 335.998 95.9297 336.832 95.0267C338.187 93.6027 338.535 93.3943 339.542 93.4985C340.585 93.6027 340.828 93.8458 341.593 95.3393C342.392 96.9717 342.461 97.4232 342.461 102.112C342.427 109.232 341.106 113.643 337.944 116.908C335.685 119.304 334.469 118.992 333.809 115.901C333.67 115.275 333.357 114.963 332.94 114.963C332.21 114.963 331.863 115.623 331.863 116.873C331.863 117.325 331.48 119.374 330.994 121.458C330.507 123.507 329.778 126.598 329.395 128.335C328.11 133.926 325.434 139.206 321.299 144.346C315.461 151.64 304.827 159.906 298.225 162.268C296.035 163.067 296.035 163.067 295.375 162.198C294.715 161.33 294.715 161.33 293.742 162.302C291.518 164.386 288.043 162.997 284.012 158.412C276.923 150.355 267.089 135.837 264.795 130.141C263.509 126.945 263.231 125.556 262.571 119.86C261.98 114.824 261.563 112.948 259.756 107.148C256.386 96.277 256.038 90.7547 258.505 85.6491C259.061 84.5029 260.034 82.94 260.695 82.2106C262.085 80.6129 270.703 73.7013 271.328 73.6666C271.571 73.6318 273.239 74.639 275.081 75.8547ZM338.291 91.9356C337.735 92.2134 336.519 93.1859 335.616 94.0542C334.677 94.9572 333.948 95.4782 333.948 95.2351C333.948 94.5752 336.137 92.3176 337.249 91.8314C338.708 91.1714 339.542 91.2756 338.291 91.9356ZM333.948 119.964C333.948 120.207 333.704 120.624 333.426 120.867C333.009 121.215 332.905 121.18 332.905 120.624C332.905 120.242 333.009 119.825 333.148 119.721C333.531 119.304 333.948 119.443 333.948 119.964ZM333.253 134.065C333.913 137.643 335.546 142.401 336.901 144.659C338.535 147.333 340.237 149.104 342.739 150.598C343.817 151.292 344.72 151.848 344.72 151.883C344.72 151.918 343.052 151.952 340.967 151.952C338.639 151.987 336.45 152.195 335.129 152.543C333.461 152.994 332.731 153.064 331.793 152.751C330.229 152.265 326.372 153.029 322.793 154.522C313.584 158.343 303.159 168.693 298.503 178.661C297.252 181.37 297.252 181.37 297.217 176.404C297.217 173.069 297.008 170.464 296.626 168.624C296.279 167.095 296.001 165.637 295.966 165.394C295.931 165.15 296.869 164.629 298.155 164.143C301.248 163.067 302.985 162.164 306.912 159.524C313.688 155.009 320.187 148.931 324.287 143.2C328.144 137.886 330.229 133.058 331.758 126.077C332.384 123.125 332.384 123.125 332.592 127.466C332.731 129.863 333.009 132.815 333.253 134.065ZM345.763 154.036C361.296 156.433 371.2 164.004 376.169 177.307C376.864 179.217 377.663 181.162 377.906 181.648C378.323 182.447 378.254 182.621 376.899 184.114C373.354 188.039 374.084 192.971 378.497 195.228C379.505 195.749 379.852 196.166 380.061 197.173C380.547 199.535 380.339 208.01 379.713 210.649C378.879 214.018 378.011 216.727 377.767 216.727C377.663 216.727 377.559 215.269 377.559 213.497C377.524 210.892 377.385 210.024 376.76 208.843C375.126 205.717 371.686 204.432 368.837 205.891C366.439 207.141 364.597 209.573 362.894 213.775C362.269 215.303 361.643 216.588 361.47 216.658C361.331 216.693 360.497 215.512 359.663 214.053C357.022 209.26 356.744 208.947 354.068 207.35C349.828 204.849 347.604 202.314 344.929 196.826C343.226 193.318 342.218 191.686 340.967 190.435C339.125 188.595 337.423 187.691 336.554 188.039C334.226 188.907 334.677 197.382 337.318 202.175C338.43 204.259 341.836 207.523 344.129 208.739C345.033 209.225 345.763 209.712 345.763 209.85C345.763 210.684 337.075 208.531 332.697 206.62C321.994 201.932 315.773 195.576 312.611 186.094C311.708 183.489 311.708 183.385 312.229 181.058C314.349 171.75 319.248 163.483 325.364 158.864C331.411 154.314 337.805 152.821 345.763 154.036ZM373.389 159.211C390.799 164.004 398.722 166.574 402.544 168.728C404.629 169.909 404.872 170.43 403.552 170.742C400.563 171.437 395.803 174.598 393.474 177.446C390.729 180.815 389.826 183.663 391.32 184.427C392.189 184.913 392.745 184.566 395.872 181.787C400.251 177.862 405.324 175.084 408.104 175.049C409.286 175.049 409.668 175.257 410.988 176.681C413.421 179.356 415.853 183.211 418.564 188.768C422.213 196.166 423.742 200.612 429.858 221.416C432.255 229.578 436.008 242.047 439.414 253.126C443.306 265.838 446.677 279.419 448.24 288.796C450.117 299.98 450.152 318.7 448.275 327.8C447.233 332.906 443.966 338.636 442.055 338.636C440.873 338.636 440.178 337.629 440.422 336.24C441.881 327.383 441.325 319.742 438.719 314.081C437.294 310.99 436.113 309.253 432.777 305.467C431.352 303.8 430.24 302.376 430.344 302.272C430.935 301.647 438.128 307.03 441.985 311.025C444.626 313.699 444.974 313.942 445.46 313.491C445.912 313.004 445.773 312.622 443.897 309.913C441.464 306.301 438.649 303.349 435.07 300.674C431.63 298.104 429.51 297.167 427.807 297.479C426.244 297.722 426.174 297.583 424.993 292.895C422.421 282.51 416.305 271.222 409.564 264.449C404.455 259.274 400.042 256.982 393.266 255.836C389.27 255.176 387.949 254.759 383.918 252.883C381.347 251.702 380.93 251.39 381.103 250.799C381.242 250.244 381.069 250.001 380.374 249.723C379.296 249.306 378.949 248.646 379.262 247.43C379.505 246.527 379.54 246.527 381.381 248.577C383.536 250.973 385.934 252.362 390.59 253.891C393.266 254.794 394.378 255.002 396.915 254.967C401.953 254.967 401.988 254.238 397.123 251.841C395.142 250.869 392.988 249.619 392.258 249.028C389.409 246.666 389.131 241.109 391.633 236.177C392.084 235.309 393.613 232.6 395.038 230.134C400.633 220.513 402.405 215.581 402.648 208.843C402.857 203.842 402.266 200.577 400.459 196.652C398.061 191.443 395.212 188.282 389.965 185.017C383.988 181.301 383.988 181.301 381.798 181.37C379.401 181.474 379.505 181.613 377.698 176.612C374.327 167.234 368.037 160.288 359.176 156.085C357.717 155.391 356.535 154.766 356.535 154.731C356.535 154.592 357.473 154.87 373.389 159.211ZM327.519 155.182C327.31 155.356 326.164 156.19 324.913 157.058C320.673 160.045 316.885 164.803 314.036 170.603C312.368 174.007 310.665 179.286 310.665 181.023C310.665 181.857 310.005 182.829 307.781 185.434C300.9 193.353 298.19 198.736 298.155 204.363C298.155 206.69 297.669 206.065 296.939 202.835C296.209 199.709 296.14 193.7 296.765 189.984C297.738 184.01 300.518 177.515 304.341 172.132C308.962 165.602 317.407 158.586 323.662 156.051C326.303 154.974 328.249 154.557 327.519 155.182ZM292.595 167.929C292.595 168.624 291.9 169.978 290.024 172.896C289.19 174.181 288.251 175.987 287.939 176.89C286.027 182.516 289.641 192.102 293.499 191.651C294.611 191.512 294.611 191.512 294.784 196.93C294.923 201.445 295.097 202.8 295.862 205.37C296.8 208.531 297.634 210.371 298.85 211.865C300.032 213.358 302.012 220.305 302.36 224.368C303.09 232.565 303.437 234.684 304.445 237.671C306.391 243.506 310.283 248.959 316.086 253.995C319.387 256.843 319.387 256.843 315.287 257.26C307.538 258.058 301.7 259.76 298.155 262.261C295.445 264.136 291.031 269.763 284.637 279.419C281.857 283.621 278.209 289.005 276.506 291.332C273.691 295.222 273.448 295.708 273.795 296.472C274.004 296.923 274.317 297.305 274.525 297.305C274.734 297.305 275.151 297.896 275.463 298.591C275.741 299.32 276.436 300.466 276.992 301.161C277.965 302.376 277.965 302.481 277.514 303.592C277.236 304.252 276.61 306.266 276.089 308.072C275.568 309.878 274.386 312.97 273.483 314.88C272.023 317.902 271.293 318.943 268.201 322.174C266.22 324.257 263.857 327.036 262.884 328.356C261.841 329.745 261.112 330.509 261.042 330.197C260.973 329.919 261.181 328.356 261.494 326.758C262.397 321.896 262.502 318.388 261.876 313.352C261.251 308.42 259.617 301.334 257.88 295.916C255.934 289.838 254.231 279.523 253.293 268.478C252.772 262.365 252.702 242.498 253.119 227.147C253.501 212.942 252.911 205.613 251.382 205.613C249.575 205.613 248.741 214.852 248.254 240.692C247.872 260.247 249.262 273.028 253.328 287.025C254.405 290.776 254.996 293.902 255.934 300.918C257.532 313.074 258.193 318.7 258.193 320.576C258.193 322.139 258.193 322.139 257.185 320.333C253.745 314.116 248.636 310.122 241.999 308.42C238.802 307.586 237.238 307.551 235.327 308.211C234.528 308.489 233.833 308.628 233.729 308.489C233.659 308.35 232.929 306.162 232.165 303.627C230.601 298.521 230.323 295.638 231.331 294.84C232.2 294.075 235.153 294.319 241.825 295.708C248.532 297.097 250.791 297.271 251.138 296.402C251.451 295.569 249.992 294.319 246.76 292.651C243.007 290.741 239.184 289.421 234.98 288.623C233.173 288.275 231.539 287.824 231.296 287.581C230.775 287.06 230.844 276.709 231.4 271.951C232.026 266.672 233.277 260.455 235.084 253.856C237.03 246.666 237.516 243.61 238.211 235.135C238.837 227.494 240.053 219.541 241.339 214.643C242.764 209.295 248.428 192.38 249.401 190.609C252.667 184.6 259.93 179.113 269.834 175.188C273.622 173.695 291.726 167.443 292.352 167.408C292.491 167.408 292.595 167.651 292.595 167.929ZM295.479 173.139C295.862 176.994 295.827 177.307 294.715 183.454C294.089 186.962 293.533 189.88 293.464 189.949C292.769 190.609 290.441 187.379 289.641 184.635C288.981 182.447 288.981 179.009 289.607 177.202C289.885 176.404 290.927 174.528 291.865 173.035C292.838 171.506 293.811 169.77 294.02 169.145C294.645 167.443 294.993 168.45 295.479 173.139ZM384.439 183.558C384.474 183.732 384.231 183.94 383.918 184.01C383.536 184.079 383.293 183.906 383.293 183.558C383.293 182.968 384.335 182.933 384.439 183.558ZM381.208 183.732C381.764 184.079 381.451 185.955 380.2 189.289C379.818 190.331 379.505 191.72 379.47 192.311C379.47 193.735 378.879 193.77 377.594 192.45C375.543 190.296 376.273 186.129 379.053 184.253C380.478 183.281 380.513 183.281 381.208 183.732ZM311.499 188.004C312.681 191.199 315.322 195.645 317.615 198.319C321.438 202.73 328.7 207.246 335.789 209.607C342.913 212.004 352.296 212.629 352.643 210.754C352.713 210.302 352.157 209.989 350.211 209.434C341.141 206.725 336.45 200.82 336.797 192.38C336.867 190.783 337.04 189.81 337.318 189.741C337.562 189.636 338.535 190.366 339.473 191.304C340.759 192.589 341.766 194.186 343.295 197.347C346.11 203.078 348.925 206.343 353.269 208.774C355.458 210.024 355.701 210.302 357.578 213.775C358.377 215.303 359.524 217.075 360.114 217.665C362.026 219.714 363.277 219.124 365.674 215.095C366.543 213.602 367.481 212.143 367.725 211.865C369.566 209.677 372.068 209.121 373.076 210.649C374.501 212.803 373.841 219.714 371.79 223.917C370.678 226.209 367.725 229.231 366.578 229.231C366.23 229.231 365.709 228.779 365.396 228.189C364.284 226.001 363.45 226.973 362.234 231.94C361.261 235.899 358.968 240.727 356.605 243.818C350.037 252.432 336.832 260.49 329.256 260.49C326.442 260.49 325.608 260.003 320.048 255.245C313.098 249.236 310.387 246.215 307.781 241.387C305.731 237.601 304.792 234.024 304.41 228.258C303.924 221.729 303.646 220.27 301.978 214.887C300.24 209.26 299.754 206.481 299.997 203.39C300.275 200.195 301.283 197.278 303.298 194.013C305.14 191.026 309.588 185.503 310.179 185.469C310.387 185.469 310.978 186.615 311.499 188.004ZM389.513 186.788C393.544 189.22 396.671 192.519 398.687 196.479C400.077 199.153 401.05 203.633 401.085 207.385C401.085 209.468 400.911 211.379 400.702 211.726C400.424 212.247 400.355 211.552 400.32 208.878C400.285 197.764 394.343 188.421 385.829 186.163C383.466 185.538 383.466 185.538 385.412 185.503C387.046 185.469 387.636 185.642 389.513 186.788ZM388.54 189.011C395.49 192.693 399.695 202.522 398.583 212.525C397.853 219.228 395.733 224.855 390.451 234.232C387.567 239.373 386.733 243.784 388.123 246.771C388.922 248.507 391.25 250.73 393.718 252.119C395.525 253.126 395.559 253.196 394.552 253.196C393.162 253.196 389.026 251.772 386.455 250.383C383.501 248.82 381.729 247.187 380.686 245.103C379.887 243.402 379.818 242.915 379.887 239.581C379.991 235.865 379.644 234.614 378.601 234.996C377.698 235.344 377.316 238.226 377.559 242.811C377.698 245.208 377.698 247.5 377.594 247.917C377.35 248.611 377.281 248.646 376.412 248.195C371.79 245.763 370.748 238.504 374.084 231.975C374.431 231.315 375.995 228.745 377.594 226.244C382.493 218.429 384.405 213.984 385.03 208.809C385.656 203.703 384.509 197.729 382.424 194.985C381.764 194.117 381.625 193.665 381.833 193.214C382.007 192.867 382.354 191.581 382.598 190.331C382.806 189.081 383.084 187.935 383.188 187.761C383.536 187.205 386.455 187.9 388.54 189.011ZM383.258 202.175C383.779 205.266 383.744 207.28 383.084 210.406C382.007 215.685 378.914 221.694 375.37 225.48C373.632 227.355 370.852 229.439 370.539 229.092C370.435 228.988 370.922 228.258 371.582 227.494C372.277 226.695 373.25 225.028 373.771 223.813C374.675 221.694 374.744 221.625 375.335 222.146C375.926 222.667 376.03 222.632 376.829 221.833C379.991 218.672 382.563 208.218 382.042 200.612C381.868 198.285 381.903 198.181 382.389 199.049C382.667 199.535 383.084 200.959 383.258 202.175ZM373.702 207.732C375.231 208.947 375.995 210.858 375.96 213.324C375.926 215.512 375.926 215.512 375.613 213.497C375.022 209.503 373.458 207.767 370.678 208.149C369.914 208.253 368.837 208.67 368.315 209.052C367.064 209.989 366.682 209.989 367.516 209.052C369.358 206.968 372.034 206.412 373.702 207.732ZM251.59 221.451C251.59 226.313 251.416 234.232 251.208 239.06C250.895 245.624 250.93 250.556 251.243 258.892C251.451 264.97 251.729 270.18 251.833 270.527C251.972 270.909 251.938 270.979 251.66 270.736C250.895 270.006 250.131 261.358 249.957 251.251C249.783 242.012 250.27 220.131 250.791 214.574C251.208 209.746 251.59 212.907 251.59 221.451ZM372.659 231.211C370.852 235.24 370.366 237.323 370.505 240.345C370.609 242.881 370.817 243.61 371.825 245.52C372.555 246.909 373.563 248.16 374.536 248.889C376.099 250.07 376.099 250.07 374.883 250.07C373.25 250.07 369.566 248.195 368.559 246.84C366.404 243.957 365.396 240.484 365.64 236.733C365.883 233.225 366.404 232.253 368.315 231.94C369.149 231.801 370.47 231.28 371.269 230.829C373.18 229.648 373.319 229.717 372.659 231.211ZM365.118 231.384C365.014 231.836 364.667 233.19 364.354 234.441C363.659 237.15 363.833 240.276 364.875 243.297C366.404 247.708 368.837 250.174 372.798 251.32C374.605 251.876 374.605 251.876 373.91 252.849C373.041 254.099 368.593 258.093 366.335 259.726C359.941 264.275 346.075 267.818 332.488 268.374C327.866 268.547 326.65 268.478 324.774 267.992C321.994 267.228 320.743 266.186 320.743 264.588C320.743 263.581 321.716 261.184 322.48 260.385C322.619 260.212 323.592 260.524 324.6 261.045C329.465 263.616 337.006 261.671 346.423 255.384C356.049 248.993 362.06 240.831 364.006 231.558C364.111 231.002 364.423 230.62 364.736 230.62C365.153 230.62 365.257 230.829 365.118 231.384ZM438.198 235.413C438.858 235.622 444.175 236.212 450.013 236.698C462.627 237.775 466.901 238.365 470.585 239.512C473.399 240.415 476.075 242.29 476.075 243.367C476.075 243.645 475.137 244.895 474.025 246.145C469.681 250.973 464.92 260.524 461.202 272.021C457.936 282.023 455.99 290.116 453.314 305.12C452.41 310.087 451.611 314.22 451.542 314.289C451.472 314.359 451.403 313.977 451.403 313.421C451.368 307.621 450.986 297.514 450.708 294.874C449.283 282.267 445.321 266.012 438.059 242.95C436.599 238.365 435.418 234.475 435.418 234.302C435.418 234.163 435.765 234.232 436.217 234.51C436.634 234.788 437.537 235.205 438.198 235.413ZM477.813 247.43C477.813 249.862 476.909 252.432 471.419 265.595C466.866 276.536 463.252 289.317 457.519 314.498C452.41 336.969 448.796 355.655 444.453 381.704C441.36 400.39 440.387 404.801 438.476 409.455C437.19 412.581 436.008 414.595 435.869 414.109C435.8 413.901 436.043 412.199 436.425 410.323C437.155 406.746 438.128 399.73 439.935 385.177C441.846 370.034 443.271 362.081 447.372 344.194C449.978 332.767 451.194 326.654 454.322 309.219C455.573 302.307 457.067 294.423 457.658 291.679C461.932 271.465 468.778 254.307 475.415 247.118C477.048 245.347 477.813 245.451 477.813 247.43ZM379.157 252.814C380.2 253.161 382.459 254.099 384.161 254.863C385.899 255.627 388.366 256.53 389.652 256.878C392.05 257.468 392.05 257.468 389.27 258.753C385.551 260.49 382.771 263.303 380.86 267.193C378.636 271.778 378.254 273.618 378.289 280.808C378.289 291.471 380.235 298.903 385.239 307.412C386.073 308.871 386.768 310.226 386.768 310.399C386.768 310.955 375.891 315.401 358.168 322.104C346.805 326.411 344.651 327.244 335.685 330.822C325.017 335.094 322.306 335.858 317.372 336.101C312.854 336.344 310.665 336.032 301.804 334.087C298.364 333.288 293.916 332.489 291.9 332.281C288.251 331.864 288.251 331.864 288.286 330.648C288.286 329.502 290.858 313.629 291.518 310.677C291.692 309.913 292.387 307.239 293.082 304.773C295.445 296.298 296.73 288.379 296.765 282.023C296.765 277.23 296.522 276.119 295.479 276.119C294.819 276.119 294.506 276.432 293.985 277.647C292.352 281.259 291.101 289.213 290.475 299.563C290.267 303.002 290.024 306.023 289.954 306.266C289.85 306.579 289.085 306.127 287.73 304.877C284.533 302.064 281.162 299.459 279.112 298.278C277.027 297.097 277.027 297.132 278.904 294.18C279.911 292.582 282.657 288.067 294.402 268.86C296.105 266.081 298.85 263.477 301.352 262.296C306.356 259.899 318.206 257.919 320.395 259.1C321.021 259.448 321.021 259.552 320.013 261.393C318.206 264.901 318.97 267.158 322.654 268.999C324.739 270.041 324.739 270.041 330.994 270.006C343.643 269.937 357.717 266.776 365.292 262.296C367.898 260.767 372.763 256.6 375.439 253.613C376.169 252.814 376.899 252.154 377.038 252.154C377.177 252.154 378.115 252.432 379.157 252.814ZM396.254 258.961C396.359 259.1 395.142 260.003 393.474 260.976C385.725 265.595 381.277 273.34 380.617 283.343C380.304 288.032 379.818 286.573 379.818 280.912C379.818 273.861 380.721 270.18 383.501 266.012C386.073 262.122 388.818 260.142 392.814 259.274C395.281 258.718 395.942 258.684 396.254 258.961ZM401.919 260.872C407.826 264.901 417.174 280.044 421.17 291.992C422.421 295.847 423.255 299.737 422.803 299.737C422.664 299.737 421.969 299.424 421.205 299.007C417.66 297.167 412.309 298.035 404.838 301.682C400.181 303.939 394.169 307.656 392.884 309.08C392.501 309.496 391.945 309.809 391.598 309.809C390.243 309.809 386.073 302.619 384.161 296.958C380.964 287.581 381.937 276.64 386.629 269.589C388.331 266.985 391.494 263.998 394.03 262.574C395.212 261.914 396.845 260.941 397.644 260.42C399.312 259.378 399.834 259.448 401.919 260.872ZM82.7398 268.513C81.9058 269.312 81.6625 269.867 81.6625 270.909C81.6625 272.611 84.3035 281.051 98.5163 324.917C107.586 352.946 110.644 362.602 110.401 362.81C110.192 363.053 105.223 349.508 99.107 332.037C85.5893 293.45 79.7165 273.202 80.759 268.999C81.0023 268.096 81.9405 267.505 83.1568 267.471C83.678 267.436 83.6085 267.644 82.7398 268.513ZM104.771 268.999C109.567 269.277 119.401 269.902 126.664 270.388C133.927 270.874 148.695 271.812 159.503 272.472C199.187 274.938 216.354 276.119 218.126 276.466C220.767 277.022 222.504 278.446 223.755 281.051C224.833 283.343 226.918 290.811 228.655 298.695C229.941 304.426 231.539 310.087 232.895 313.803C234.597 318.423 244.64 353.571 244.64 354.926C244.64 355.62 244.849 356.489 245.127 356.871C245.648 357.635 253.223 383.371 254.162 387.504C254.474 388.894 254.718 390.873 254.718 391.915C254.718 394.451 253.884 395.111 251.138 394.763C248.219 394.381 205.477 387.991 202.245 387.435C197.693 386.671 192.029 385.802 168.016 382.225C132.259 376.946 119.853 375.001 117.872 374.376C116.204 373.82 115.405 372.153 112.416 362.775C110.957 358.191 108.281 349.89 106.509 344.367C104.737 338.81 101.123 327.661 98.5163 319.534C95.91 311.407 92.7825 301.716 91.5663 298C87.57 285.774 84.1298 274.938 83.6085 272.854C82.983 270.492 83.2263 269.694 84.8943 268.999C86.3885 268.339 93.7903 268.339 104.771 268.999ZM416.653 276.814C418.321 279.696 419.954 282.996 420.267 284.107C420.51 284.941 418.599 281.572 415.575 275.772C414.012 272.819 414.672 273.445 416.653 276.814ZM294.68 288.761C294.263 292.582 292.804 300.327 292.456 300.709C292.352 300.813 292.178 300.813 292.109 300.744C291.622 300.292 293.568 284.559 294.402 281.85C294.854 280.46 294.854 280.46 294.958 282.718C295.028 283.968 294.889 286.678 294.68 288.761ZM421.17 286.365C421.17 286.539 420.996 286.469 420.823 286.191C420.649 285.913 420.475 285.497 420.475 285.323C420.475 285.115 420.649 285.219 420.823 285.497C420.996 285.774 421.17 286.157 421.17 286.365ZM276.575 295.013C276.332 295.499 276.019 295.916 275.846 295.916C275.429 295.916 275.498 295.638 276.124 294.666C276.853 293.589 277.131 293.798 276.575 295.013ZM426.174 299.25C427.182 300.154 427.182 300.154 425.757 303.071C424.749 305.051 424.298 306.44 424.298 307.412C424.298 308.177 425.062 311.198 426.035 314.081C428.19 320.645 428.676 322.868 429.128 327.661C429.614 332.454 429.128 333.531 428.502 329.085C427.981 325.126 426.661 319.708 424.645 313.282C423.533 309.774 423.151 307.968 423.116 306.093C423.081 303.731 422.977 303.453 421.83 302.098C420.579 300.605 420.579 300.605 418.182 300.64C414.637 300.674 411.475 301.751 403.239 305.85C399.208 307.829 395.803 309.462 395.664 309.462C394.413 309.462 399.521 306.162 404.838 303.523C410.606 300.674 413.073 299.91 416.653 299.91C419.433 299.91 419.745 299.98 421.309 301.022C422.247 301.612 423.22 302.029 423.429 301.96C423.985 301.716 424.645 300.258 424.645 299.216C424.645 298.139 424.923 298.139 426.174 299.25ZM431.352 300.084C433.541 301.473 433.402 301.682 431.074 300.536C430.031 300.015 429.163 299.459 429.163 299.32C429.163 298.834 429.684 299.007 431.352 300.084ZM282.622 302.689C284.95 304.53 285.02 305.12 282.796 303.8C281.406 302.967 278.695 300.605 278.695 300.223C278.695 299.91 280.676 301.126 282.622 302.689ZM420.197 302.758C420.545 303.071 420.823 303.661 420.823 304.043C420.823 305.155 422.421 311.546 423.95 316.512C424.715 318.943 425.722 323.077 426.244 325.681C427.39 331.69 427.321 338.081 426.07 341.762C422.803 351.175 413.039 364.408 401.919 374.376C395.629 380.002 395.281 380.454 394.586 383.684C392.745 391.985 388.887 397.716 382.876 400.876C380.895 401.918 379.818 402.126 379.818 401.397C379.818 401.189 380.964 399.695 382.354 398.167C386.246 393.791 388.609 388.998 386.837 388.998C386.524 388.998 385.239 389.901 383.988 391.012C380.652 393.964 379.296 394.972 375.821 396.951C372.694 398.757 371.13 399.174 371.13 398.202C371.13 397.924 373.007 395.632 375.335 393.131C380.408 387.609 382.354 385.073 382.181 384.24C381.937 382.885 380.86 383.51 376.933 387.226C370.748 393.096 365.57 396.292 365.57 394.277C365.57 393.374 366.925 391.429 372.173 384.865C376.412 379.481 377.524 377.536 376.238 377.536C375.995 377.536 373.458 379.898 370.609 382.781C363.311 390.109 361.435 391.429 361.852 388.824C362.095 387.331 364.25 383.823 368.976 377.224C372.937 371.736 373.076 371.458 372.52 371.111C371.895 370.729 370.539 371.84 369.045 374.063C367.412 376.494 365.918 377.675 363.45 378.613C361.539 379.342 359.663 379.238 359.663 378.405C359.663 377.849 363.068 374.897 366.369 372.535C369.532 370.277 372.555 368.992 376.169 368.298C377.906 367.985 379.783 367.533 380.374 367.29C381.138 366.978 382.771 364.963 386.49 359.788C392.293 351.661 394.1 348.639 397.366 341.519C400.598 334.469 401.745 332.802 404.143 331.69C408.869 329.537 412.309 327.661 412.656 327.071C413.143 326.168 412.066 325.438 410.224 325.438C408.695 325.438 404.872 327.105 402.787 328.703C402.127 329.189 401.467 329.502 401.363 329.363C401.224 329.189 400.529 327.592 399.799 325.786C399.069 323.98 397.401 320.333 396.081 317.693C394.795 315.054 393.718 312.761 393.718 312.553C393.718 312.344 394.76 311.719 396.081 311.164C397.366 310.573 401.432 308.628 405.116 306.822C413.803 302.55 418.564 301.265 420.197 302.758ZM429.858 305.467C432.047 308.003 434.827 313.525 435.835 317.276C436.912 321.305 436.912 329.606 435.835 333.566C434.862 337.108 433.784 339.401 432.012 341.728C430.622 343.568 428.224 345.791 427.946 345.513C427.842 345.444 428.329 343.881 428.954 342.075C430.587 337.56 431.039 334.295 430.796 329.155C430.553 323.632 429.858 320.263 427.564 313.282C426.522 310.122 425.688 307.378 425.688 307.204C425.688 306.509 427.495 303.175 427.807 303.279C427.981 303.349 428.885 304.321 429.858 305.467ZM282.344 305.467C284.707 306.996 287.869 308.385 289.051 308.42C290.197 308.42 290.058 309.323 288.112 314.671C286.479 319.117 285.645 322.486 285.02 326.828C284.776 328.738 284.776 328.738 283.282 326.55C280.919 323.146 277.34 320.68 275.151 320.993C273.066 321.271 274.907 323.632 280.467 327.731C282.9 329.571 283.247 329.988 283.803 331.621C284.22 332.975 284.29 333.635 284.047 334.052C283.386 335.094 281.058 336.171 276.019 337.768C270.112 339.644 265.073 342.11 262.085 344.576C260.034 346.278 256.837 349.855 253.362 354.44C251.833 356.454 251.833 356.454 249.853 356.246C247.455 355.968 246.829 355.759 246.586 355.065C246.308 354.37 246.621 353.919 247.385 353.919C248.324 353.919 251.173 351.73 252.841 349.716C254.648 347.493 256.073 344.888 257.289 341.519C259.409 335.58 262.884 330.37 269.174 323.667C273.865 318.7 275.637 315.54 277.653 308.593C278.938 304.113 279.251 303.453 279.842 303.8C280.085 303.974 281.197 304.703 282.344 305.467ZM259.791 309.809C260.486 313.699 260.868 322.486 260.312 322.799C260.069 322.972 259.93 322.625 259.93 321.722C259.93 320.993 259.548 316.964 259.061 312.796C258.575 308.628 258.193 304.877 258.227 304.46C258.262 303.384 259.166 306.405 259.791 309.809ZM242.034 310.156C245.752 311.094 248.88 312.935 251.764 315.852C254.196 318.318 256.629 321.93 256.386 322.695C256.316 322.903 255.413 322.382 254.37 321.444C249.366 317.172 240.053 313.352 236.37 314.081C235.466 314.255 235.397 314.185 234.945 312.344C234.458 310.226 234.424 310.33 235.605 309.844C236.96 309.288 239.115 309.392 242.034 310.156ZM390.069 310.886C390.208 311.059 390.694 311.372 391.146 311.546C391.598 311.719 391.98 312.101 391.98 312.344C391.98 312.622 393.092 315.088 394.413 317.867C397.227 323.667 397.61 324.987 395.177 320.402C392.814 315.991 390.625 312.622 389.86 312.205C389.478 312.032 388.887 311.928 388.54 312.067C387.984 312.24 387.949 312.136 388.297 311.059C388.575 310.087 388.748 309.913 389.27 310.191C389.582 310.365 389.965 310.677 390.069 310.886ZM391.216 316.755C393.509 320.611 396.637 327.001 397.714 330.023C398.652 332.697 398.652 332.697 397.262 334.364C395.664 336.275 393.648 340.373 391.98 345.236C391.355 347.042 390.59 348.813 390.312 349.16C389.687 349.855 387.532 350.55 382.945 351.487C375.161 353.085 370.018 353.606 352.713 354.613C341.419 355.238 336.484 355.794 333.635 356.732C332.94 356.975 330.612 358.052 328.457 359.163C323.94 361.49 321.785 362.046 317.441 362.011C313.758 362.011 311.951 361.664 304.723 359.615C296.418 357.288 295.757 357.392 288.703 362.011C283.908 365.206 281.788 366.179 279.738 366.214C276.61 366.283 277.514 364.685 283.838 359.094C289.224 354.335 290.302 353.71 293.533 353.467C297.425 353.154 299.962 351.592 298.815 350.202C298.468 349.82 297.842 349.716 296.244 349.82C293.811 349.994 290.858 351.209 288.182 353.224C286.931 354.196 286.027 354.613 285.228 354.613C280.676 354.648 274.629 357.739 268.27 363.296C263.509 367.464 260.938 368.819 260 367.707C259.374 366.978 259.895 365.832 262.258 362.671C264.239 359.962 273.239 350.723 274.907 349.647C275.95 348.952 277.965 348.57 284.22 347.84C286.792 347.528 289.398 347.042 290.058 346.764C291.448 346.069 291.587 345.027 290.302 344.541C288.807 343.95 278.869 345.618 275.707 346.972C273.239 348.049 263.753 357.392 259.548 362.914C257.637 365.415 255.899 366.769 254.579 366.769C253.362 366.769 253.432 366.248 255.065 363.123C257.185 359.128 263.092 351.418 266.394 348.361C268.166 346.729 268.826 346.451 278.07 343.707C281.371 342.7 283.108 341.554 282.761 340.616C282.413 339.713 281.197 339.887 276.193 341.623C270.807 343.464 266.845 345.34 265.212 346.764C263.926 347.875 256.038 357.809 254.613 360.066C252.633 363.192 250.513 362.602 252.146 359.371C252.911 357.878 255.725 354.057 258.644 350.515C263.266 344.923 267.332 342.388 276.263 339.54C279.008 338.636 282.379 337.351 283.769 336.657C286.236 335.406 286.236 335.406 295.236 336.657C314.418 339.366 317.858 339.262 328.874 335.823C331.341 335.059 336.797 333.427 341.037 332.211C357.717 327.453 368.976 323.146 382.598 316.443C388.992 313.247 389.131 313.247 391.216 316.755ZM438.545 318.874C439.622 322.695 439.866 328.807 439.066 333.982C438.441 338.081 438.441 338.081 439.553 339.053C440.144 339.574 440.63 340.13 440.63 340.269C440.595 341.102 431.248 346.937 429.892 346.972C429.649 346.972 430.448 345.895 431.699 344.576C435.765 340.234 438.059 334.33 438.406 327.001C438.615 323.528 438.093 318.284 437.294 315.852C437.12 315.297 437.155 315.297 437.468 315.748C437.642 316.026 438.128 317.45 438.545 318.874ZM378.428 316.234C378.428 317.415 347.674 329.363 346.041 328.842C345.832 328.773 351.045 326.654 357.612 324.119C364.18 321.583 371.512 318.77 373.91 317.797C378.81 315.887 378.428 315.991 378.428 316.234ZM241.374 318.492C250.304 322.625 255.413 329.398 255.413 337.108C255.413 339.47 254.718 341.102 252.32 344.298C250.27 347.007 246.1 351.001 245.717 350.619C245.509 350.411 243.424 343.464 241.026 335.163C238.628 326.862 236.439 319.326 236.161 318.423C235.883 317.554 235.744 316.755 235.814 316.651C236.126 316.339 238.455 317.137 241.374 318.492ZM247.594 318.943C250.687 320.506 252.355 321.722 255.552 324.744C257.081 326.202 258.401 327.175 258.853 327.175C259.235 327.175 259.583 327.314 259.583 327.522C259.583 328.356 257.776 335.511 257.498 335.684C257.359 335.788 256.942 334.677 256.629 333.253C255.343 327.418 251.59 322.486 245.613 318.839C243.91 317.832 242.555 316.964 242.555 316.894C242.555 316.651 245.335 317.797 247.594 318.943ZM401.015 331.725C401.015 331.898 400.772 332.037 400.494 332.037C400.181 332.037 399.973 331.725 399.973 331.308C399.973 330.683 400.042 330.648 400.494 330.995C400.772 331.239 401.015 331.551 401.015 331.725ZM286.757 332.419C287.278 333.566 287.278 333.6 286.618 333.705C285.784 333.843 285.784 333.878 285.506 332.246C285.193 330.579 285.888 330.648 286.757 332.419ZM295.306 334.503C296.696 334.712 297.773 334.955 297.669 335.059C297.425 335.302 291.205 334.399 291.205 334.087C291.205 333.982 291.553 333.913 292.004 333.982C292.421 334.052 293.916 334.26 295.306 334.503ZM447.233 337.317C442.785 354.787 439.727 371.736 437.329 392.471C436.391 400.286 435.522 406.155 434.375 412.199C433.993 414.178 433.68 415.846 433.68 415.95C433.68 416.019 433.124 416.089 432.464 416.089C430.865 416.089 428.294 414.908 424.089 412.268C422.213 411.053 419.085 409.247 417.174 408.239C413.699 406.398 413.699 406.398 413.664 398.306C413.595 386.046 412.274 376.876 409.529 370.173C409.39 369.791 410.085 368.714 412.031 366.526C416.653 361.316 421.205 355.238 423.255 351.557C423.985 350.237 424.193 350.098 425.41 350.098C429.997 350.098 442.924 342.214 446.016 337.525C447.094 335.893 447.615 335.823 447.233 337.317ZM396.359 339.574C395.872 340.477 395.49 341.137 395.455 340.998C395.42 340.512 396.88 337.49 397.054 337.699C397.158 337.803 396.845 338.636 396.359 339.574ZM252.32 347.563C251.903 348.361 248.81 351.383 248.81 351.001C248.81 350.758 252.285 346.972 252.528 346.972C252.598 346.972 252.494 347.25 252.32 347.563ZM426.035 348.049C426.035 348.223 425.792 348.361 425.514 348.361C425.201 348.361 425.097 348.153 425.201 347.84C425.41 347.319 426.035 347.458 426.035 348.049ZM389.791 352.39C389.687 352.495 389.235 352.529 388.783 352.46C387.984 352.286 387.984 352.286 388.853 351.939C389.652 351.592 390.277 351.904 389.791 352.39ZM388.158 354.335C388.123 354.578 386.351 357.218 384.196 360.17C379.887 366.109 380.235 365.832 375.335 366.735C372.138 367.36 369.775 368.298 366.891 370.208C361.504 373.716 357.578 377.363 357.578 378.821C357.578 379.481 358.968 380.593 360.08 380.871C360.67 380.975 361.817 380.871 362.651 380.662C363.52 380.419 364.284 380.315 364.389 380.384C364.493 380.488 363.867 381.669 363.033 382.954C362.199 384.274 361.157 386.011 360.74 386.81C358.898 390.491 360.914 393.027 364.111 391.082C365.396 390.283 365.501 390.491 364.528 391.95C363.103 394.103 363.937 396.639 366.057 396.639C367.169 396.639 367.655 396.43 370.609 394.729C372.416 393.652 372.416 393.86 370.539 395.944C368.593 398.132 369.532 400.737 372.103 400.32C373.736 400.077 376.412 398.757 379.713 396.535C383.432 394.069 383.293 394.138 383.293 394.451C383.293 394.624 382.111 396.048 380.686 397.611C378.532 399.973 378.08 400.668 378.08 401.64C378.08 402.613 378.254 402.891 379.157 403.238C382.111 404.488 389.096 399.661 392.432 394.103C393.857 391.672 396.15 385.629 396.15 384.205C396.15 382.677 397.123 381.148 399.486 378.926C400.807 377.675 403.135 375.452 404.664 373.959C406.228 372.5 407.652 371.285 407.896 371.285C408.591 371.285 410.363 378.127 411.266 384.483C411.857 388.442 412.378 403.933 411.996 405.426C411.683 406.711 410.293 406.676 407.513 405.252C405.88 404.419 404.768 404.141 402.857 404.002C399.486 403.794 397.366 404.766 394.725 407.823C388.679 414.769 381.729 420.743 376.794 423.243C374.153 424.563 372.729 425.015 368.454 425.848C364.806 426.578 362.512 427.238 360.601 428.141C358.273 429.217 357.821 429.322 357.439 428.905C357.056 428.453 354.415 424.39 351.809 420.187C351.253 419.284 349.933 417.235 348.855 415.672C347.778 414.074 346.145 411.608 345.207 410.184C338.674 400.147 329.326 391.881 320.221 388.129C312.194 384.83 304.723 385.177 295.792 389.31C286.201 393.721 282.83 394.902 279.946 394.902C278.938 394.902 277.861 394.694 277.479 394.451C276.784 393.93 277.653 393.582 290.858 389.206C304.236 384.795 325.26 377.536 330.855 375.452C338.222 372.674 339.959 371.354 339.369 369.062C338.952 367.429 338.013 367.151 328.7 366.075C317.789 364.79 317.024 364.685 317.65 364.338C318.275 363.991 322.306 363.366 323.87 363.366C324.53 363.366 326.511 362.984 328.214 362.463C332.071 361.351 336.415 360.691 344.72 359.997C357.786 358.92 359.558 358.746 363.138 358.225C365.153 357.947 370.296 357.01 374.605 356.141C381.347 354.752 384.961 354.162 387.567 353.953C387.88 353.953 388.158 354.127 388.158 354.335ZM368.107 355.655C366.96 356.107 356.848 357.322 349.064 357.913C341.697 358.468 337.145 358.955 333.809 359.51C332.697 359.719 331.689 359.788 331.585 359.684C331.341 359.406 334.156 358.191 336.033 357.774C338.604 357.218 343.99 356.767 354.971 356.176C360.705 355.864 365.57 355.551 365.744 355.481C365.952 355.412 366.717 355.377 367.481 355.343C368.628 355.343 368.732 355.412 368.107 355.655ZM283.525 356.94C283.525 357.114 282.796 357.809 281.962 358.573C280.328 359.997 278 360.587 276.784 359.892C276.193 359.58 276.228 359.51 277.062 358.955C279.286 357.531 283.63 356.176 283.525 356.94ZM250.513 358.295C250.582 358.364 250.478 358.816 250.27 359.302C249.366 361.282 250.096 363.643 251.625 363.643C252.528 363.643 252.633 363.991 252.181 365.623C251.868 366.874 251.903 367.186 252.424 367.777C253.571 369.027 254.822 368.992 257.567 367.533C257.706 367.464 258.019 367.811 258.227 368.298C258.436 368.749 259.096 369.34 259.617 369.583C261.737 370.451 263.892 369.305 269.625 364.373C271.432 362.81 273.066 361.56 273.274 361.525C274.317 361.455 277.826 361.629 278.07 361.768C278.209 361.872 277.861 362.567 277.305 363.366C275.29 366.109 276.367 368.02 279.911 367.95C281.823 367.916 284.359 366.804 288.564 364.095C290.997 362.532 290.997 362.532 292.734 363.088C294.333 363.609 300.066 364.373 326.65 367.464C336.38 368.61 337.075 368.714 337.075 369.166C337.075 369.34 335.859 369.791 334.399 370.138C332.905 370.52 325.295 372.639 317.441 374.862C309.623 377.05 300.761 379.516 297.808 380.315C294.854 381.114 291.101 382.121 289.468 382.572C283.908 384.135 271.571 387.539 264.969 389.345C260.973 390.422 258.088 391.394 257.637 391.811C256.664 392.749 256.455 392.645 256.455 391.255C256.455 389.415 255.308 384.656 253.015 376.981C251.903 373.195 250.235 367.568 249.366 364.512C248.463 361.455 247.663 358.677 247.559 358.295C247.385 357.739 247.49 357.704 248.845 357.913C249.679 358.052 250.443 358.225 250.513 358.295ZM303.368 361.039C305.557 361.664 308.372 362.393 309.623 362.602C311.777 363.018 312.715 363.435 312.368 363.782C312.125 364.06 294.923 362.115 293.672 361.698C292.908 361.455 293.881 360.587 295.584 359.997C297.182 359.406 298.12 359.545 303.368 361.039ZM333.253 372.639C331.585 373.542 322.584 376.703 297.808 385.073C269.278 394.729 257.949 398.236 257.324 397.611C257.046 397.333 258.262 393.687 258.853 393.131C259.166 392.818 262.154 391.811 265.49 390.908C268.826 390.04 276.575 387.921 282.691 386.219C288.807 384.517 297.564 382.121 302.151 380.871C306.738 379.655 315.669 377.154 321.959 375.313C328.283 373.507 333.67 372.014 333.948 372.014C334.226 372.014 333.913 372.292 333.253 372.639ZM129.444 378.057C145.846 380.523 146.993 380.732 146.749 381.079C146.645 381.287 145.95 381.322 145.116 381.183C144.352 381.079 139.104 380.28 133.51 379.412C122.772 377.814 118.637 376.981 118.324 376.46C118.185 376.286 118.324 376.216 118.567 376.321C118.81 376.39 123.71 377.189 129.444 378.057ZM163.673 383.232C177.642 385.316 199.5 388.65 202.419 389.171C203.948 389.449 208.5 390.144 212.496 390.734C216.527 391.29 226.049 392.714 233.694 393.86C250.026 396.361 253.571 396.674 254.891 395.805C255.413 395.458 255.864 395.25 255.934 395.319C256.003 395.388 255.795 396.014 255.482 396.778C254.961 398.098 254.961 398.098 252.146 397.889C247.663 397.507 237.899 395.944 213.539 391.742C209.265 391.012 206.485 390.734 203.496 390.734C200.23 390.734 199.222 390.63 198.735 390.179C198.318 389.797 191.855 388.616 177.329 386.219C158.252 383.059 153.56 382.19 154.985 382.086C155.263 382.051 159.19 382.607 163.673 383.232ZM317.789 389.067C327.171 392.124 336.936 400.494 344.338 411.851C345.38 413.414 346.145 414.804 346.041 414.908C345.693 415.22 342.322 413.727 340.932 412.65C340.098 411.99 338.361 409.663 336.519 406.781C332.731 400.841 331.133 398.757 328.353 396.083C324.565 392.506 321.438 390.7 316.573 389.241C314.939 388.755 313.063 388.199 312.403 387.991C311.291 387.678 311.325 387.643 312.924 387.852C313.897 387.956 316.086 388.477 317.789 389.067ZM165.202 402.682C167.738 405.287 169.302 407.927 171.179 412.72C172.082 415.047 172.986 417.165 173.159 417.374C173.646 418.034 174.341 417.929 175.175 417.026C175.905 416.262 175.905 416.262 175.696 417.652C175.592 418.416 175.418 421.229 175.279 423.903C175.14 426.578 174.932 428.974 174.827 429.217C174.688 429.461 173.889 427.203 173.09 424.181C171.248 417.443 170.31 415.359 165.862 408.274C162.178 402.404 161.24 400.737 161.24 400.112C161.24 399.452 163.395 400.841 165.202 402.682ZM404.664 405.843C406.228 406.19 405.567 406.607 402.857 406.989C401.363 407.232 399.556 407.51 398.861 407.614C396.22 408.066 398.096 406.225 400.772 405.704C402.162 405.426 402.753 405.461 404.664 405.843ZM159.12 408.239C162.422 410.671 165.306 414.213 168.677 419.979C170.553 423.209 171.422 425.466 170.727 425.466C169.615 425.466 163.881 419.11 160.615 414.248C157.974 410.358 156.445 407.058 157.279 407.058C157.418 407.058 158.217 407.579 159.12 408.239ZM411.44 408.621C411.44 408.899 411.301 409.142 411.093 409.142C410.919 409.142 410.745 408.899 410.745 408.621C410.745 408.343 410.919 408.1 411.093 408.1C411.301 408.1 411.44 408.343 411.44 408.621ZM422.664 413.31C425.653 415.116 428.016 416.644 427.946 416.749C427.703 416.992 421.969 414.109 419.884 412.685C418.008 411.4 416.027 409.559 416.861 409.872C417.07 409.941 419.676 411.504 422.664 413.31ZM285.402 418.867C285.541 420.118 285.506 420.465 285.298 419.909C285.02 419.041 284.846 416.54 285.089 416.818C285.159 416.888 285.298 417.825 285.402 418.867ZM430.205 417.304C430.865 417.547 431.178 417.791 430.9 417.791C430.622 417.791 429.927 417.582 429.336 417.304C427.981 416.714 428.607 416.679 430.205 417.304ZM354.728 427.898C356.292 430.329 356.431 430.711 355.979 431.197C355.527 431.649 355.249 431.579 353.477 430.815C352.4 430.294 350.28 429.495 348.786 428.974C346.214 428.106 345.658 427.55 347.326 427.55C348.508 427.55 351.184 426.543 351.879 425.814C352.261 425.466 352.643 425.154 352.747 425.154C352.886 425.119 353.755 426.369 354.728 427.898ZM332.002 427.932C332.175 428.071 331.897 428.384 331.376 428.627C330.368 429.113 330.299 429.078 329.951 427.967C329.743 427.238 329.812 427.203 330.716 427.411C331.237 427.55 331.828 427.759 332.002 427.932Z" fill="#373737"/>
</svg>
