<svg width="28" height="28" viewBox="0 0 28 28" fill="none" xmlns="http://www.w3.org/2000/svg">
<path d="M13.9997 25.6668C20.443 25.6668 25.6663 20.4435 25.6663 14.0002C25.6663 7.55684 20.443 2.3335 13.9997 2.3335C7.55635 2.3335 2.33301 7.55684 2.33301 14.0002C2.33301 20.4435 7.55635 25.6668 13.9997 25.6668Z" stroke="white" stroke-width="1.75" stroke-linecap="round" stroke-linejoin="round"/>
<path d="M14 21C17.866 21 21 17.866 21 14C21 10.134 17.866 7 14 7C10.134 7 7 10.134 7 14C7 17.866 10.134 21 14 21Z" stroke="white" stroke-width="1.75" stroke-linecap="round" stroke-linejoin="round"/>
<path d="M14.0003 16.3332C15.289 16.3332 16.3337 15.2885 16.3337 13.9998C16.3337 12.7112 15.289 11.6665 14.0003 11.6665C12.7117 11.6665 11.667 12.7112 11.667 13.9998C11.667 15.2885 12.7117 16.3332 14.0003 16.3332Z" stroke="white" stroke-width="1.75" stroke-linecap="round" stroke-linejoin="round"/>
</svg>
