<svg width="99" height="68" viewBox="0 0 99 68" fill="none" xmlns="http://www.w3.org/2000/svg">
<path d="M8.78756 26.4386C7.29051 28.922 5.58028 31.6334 4 33.8068L4.0342 33.8541H4.8564C5.29414 33.1553 5.7584 32.3913 6.25826 31.5722C8.08705 31.5354 10.4508 31.55 12.0421 31.5722C12.5768 32.4403 13.03 33.2228 13.3976 33.8541H14.5845L14.6319 33.8068C12.7418 31.0731 11.3668 28.8762 9.9395 26.4386H8.78756ZM6.57774 31.062C7.32555 29.8394 8.17084 28.4954 9.1552 26.9881C10.0962 28.4108 10.9734 29.8152 11.7344 31.062C10.0335 31.0731 7.96878 31.0846 6.57774 31.062Z" fill="white"/>
<path d="M25.3085 26.4401H24.715L24.6667 26.4758C24.6899 28.0095 24.6899 31.0846 24.6667 32.7589C22.494 30.8469 19.8319 28.4727 17.6697 26.4401H16.7417L16.6953 26.4758C16.7303 28.1991 16.7303 31.9872 16.6953 33.8168L16.7303 33.8539H17.3368L17.3841 33.8168C17.3496 31.9644 17.3613 28.9457 17.3841 27.4624C19.4882 29.3029 22.5524 32.0485 24.4177 33.8539H25.2977L25.3544 33.8065C25.3085 31.5719 25.3085 28.6143 25.3544 26.4877L25.3085 26.4401Z" fill="white"/>
<path d="M32.0673 26.3431C29.9775 26.3431 29.1912 26.4637 28.2772 26.4999L28.2305 26.5481C28.2772 28.2708 28.2772 31.55 28.2305 33.8299L28.2772 33.8644C29.1211 33.8541 30.2135 33.9601 32.0673 33.9601C35.1803 33.9601 37.7683 32.581 37.7683 30.2302C37.7683 27.5928 35.0942 26.3431 32.0673 26.3431ZM31.9 33.413C30.2613 33.413 29.8814 33.3064 29.2402 33.2457C29.216 31.2393 29.206 28.3281 29.2402 27.1175C29.9775 27.0109 30.5811 26.9043 31.8416 26.9043C35.0489 26.9043 36.6412 28.0913 36.6412 30.2538C36.6412 32.2274 35.1315 33.413 31.9 33.413Z" fill="white"/>
<path d="M46.091 30.0176V29.9802C47.3393 29.8155 48.3131 29.2683 48.3131 28.3424C48.3131 26.7615 46.673 26.3446 44.0708 26.3446C42.1454 26.3446 41.0661 26.4637 40.1507 26.4999L40.1025 26.5352C40.139 28.3774 40.139 31.9404 40.1025 33.8184L40.139 33.8541C40.8409 33.8886 42.8712 33.9584 43.9651 33.9584C46.9716 33.9584 48.7773 33.4252 48.7773 31.7629C48.7773 30.6101 47.5174 30.1358 46.091 30.0176ZM41.1248 27.105C41.8623 26.9984 42.5401 26.9037 43.8467 26.9037C46.4704 26.9037 47.2917 27.2845 47.2917 28.3182C47.2917 29.3863 46.4002 29.7802 43.456 29.8155C42.3264 29.8269 41.9462 29.8269 41.1015 29.8269C41.1015 28.6992 41.1123 27.6396 41.1248 27.105ZM43.798 33.4129C42.8712 33.4129 41.8145 33.3551 41.1123 33.247C41.1123 32.4382 41.1015 31.4057 41.1015 30.4305C41.7777 30.3975 42.5737 30.374 43.655 30.374C46.4467 30.374 47.7187 30.5502 47.7187 31.8566C47.7187 32.9498 46.8987 33.4129 43.798 33.4129Z" fill="white"/>
<path d="M55.4372 26.4386C53.9401 28.922 52.2296 31.6334 50.6484 33.8068L50.6864 33.8541H51.5057C51.9452 33.1553 52.4083 32.3913 52.9093 31.5722C54.7375 31.5354 57.0992 31.55 58.6932 31.5722C59.2275 32.4403 59.6778 33.2228 60.0454 33.8541H61.2339L61.2823 33.8068C59.3934 31.0731 58.0149 28.8762 56.5891 26.4386H55.4372ZM53.2271 31.062C53.9771 29.8394 54.8202 28.4954 55.8082 26.9881C56.7453 28.4108 57.623 29.8152 58.3846 31.062C56.684 31.0731 54.6164 31.0846 53.2271 31.062Z" fill="white"/>
<path d="M71.6933 26.4401H71.0991L71.0512 26.4758C71.0735 28.0095 71.0735 31.0846 71.0512 32.7589C68.8753 30.8469 66.2149 28.4727 64.0547 26.4401H63.1285L63.0801 26.4758C63.1157 28.1991 63.1157 31.9872 63.0801 33.8168L63.1157 33.8539H63.7207L63.7683 33.8168C63.7349 31.9644 63.7463 28.9457 63.7683 27.4624C65.8724 29.3029 68.9375 32.0485 70.8027 33.8539H71.6797L71.7404 33.8065C71.6933 31.5719 71.6933 28.6143 71.7404 26.4877L71.6933 26.4401Z" fill="white"/>
<path d="M78.8297 29.4582C80.4705 28.3185 82.0493 27.26 83.3436 26.488L83.3195 26.4399H81.9895C80.2341 27.7582 78.4605 29.1124 76.0259 30.7058C76.0259 29.1604 76.0396 27.6399 76.0744 26.488L76.0259 26.4399H75.0983L75.0527 26.4757C75.0983 28.188 75.0983 31.5497 75.0527 33.8297L75.0869 33.8539H76.0259L76.0744 33.8177C76.0502 33.0818 76.0396 32.259 76.0259 31.4186L78.0352 30.0165C79.5417 31.2391 80.766 32.3092 82.3827 33.8539H83.7966L83.8302 33.8065C82.0719 32.3927 80.1976 30.7184 78.8297 29.4582Z" fill="white"/>
<path d="M93.9998 26.4401L89.2656 41.9288H90.314L94.9994 26.4401H93.9998Z" fill="white"/>
<path d="M42.753 38.298C42.6088 38.2358 42.368 38.2039 42.0337 38.2039H41.0194L40.5146 41.9293H40.894L41.1317 40.1689H41.696C42.0824 40.1689 42.3526 40.1453 42.5056 40.0948C42.7151 40.0293 42.8909 39.9053 43.0285 39.7258C43.1651 39.5434 43.236 39.3302 43.236 39.086C43.236 38.8993 43.1907 38.736 43.1046 38.5972C43.0163 38.461 42.9003 38.3607 42.753 38.298ZM42.7413 39.4813C42.6581 39.5995 42.5518 39.6822 42.4172 39.73C42.283 39.7791 42.0422 39.8019 41.6942 39.8019H41.1775L41.3528 38.5644H42.0152C42.2745 38.5644 42.4532 38.5807 42.5518 38.6149C42.6478 38.6471 42.7245 38.7075 42.7792 38.7901C42.8359 38.8728 42.8615 38.9734 42.8615 39.0908C42.8615 39.2347 42.8225 39.3653 42.7413 39.4813Z" fill="white"/>
<path d="M44.5859 39.2133C44.4516 39.2868 44.3393 39.39 44.2436 39.522L44.2926 39.1734H43.9372L43.5645 41.9279H43.9113L44.0749 40.7622C44.1256 40.3846 44.1874 40.1162 44.2621 39.9509C44.3393 39.7861 44.4356 39.6608 44.5568 39.5738C44.6771 39.4883 44.7974 39.4436 44.9216 39.4436C44.9806 39.4436 45.0535 39.4621 45.1402 39.4977L45.3081 39.1734C45.2 39.1287 45.0949 39.1045 44.996 39.1045C44.8566 39.1045 44.7195 39.1392 44.5859 39.2133Z" fill="white"/>
<path d="M45.7506 39.1735L45.3789 41.9293H45.7263L46.084 39.1735H45.7506Z" fill="white"/>
<path d="M46.0289 38.04C45.9489 38.04 45.8816 38.0677 45.8277 38.1232C45.7722 38.1788 45.7451 38.2452 45.7451 38.3242C45.7451 38.4025 45.7722 38.4704 45.8277 38.5251C45.8816 38.5807 45.9489 38.6086 46.0289 38.6086C46.1076 38.6086 46.1717 38.5807 46.2288 38.5251C46.2837 38.4704 46.3128 38.4025 46.3128 38.3242C46.3128 38.2452 46.2837 38.1788 46.2288 38.1232C46.1717 38.0677 46.1076 38.04 46.0289 38.04Z" fill="white"/>
<path d="M47.7641 41.1849L47.0679 39.1734H46.7031L47.6542 41.9279H47.7188L49.3054 39.1734H48.9198L47.7641 41.1849Z" fill="white"/>
<path d="M52.385 39.6987C52.2674 39.4935 52.1228 39.3439 51.9476 39.2484C51.7743 39.1507 51.5743 39.1031 51.3448 39.1031C50.9202 39.1031 50.5512 39.2618 50.2368 39.5767C49.9259 39.8896 49.7686 40.2687 49.7686 40.7061C49.7686 41.0838 49.8888 41.3964 50.1296 41.6381C50.3688 41.8794 50.6751 42 51.0485 42C51.458 42 51.8228 41.8367 52.1428 41.5147L52.0863 41.9279H52.4454L52.8168 39.1749H52.4497L52.385 39.6987ZM52.1533 41.051C52.0437 41.2533 51.8954 41.4086 51.7073 41.5147C51.5215 41.621 51.3141 41.6757 51.0884 41.6757C50.8011 41.6757 50.5668 41.5845 50.3872 41.4086C50.2077 41.2291 50.1185 40.9931 50.1185 40.701C50.1185 40.3448 50.2368 40.0435 50.4799 39.8019C50.7193 39.5534 51.0077 39.4322 51.3454 39.4322C51.6333 39.4322 51.8678 39.522 52.0473 39.7001C52.2269 39.8797 52.3152 40.1091 52.3152 40.3961C52.3152 40.6335 52.263 40.8506 52.1533 41.051Z" fill="white"/>
<path d="M54.5972 38.1432H54.2508L54.1121 39.1735H53.6396L53.5977 39.4841H54.0699L53.7388 41.9288H54.0935L54.4184 39.4841H54.9742L55.0161 39.1735H54.4604L54.5972 38.1432Z" fill="white"/>
<path d="M57.0242 39.1045C56.7401 39.1045 56.4742 39.1735 56.23 39.314C55.984 39.4556 55.7896 39.6522 55.6434 39.9053C55.4989 40.159 55.4248 40.4226 55.4248 40.6967C55.4248 41.0302 55.5337 41.3294 55.7483 41.5982C55.9669 41.8661 56.2912 42 56.7235 42C56.9723 42 57.2066 41.9493 57.4226 41.8461C57.6355 41.7441 57.8116 41.6087 57.9447 41.4386L57.6791 41.2225C57.5722 41.365 57.434 41.4785 57.2701 41.5546C57.1063 41.6358 56.9259 41.6751 56.7315 41.6751C56.4408 41.6751 56.2043 41.5816 56.0296 41.395C55.8529 41.2077 55.7703 40.949 55.7745 40.6226H58.2305C58.2405 40.5237 58.2462 40.4431 58.2462 40.3747C58.2462 40.0028 58.1308 39.7007 57.9014 39.4607C57.6691 39.2228 57.3776 39.1045 57.0242 39.1045ZM55.8352 40.312C55.9227 40.0435 56.0709 39.8304 56.2798 39.6745C56.4936 39.5206 56.7344 39.4428 57.0108 39.4428C57.2622 39.4428 57.4725 39.5234 57.6398 39.683C57.8065 39.844 57.8962 40.0541 57.9062 40.312H55.8352Z" fill="white"/>
<path d="M62.4546 39.9538C62.637 39.8854 62.7818 39.7728 62.8906 39.6146C63.0012 39.4579 63.054 39.2803 63.054 39.0794C63.054 38.8893 63.0018 38.7246 62.9001 38.5835C62.7981 38.4447 62.6664 38.3456 62.4997 38.2894C62.3364 38.233 62.0214 38.2039 61.5521 38.2039H61.0761L60.5723 41.9293H61.6339C62.075 41.9293 62.3862 41.8931 62.5686 41.8205C62.7482 41.7469 62.893 41.6287 63.0012 41.4656C63.1059 41.3003 63.16 41.1043 63.16 40.8777C63.16 40.6563 63.0973 40.463 62.9727 40.3C62.8474 40.1382 62.6755 40.0222 62.4546 39.9538ZM61.3987 38.5565C61.505 38.5522 61.5948 38.5493 61.6689 38.5493C62.0856 38.5493 62.3563 38.5929 62.4854 38.6799C62.6128 38.7668 62.6755 38.9036 62.6755 39.0845C62.6755 39.2242 62.6365 39.353 62.5524 39.4693C62.4703 39.5847 62.3563 39.6693 62.2075 39.7243C62.0594 39.7776 61.8185 39.8047 61.4823 39.8047C61.3868 39.8047 61.3061 39.8019 61.232 39.7942L61.3987 38.5565ZM62.6399 41.3052C62.5453 41.4143 62.4028 41.4899 62.2189 41.5346C62.0856 41.5617 61.8456 41.5774 61.4942 41.5774H60.9912L61.1836 40.159H61.4928C61.8428 40.159 62.1092 40.1875 62.2851 40.2473C62.4618 40.3034 62.5895 40.3855 62.6678 40.4915C62.7447 40.5936 62.7818 40.7232 62.7818 40.8777C62.7818 41.0524 62.7339 41.194 62.6399 41.3052Z" fill="white"/>
<path d="M66.3745 39.6987C66.2562 39.4935 66.1103 39.3439 65.937 39.2484C65.7632 39.1507 65.5623 39.1031 65.3323 39.1031C64.9077 39.1031 64.5386 39.2618 64.2257 39.5767C63.9122 39.8896 63.7549 40.2687 63.7549 40.7061C63.7549 41.0838 63.8766 41.3964 64.1174 41.6381C64.3577 41.8794 64.6655 42 65.0373 42C65.4463 42 65.8111 41.8367 66.1289 41.5147L66.0753 41.9279H66.4324L66.8034 39.1749H66.438L66.3745 39.6987ZM66.1408 41.051C66.0311 41.2533 65.8852 41.4086 65.6962 41.5147C65.5096 41.621 65.3044 41.6757 65.0759 41.6757C64.7894 41.6757 64.5543 41.5845 64.3762 41.4086C64.1952 41.2291 64.1046 40.9931 64.1046 40.701C64.1046 40.3448 64.2257 40.0435 64.4659 39.8019C64.7073 39.5534 64.996 39.4322 65.3343 39.4322C65.623 39.4322 65.8539 39.522 66.0339 39.7001C66.2135 39.8797 66.3047 40.1091 66.3047 40.3961C66.3047 40.6335 66.2492 40.8506 66.1408 41.051Z" fill="white"/>
<path d="M69.066 39.1045C68.6933 39.1045 68.3655 39.2689 68.0862 39.6038L68.1441 39.1734H67.8041L67.4316 41.9279H67.7764L67.9375 40.738C67.9817 40.3841 68.05 40.1219 68.1384 39.9571C68.2282 39.7941 68.3513 39.6636 68.5123 39.5681C68.6719 39.4707 68.8466 39.4228 69.0296 39.4228C69.2205 39.4228 69.3758 39.4812 69.4906 39.6009C69.6081 39.7192 69.6666 39.8745 69.6666 40.0691C69.6666 40.1965 69.648 40.396 69.6132 40.6662L69.4414 41.9279H69.789L69.9595 40.6648C69.9971 40.3869 70.0157 40.1866 70.0157 40.0706C70.0157 39.7742 69.9296 39.5396 69.7529 39.3644C69.579 39.1905 69.3502 39.1045 69.066 39.1045Z" fill="white"/>
<path d="M72.6871 39.1734L71.3525 40.2031L71.6318 38.1113H71.287L70.7705 41.9279H71.1239L71.3026 40.5542L72.5751 41.9279H73.0496L71.6412 40.404L73.2391 39.1734H72.6871Z" fill="white"/>
<path d="M75.2003 39.1045C74.9159 39.1045 74.6502 39.1735 74.4057 39.314C74.1606 39.4556 73.9662 39.6522 73.8195 39.9053C73.6733 40.159 73.6006 40.4226 73.6006 40.6967C73.6006 41.0302 73.7097 41.3294 73.9263 41.5982C74.1435 41.8661 74.467 42 74.9002 42C75.1496 42 75.3827 41.9493 75.5964 41.8461C75.813 41.7441 75.9868 41.6087 76.12 41.4386L75.8557 41.2225C75.7489 41.365 75.6126 41.4785 75.4459 41.5546C75.2807 41.6358 75.1025 41.6751 74.9067 41.6751C74.616 41.6751 74.3815 41.5816 74.2077 41.395C74.0318 41.2077 73.9463 40.949 73.9506 40.6226H76.4063C76.4186 40.5237 76.4248 40.4431 76.4248 40.3747C76.4248 40.0028 76.308 39.7007 76.0772 39.4607C75.8478 39.2228 75.555 39.1045 75.2003 39.1045ZM74.011 40.312C74.0993 40.0435 74.2484 39.8304 74.4578 39.6745C74.6679 39.5206 74.9116 39.4428 75.1874 39.4428C75.4396 39.4428 75.6491 39.5234 75.8164 39.683C75.9832 39.844 76.0723 40.0541 76.0823 40.312H74.011Z" fill="white"/>
<path d="M78.3997 39.1045C78.2581 39.1045 78.1224 39.1401 77.9904 39.2128C77.8554 39.2868 77.7409 39.39 77.6468 39.522L77.6949 39.1734H77.3396L76.9668 41.9279H77.3155L77.4753 40.7617C77.5286 40.3855 77.592 40.1162 77.6672 39.9509C77.7409 39.7861 77.8379 39.6608 77.959 39.5738C78.0801 39.4878 78.2005 39.4442 78.3253 39.4442C78.3844 39.4442 78.4573 39.4621 78.5441 39.4977L78.7112 39.1734C78.6047 39.1287 78.4982 39.1045 78.3997 39.1045Z" fill="white"/>
<path d="M79.7426 40.3077C79.5609 40.1923 79.4464 40.0997 79.396 40.0321C79.3428 39.9657 79.3172 39.8931 79.3172 39.8198C79.3172 39.7243 79.361 39.636 79.4464 39.5568C79.5332 39.4784 79.6368 39.4385 79.7586 39.4385C79.9709 39.4385 80.1541 39.5491 80.3102 39.7699L80.5028 39.4841C80.389 39.341 80.2744 39.2419 80.1628 39.1891C80.0505 39.1301 79.9257 39.1031 79.7871 39.1031C79.5529 39.1031 79.3581 39.1749 79.2056 39.3182C79.0502 39.4622 78.9736 39.636 78.9736 39.8403C78.9736 39.9709 79.0108 40.0863 79.0838 40.1895C79.1546 40.2935 79.3063 40.4269 79.5376 40.5842C79.7535 40.7289 79.8841 40.8321 79.9345 40.8928C80.0089 40.9869 80.0476 41.0852 80.0476 41.1898C80.0476 41.3174 79.9965 41.4277 79.8951 41.5241C79.7944 41.6195 79.6747 41.67 79.5376 41.67C79.299 41.67 79.0779 41.5446 78.8715 41.2952L78.6562 41.546C78.8912 41.849 79.1757 41.9991 79.5171 41.9991C79.7776 41.9991 79.9855 41.9236 80.149 41.772C80.308 41.6195 80.389 41.4277 80.389 41.1969C80.389 41.0302 80.3481 40.882 80.2664 40.7546C80.1789 40.6263 80.0074 40.4787 79.7426 40.3077Z" fill="white"/>
</svg>
