<svg width="68" height="68" viewBox="0 0 68 68" fill="none" xmlns="http://www.w3.org/2000/svg">
<g clip-path="url(#clip0_37_4354)">
<path d="M28.0389 24.5664C23.1665 24.5664 19.4922 28.1809 19.4922 32.974C19.4922 37.8462 23.0731 41.3823 28.0062 41.3823C32.8787 41.3823 36.553 37.7679 36.553 32.974C36.553 28.1025 32.9721 24.5664 28.0389 24.5664ZM33.5113 32.974C33.5113 36.2736 31.1949 38.6678 28.0078 38.6678C24.8367 38.6678 22.5355 36.2736 22.5355 32.974C22.5355 29.6744 24.8367 27.281 28.0078 27.281C31.1972 27.281 33.5113 29.6752 33.5113 32.974Z" fill="white"/>
<path d="M16.5093 24.9526H13.5283V40.9955H16.5093V24.9526Z" fill="white"/>
<path d="M40.807 44.5979H39.541V51.1454H40.807V44.5979Z" fill="white"/>
<path d="M43.8708 51.2427C43.3165 51.2427 42.8977 51.0988 42.6144 50.8112C42.3311 50.5235 42.1892 50.0951 42.1886 49.526V47.0424H41.3779V46.1112H42.1886V44.6067H43.4155V46.1112H44.5634V47.0424H43.4155V49.4186C43.4155 49.71 43.4749 49.9251 43.5937 50.064C43.7124 50.2029 43.8975 50.2736 44.1488 50.2762C44.3399 50.2764 44.5288 50.237 44.7032 50.1603V51.1002C44.4372 51.1965 44.156 51.2458 43.8724 51.2458" fill="white"/>
<path d="M46.8692 51.2716C46.3676 51.2716 45.9653 51.139 45.6623 50.8738C45.3593 50.6085 45.2076 50.2527 45.207 49.8063C45.207 49.2372 45.4379 48.7957 45.8995 48.4819C46.3612 48.1681 47.0176 48.0115 47.8685 48.012H48.0857C48.1584 48.012 48.2271 48.012 48.2934 48.0214C48.2737 47.6596 48.1672 47.3912 47.9739 47.2163C47.7806 47.0414 47.4936 46.9542 47.1128 46.9547C46.5968 46.9622 46.0919 47.1026 45.6487 47.3619V46.3923C46.1576 46.1274 46.7245 45.9876 47.3006 45.9851C47.9928 45.9851 48.5272 46.171 48.9037 46.5427C49.2802 46.9145 49.4681 47.4465 49.4676 48.1389V51.1455H48.4516L48.3821 50.5636C48.2184 50.7878 47.9983 50.9664 47.7431 51.0821C47.4687 51.21 47.1682 51.2748 46.8644 51.2716H46.8692ZM47.2007 50.418C47.3457 50.4201 47.4895 50.3926 47.6231 50.3374C47.7567 50.2823 47.8772 50.2007 47.9771 50.0976C48.081 49.9962 48.163 49.8753 48.2179 49.742C48.2727 49.6087 48.2996 49.466 48.2966 49.3222V48.8273C48.2311 48.8273 48.1632 48.8273 48.0945 48.8225C48.0258 48.8178 47.9539 48.817 47.8813 48.817C47.3935 48.817 47.0191 48.8899 46.7582 49.0356C46.6552 49.0917 46.567 49.1706 46.5007 49.2661C46.4344 49.3617 46.3918 49.471 46.3762 49.5856C46.3607 49.7001 46.3725 49.8166 46.4113 49.9258C46.4499 50.0349 46.514 50.1337 46.5985 50.2143C46.7658 50.3554 46.9819 50.4283 47.2023 50.4179" fill="white"/>
<path d="M52.1057 51.2715C51.5775 51.2715 51.1571 51.0922 50.8445 50.7335C50.532 50.3748 50.3751 49.8945 50.374 49.2924V46.1111H51.6009V49.1013C51.6009 49.483 51.6808 49.7754 51.8406 49.9785C51.9218 50.0798 52.0267 50.1605 52.1463 50.2139C52.2661 50.2671 52.3971 50.2914 52.5283 50.2847C52.6652 50.2895 52.8013 50.2628 52.9261 50.2072C53.0508 50.1516 53.1607 50.0685 53.2472 49.9644C53.4282 49.7503 53.519 49.4658 53.5195 49.1107V46.1111H54.7456V51.1454H53.6785L53.609 50.5534C53.4478 50.7835 53.2273 50.9679 52.97 51.0875C52.6996 51.2121 52.4038 51.2751 52.105 51.2715H52.1057ZM52.9948 45.4321H51.9165L52.9748 43.9189H54.3101L52.9948 45.4321Z" fill="white"/>
<path d="M47.8993 24.5664C46.3017 24.5664 43.8631 25.2917 42.5076 27.2168V24.9526H39.541V40.9954H42.522V31.8321C42.5139 31.232 42.6276 30.6362 42.8562 30.0794C43.0849 29.5227 43.4241 29.016 43.8541 28.5888C44.284 28.1616 44.7963 27.8224 45.3611 27.5909C45.9259 27.3594 46.5319 27.2402 47.1441 27.2402C47.7562 27.2402 48.3622 27.3594 48.927 27.5909C49.4918 27.8224 50.004 28.1616 50.434 28.5888C50.864 29.016 51.2032 29.5227 51.4318 30.0794C51.6605 30.6362 51.7741 31.232 51.7661 31.8321V40.9954H54.7471V30.9816C54.7471 27.324 51.8036 24.5664 47.8993 24.5664Z" fill="white"/>
<path d="M27.9879 17L13 21.2139L13.5236 23.0042L28.5114 18.7903L27.9879 17Z" fill="white"/>
</g>
<defs>
<clipPath id="clip0_37_4354">
<rect width="68" height="68" fill="white"/>
</clipPath>
</defs>
</svg>
