<svg width="73" height="68" viewBox="0 0 73 68" fill="none" xmlns="http://www.w3.org/2000/svg">
<path d="M33.667 15.9175C32.5563 15.9439 31.7416 15.983 30.248 16.0751C29.5571 16.1163 28.803 16.177 28.272 16.2301C28.1387 16.2446 27.8598 16.2713 27.6538 16.2908C26.7882 16.3757 25.503 16.5379 24.9625 16.6301C24.8483 16.6496 24.6811 16.6763 24.5867 16.6908C24.4945 16.703 24.3295 16.7319 24.2229 16.7515C24.1163 16.771 23.9368 16.8049 23.823 16.8241C23.4226 16.892 22.7415 17.0303 22.356 17.1225C22.2491 17.1492 22.0576 17.1951 21.9316 17.2244C21.8054 17.2533 21.6917 17.28 21.6772 17.2825C20.9665 17.452 20.2609 17.7942 19.7179 18.2378C19.1893 18.667 18.7167 19.3604 18.4789 20.049C18.4403 20.1556 18.4013 20.2647 18.3893 20.2914C18.3481 20.3836 18.1686 21.1593 18.04 21.7948C18.0208 21.9014 17.9869 22.0589 17.9674 22.1464C17.9478 22.2335 17.9215 22.3862 17.9044 22.4857C17.8897 22.585 17.8705 22.7064 17.8582 22.7523C17.8218 22.8907 17.674 23.8362 17.5793 24.5223C17.4872 25.1868 17.4265 25.6694 17.3734 26.159C17.3467 26.3989 17.3199 26.6341 17.3152 26.6803C17.3079 26.7262 17.286 26.9615 17.2642 27.2017C17.2447 27.4416 17.2159 27.735 17.201 27.8564C17.1501 28.3023 17.0239 30.2446 16.9612 31.6146C16.9127 32.6302 16.8812 34.8053 16.8982 35.991C16.9152 37.4699 16.9513 38.7916 16.9853 39.2522C16.9976 39.4387 17.0218 39.8317 17.0363 40.1251C17.0507 40.4184 17.0702 40.7942 17.0825 40.9615C17.1382 41.8004 17.1819 42.3507 17.2035 42.5252C17.2159 42.6321 17.2447 42.9158 17.2642 43.1532C17.2837 43.3909 17.3127 43.6746 17.3249 43.7836C17.3394 43.8928 17.3661 44.1279 17.3853 44.3075C17.446 44.882 17.4922 45.2578 17.5309 45.5077C17.5504 45.641 17.5844 45.869 17.6035 46.0168C17.674 46.5501 17.7563 47.0689 17.846 47.5444C17.8655 47.651 17.8969 47.8306 17.9189 47.9444C17.9601 48.1868 18.0547 48.6694 18.1227 48.9748C18.3553 50.0443 18.4572 50.364 18.7311 50.8904C18.8062 51.0357 18.9032 51.2054 18.9469 51.2661C18.988 51.3268 19.0487 51.4139 19.0802 51.4601C19.2185 51.6661 19.6138 52.0686 19.832 52.224C19.8682 52.2504 19.9386 52.3013 19.9845 52.3378C20.0333 52.3765 20.0792 52.4057 20.0914 52.4057C20.1011 52.4057 20.1254 52.4227 20.1445 52.4422C20.2392 52.5343 20.9061 52.852 21.192 52.9368C21.2454 52.9538 21.3109 52.9754 21.3376 52.9878C21.4008 53.0167 21.757 53.1063 22.1863 53.2035C22.373 53.2472 22.5645 53.2931 22.6105 53.3053C22.7221 53.3343 23.4251 53.4748 23.9563 53.572C24.2616 53.6276 24.8559 53.7223 25.2291 53.7758C25.3697 53.7949 25.5492 53.8216 25.6292 53.8361C25.9225 53.8871 27.135 54.0279 27.8962 54.1006C28.1702 54.1273 28.5072 54.1588 28.6478 54.1732C28.8757 54.1974 29.1084 54.2169 30.2237 54.2968C30.391 54.309 30.7719 54.3308 31.0724 54.3455C31.3731 54.36 31.7926 54.3817 32.006 54.394C33.7323 54.4933 38.6689 54.4933 40.3709 54.394C40.5844 54.3795 41.0039 54.36 41.3045 54.3455C41.8208 54.3214 42.0101 54.309 42.8198 54.2484C43.8574 54.1685 45.3829 54.0204 45.8992 53.9478C46.047 53.926 46.3017 53.8921 46.4689 53.8701C47.0872 53.7902 47.9359 53.6616 48.4207 53.572C48.9518 53.4748 49.6549 53.3343 49.7665 53.3053C49.8124 53.2931 50.0039 53.2472 50.1908 53.2035C50.6102 53.1088 50.974 53.0167 51.0394 52.9878C51.1199 52.9587 51.2008 52.9304 51.2818 52.9028C51.4806 52.8375 52.1403 52.5246 52.1959 52.4711C52.2129 52.4541 52.2613 52.418 52.3025 52.3934C52.4918 52.2749 52.5789 52.207 52.7512 52.0516C52.9452 51.8746 53.2144 51.5838 53.2798 51.4844C53.3015 51.4504 53.3597 51.3681 53.4081 51.3026C53.4591 51.2348 53.5003 51.1741 53.5003 51.1643C53.5003 51.1545 53.5392 51.0866 53.5851 51.0139C53.6314 50.9413 53.687 50.8344 53.7091 50.7762C53.7332 50.7206 53.7574 50.6599 53.7672 50.648C53.8131 50.5873 53.9829 50.1046 54.0555 49.8307C54.1697 49.4065 54.3828 48.4051 54.4605 47.9321C54.48 47.811 54.5017 47.6972 54.509 47.6777C54.531 47.6243 54.6644 46.7926 54.7853 45.9442C54.8121 45.7574 54.8388 45.5707 54.846 45.532C54.8656 45.4203 54.9527 44.676 54.9917 44.2833C55.0108 44.0893 55.0375 43.8661 55.052 43.7861C55.0668 43.7059 55.0932 43.4443 55.1127 43.2041C55.1322 42.9642 55.1589 42.6683 55.1709 42.5494C55.1854 42.4284 55.2074 42.152 55.2218 41.9312C55.2363 41.7105 55.2583 41.4391 55.2703 41.3251C55.285 41.2112 55.3115 40.7917 55.331 40.3917C55.3529 39.9915 55.3772 39.4993 55.3916 39.3006C55.5007 37.5378 55.5007 32.9117 55.3916 31.0933C55.3793 30.887 55.3577 30.4823 55.3432 30.1961C55.3285 29.91 55.3067 29.5317 55.2945 29.3595C55.28 29.1849 55.2486 28.7557 55.2218 28.4019C55.1951 28.0479 55.1683 27.7155 55.1611 27.6624C55.1539 27.6089 55.1322 27.3737 55.1127 27.141C55.0932 26.9084 55.0715 26.6901 55.0643 26.6562C55.057 26.6222 55.0303 26.3989 55.0036 26.159C54.9408 25.5794 54.863 24.9396 54.846 24.8645C54.8388 24.8305 54.8121 24.6365 54.7853 24.4374C54.6665 23.5308 54.4461 22.2674 54.2568 21.4068C54.2301 21.2854 54.1867 21.0892 54.1599 20.9704C54.092 20.66 54.0118 20.3472 53.9854 20.2914C53.9732 20.2647 53.9515 20.1994 53.9345 20.1459C53.881 19.9666 53.6118 19.3677 53.544 19.273C53.5342 19.2585 53.4569 19.1447 53.3741 19.0186C53.2021 18.7592 52.761 18.2985 52.4965 18.1045C51.973 17.719 51.3909 17.457 50.6395 17.2728C50.5099 17.2411 50.3806 17.2087 50.2515 17.1756C50.1618 17.1492 49.9822 17.1103 49.5967 17.0303C49.4875 17.0074 49.3784 16.9839 49.2694 16.9599C48.8014 16.8461 47.2787 16.5986 46.2872 16.4725C46.0881 16.4483 45.8919 16.4216 45.8507 16.4122C45.7778 16.3974 45.4263 16.3612 44.7112 16.2908C44.5121 16.2713 44.2383 16.2423 44.105 16.2301C43.9717 16.2156 43.7314 16.1939 43.5717 16.1791C43.4116 16.1672 43.1497 16.1452 42.9897 16.1333C42.4465 16.087 40.9385 15.9999 40.1043 15.9634C38.4918 15.893 35.5144 15.8713 33.667 15.9175ZM22.984 32.3008C22.9985 32.3127 23.0689 32.3347 23.139 32.3516C23.2702 32.3831 23.4544 32.468 23.5924 32.5601C23.7016 32.6328 23.9588 32.9092 24.0094 33.0063C24.0339 33.0548 24.0603 33.0985 24.0676 33.1057C24.0752 33.113 24.0968 33.1614 24.1163 33.2148C24.1333 33.2679 24.1549 33.324 24.1672 33.3359C24.1986 33.3821 24.2352 33.6704 24.2352 33.884C24.2352 34.0925 24.2034 34.3374 24.1623 34.427C24.0314 34.7276 23.9683 34.8269 23.8035 35.0018C23.6506 35.1593 23.5877 35.2078 23.3793 35.3097C23.2094 35.3945 23.0881 35.4383 22.9913 35.4477C22.9136 35.4574 22.8456 35.4744 22.8384 35.4842C22.8215 35.5134 22.2953 35.5134 22.2953 35.4842C22.2953 35.4744 22.2347 35.4574 22.157 35.4477C22.0819 35.4383 21.9875 35.4163 21.9463 35.3993C21.8937 35.3756 21.8404 35.3538 21.7863 35.3338C21.7401 35.3169 21.6964 35.2974 21.6891 35.2901C21.6819 35.2805 21.6454 35.2587 21.6042 35.2393C21.4636 35.1691 21.1727 34.8464 21.0879 34.6694C21.0417 34.5748 20.9983 34.4827 20.986 34.4635C20.9036 34.2985 20.8891 33.5469 20.9665 33.3724C20.9885 33.3261 21.0199 33.2488 21.0369 33.2025C21.0539 33.1566 21.0734 33.1129 21.0806 33.1057C21.0879 33.0985 21.1169 33.0497 21.1436 32.9966C21.1898 32.9067 21.4781 32.5964 21.5193 32.5964C21.529 32.5964 21.5511 32.5794 21.568 32.5577C21.6139 32.5067 21.8491 32.3929 21.9923 32.3565C22.0601 32.3394 22.1353 32.3152 22.162 32.3029C22.1888 32.291 22.2541 32.2788 22.3073 32.2715C22.4504 32.2571 22.9525 32.2788 22.984 32.3008ZM49.4027 33.9906V35.2149H44.699V33.5761L44.9609 33.5346C45.5404 33.445 45.9017 33.3843 45.9234 33.3699C45.9379 33.3601 46.0567 33.3409 46.19 33.324C46.3233 33.307 46.4447 33.2849 46.4567 33.2752C46.4714 33.2658 46.5853 33.2438 46.7114 33.2268C46.8375 33.2123 47.0022 33.1831 47.0753 33.1639C47.1479 33.147 47.3006 33.1202 47.4145 33.1057C47.5286 33.0909 47.6424 33.0693 47.6692 33.0595C47.6959 33.0475 47.817 33.0256 47.9359 33.0086C48.0572 32.9941 48.1927 32.9724 48.2389 32.9576C48.2848 32.9456 48.4597 32.9117 48.6269 32.8849C48.7943 32.8582 49.0125 32.8222 49.1118 32.8051C49.2112 32.7856 49.3178 32.7711 49.3493 32.7686L49.4027 32.7661V33.9906ZM29.3267 35.0719V36.5243H31.7513V38.6824H29.3244L29.3339 40.9301C29.3414 43.3522 29.3363 43.2333 29.4675 43.5314C29.5669 43.762 29.848 43.9971 30.0904 44.0553C30.1317 44.065 30.1779 44.0843 30.1973 44.099C30.2432 44.1352 31.2253 44.1352 31.269 44.0965C31.2882 44.082 31.3756 44.0626 31.4677 44.0528L31.6303 44.0358V46.1624L31.5646 46.1914C31.5042 46.218 31.2253 46.2618 30.8423 46.3077C30.2968 46.3709 29.3024 46.3782 29.2442 46.3174C29.2298 46.3055 29.1911 46.2957 29.1547 46.2957C29.06 46.2957 28.6672 46.2228 28.638 46.2011C28.6235 46.1914 28.5582 46.1671 28.4902 46.1527C28.4249 46.1357 28.3594 46.1136 28.3447 46.1042C28.3327 46.092 28.2771 46.0703 28.2236 46.0533C28.1702 46.0364 28.1217 46.0143 28.1145 46.0071C28.1072 45.9998 28.0635 45.9731 28.0173 45.9464C27.8161 45.8398 27.7557 45.8011 27.6488 45.7111C27.5859 45.6603 27.5277 45.6169 27.5155 45.6169C27.4912 45.6143 27.307 45.4131 27.1617 45.2289C27.0501 45.0858 26.885 44.8119 26.8293 44.671C26.8098 44.6252 26.7882 44.5814 26.7809 44.5741C26.7712 44.5669 26.747 44.4918 26.7227 44.4043C26.7008 44.3172 26.6718 44.2251 26.6595 44.1984C26.6476 44.1716 26.6183 44.0626 26.5992 43.956C26.5786 43.8546 26.5567 43.7536 26.5335 43.6528C26.5165 43.5802 26.5045 42.7264 26.4973 41.1118L26.4876 38.6824H25.0836V36.5243H26.4901V34.0802L26.6548 34.0633C26.7445 34.0538 26.8293 34.0368 26.8415 34.027C26.856 34.0173 26.9749 33.9956 27.1082 33.9786C27.2415 33.9617 27.3629 33.9371 27.3749 33.9277C27.3894 33.918 27.5422 33.8912 27.7145 33.8695C27.889 33.845 28.0418 33.8186 28.0538 33.8088C28.0683 33.7991 28.1484 33.7821 28.2355 33.7748C28.3495 33.7612 28.4628 33.7426 28.5751 33.7192C28.8346 33.6658 29.288 33.5953 29.3097 33.6076C29.3194 33.6123 29.3267 34.272 29.3267 35.0719ZM37.3645 36.2939C37.7038 36.3133 38.0871 36.3571 38.116 36.3788C38.1305 36.3884 38.1887 36.4055 38.2494 36.4128C38.3877 36.4347 38.7248 36.5341 38.9282 36.6164C39.0981 36.6844 39.4763 36.8734 39.5345 36.9221C39.554 36.9366 39.5974 36.9655 39.6314 36.9803C39.6653 36.9973 39.7722 37.0819 39.8665 37.1646C39.9612 37.2495 40.0486 37.3221 40.0605 37.3268C40.0971 37.3438 40.5284 37.8677 40.5284 37.8966C40.5284 37.9038 40.5505 37.9429 40.5772 37.979C40.6281 38.0519 40.8438 38.4714 40.8438 38.4981C40.8438 38.5076 40.8633 38.561 40.8897 38.6167C40.9139 38.6727 40.9432 38.7576 40.953 38.8035C40.9626 38.8497 40.9797 38.8981 40.9891 38.9125C40.9988 38.9249 41.0208 39.0022 41.0378 39.0824C41.0523 39.1622 41.0718 39.245 41.079 39.2642C41.0888 39.2836 41.1104 39.3877 41.13 39.4946C41.159 39.6546 41.1661 40.2584 41.1759 42.9303L41.1856 46.1743H38.5405L38.538 45.8882C38.5355 45.7332 38.5282 45.5077 38.5185 45.3888L38.504 45.1707L38.4336 45.2675C38.3223 45.4156 37.956 45.7646 37.8107 45.8615C37.4928 46.0702 37.4082 46.1209 37.3208 46.1502C37.2673 46.1647 37.1972 46.1939 37.1632 46.213C37.1268 46.23 37.0372 46.2593 36.9642 46.2737C36.8915 46.2907 36.8189 46.3127 36.8067 46.3221C36.6831 46.4143 35.1555 46.412 35.0366 46.32C35.0247 46.3102 34.9373 46.2886 34.8426 46.2715C34.7505 46.2546 34.6414 46.2278 34.6003 46.2083C34.5616 46.1914 34.4571 46.1476 34.3725 46.1136C34.275 46.0713 34.1796 46.0244 34.0864 45.9731C34.022 45.9333 33.9564 45.8953 33.8899 45.8593C33.788 45.8033 33.7541 45.7718 33.4777 45.4954C33.194 45.2118 33.1576 45.1732 33.1576 45.1465C33.1576 45.1367 33.1261 45.0833 33.0899 45.0276C33.0509 44.9719 32.9953 44.87 32.966 44.8043C32.9371 44.7367 32.8981 44.6565 32.8811 44.6226C32.862 44.5886 32.8353 44.5015 32.8183 44.4286C32.8013 44.3559 32.7796 44.2833 32.7698 44.271C32.7431 44.2371 32.6969 43.8927 32.6969 43.7424C32.6969 43.6724 32.685 43.6019 32.6705 43.5875C32.6413 43.5581 32.6484 43.4613 32.7236 42.8767C32.7381 42.7629 32.7601 42.6586 32.7698 42.6466C32.7796 42.6321 32.8012 42.5689 32.8157 42.5035C32.8472 42.3774 32.9129 42.2126 32.9808 42.0887C33.0025 42.0476 33.0315 41.9919 33.0462 41.9627C33.0607 41.9313 33.0802 41.9071 33.0921 41.9071C33.1019 41.9071 33.1091 41.8926 33.1091 41.8756C33.1091 41.8489 33.3758 41.5021 33.422 41.4706C33.4317 41.4634 33.4487 41.4392 33.456 41.4149C33.4656 41.3882 33.4946 41.364 33.5213 41.3568C33.5481 41.3495 33.5698 41.3347 33.5698 41.325C33.5698 41.3008 33.9773 40.9807 34.1153 40.9008C34.2147 40.8401 34.438 40.7263 34.7628 40.571C34.809 40.5468 35.2621 40.4014 35.4612 40.3456C35.5338 40.3238 35.6769 40.2945 35.7762 40.2801C35.8756 40.2631 35.9702 40.2437 35.9825 40.2342C35.997 40.2244 36.1423 40.2024 36.3099 40.1879C36.4771 40.1735 36.6831 40.1493 36.7705 40.137C37.1148 40.0861 38.3245 40.0959 38.4531 40.1493C38.4968 40.1685 38.499 40.159 38.4821 39.9527C38.4726 39.8339 38.4556 39.732 38.4459 39.7248C38.4336 39.7175 38.4191 39.6716 38.4094 39.6229C38.3924 39.5333 38.3003 39.3371 38.2132 39.2035C38.1572 39.1189 37.922 38.8761 37.8953 38.8761C37.8859 38.8761 37.8446 38.8519 37.8032 38.8204C37.6965 38.7428 37.5246 38.6654 37.4202 38.6459C37.3692 38.6362 37.328 38.6192 37.328 38.6095C37.328 38.5029 35.7618 38.4859 35.2914 38.5902C35.2307 38.6022 35.0902 38.6289 34.9763 38.6484C34.8621 38.6676 34.7483 38.6943 34.7216 38.7066C34.6948 38.7185 34.6077 38.7406 34.5276 38.755C34.4477 38.7695 34.3603 38.7915 34.3336 38.8035C34.3068 38.8157 34.21 38.8424 34.1178 38.8642C34.0257 38.8859 33.9383 38.91 33.9238 38.9223C33.9093 38.9321 33.844 38.9562 33.776 38.9732C33.7107 38.9902 33.6427 39.0144 33.6305 39.0242C33.616 39.0339 33.5506 39.0556 33.4849 39.0726C33.4173 39.0871 33.3226 39.121 33.2742 39.1453C33.2233 39.172 33.177 39.1915 33.1698 39.1915C33.1626 39.1915 33.1576 38.6846 33.1576 38.0664C33.1576 37.191 33.1651 36.9366 33.1893 36.9171C33.2063 36.9026 33.2742 36.8784 33.3396 36.8615C33.4075 36.847 33.473 36.825 33.4849 36.8152C33.4997 36.8055 33.5795 36.7766 33.667 36.7546C33.7541 36.7303 33.8364 36.7038 33.8487 36.6942C33.8632 36.6819 33.9383 36.6624 34.016 36.6457C34.0962 36.6288 34.1786 36.6068 34.1978 36.5948C34.2197 36.5851 34.3191 36.5583 34.4185 36.5366C34.4957 36.5216 34.5726 36.5046 34.649 36.4857C34.6754 36.4781 34.8112 36.4565 34.9518 36.4369C35.0927 36.4177 35.2404 36.391 35.2791 36.3788C35.42 36.3353 36.6903 36.2552 36.9765 36.2722C37.0563 36.2769 37.2312 36.2866 37.3645 36.2939ZM23.9924 41.3495V46.1743H21.1558V36.5243H23.9924V41.3495ZM45.4263 39.5308C45.4263 42.4016 45.4385 42.957 45.4967 43.0346C45.5086 43.0466 45.5234 43.095 45.5332 43.1413C45.5671 43.3229 45.7247 43.5875 45.9038 43.7667C45.9985 43.8638 46.1051 43.9486 46.1391 43.9581C46.1755 43.9657 46.2023 43.9802 46.2023 43.9899C46.2023 43.9994 46.2872 44.0333 46.3913 44.0672C46.5466 44.116 46.629 44.1254 46.8714 44.1254C47.0413 44.1254 47.189 44.1135 47.223 44.099C47.2544 44.0821 47.3295 44.0578 47.3902 44.0408C47.4509 44.0239 47.5601 43.973 47.6327 43.9242C47.7685 43.8371 48.0207 43.6044 48.0207 43.5654C48.0207 43.5535 48.0547 43.5 48.0934 43.4491C48.1345 43.3956 48.1663 43.3425 48.1663 43.328C48.1663 43.3132 48.1881 43.2623 48.2122 43.2139C48.2389 43.1654 48.2679 43.0831 48.2776 43.0321C48.2849 42.9786 48.3018 42.9255 48.3141 42.9133C48.3748 42.8356 48.3846 42.346 48.3846 39.5018V36.5243H51.2211V46.1744H49.8779C48.8283 46.1744 48.5274 46.1672 48.5129 46.1429C48.5031 46.1284 48.4912 45.898 48.4862 45.6338C48.4814 45.3719 48.4692 45.1562 48.4597 45.1562C48.4501 45.1562 48.4208 45.1852 48.3919 45.2216C48.256 45.4059 48.0425 45.6144 47.708 45.8907C47.6595 45.9294 47.5602 45.9828 47.3419 46.0895C47.2425 46.1379 47.1335 46.1938 47.0995 46.2108C47.0655 46.2278 46.9734 46.2545 46.8932 46.2715C46.8133 46.2885 46.7429 46.3101 46.7356 46.32C46.7115 46.3562 46.2823 46.3926 45.858 46.3926C45.4411 46.3926 45.1015 46.3636 45.0021 46.3221C44.9754 46.3102 44.8833 46.281 44.7959 46.2593C44.7088 46.2375 44.6286 46.2083 44.6141 46.1986C44.6022 46.1888 44.544 46.1646 44.488 46.1476C44.4298 46.1331 44.384 46.1115 44.384 46.1017C44.384 46.092 44.3403 46.0703 44.2868 46.0533C44.2337 46.0364 44.1899 46.0143 44.1899 46.0046C44.1899 45.9951 44.1632 45.9756 44.1318 45.9611C43.9233 45.8665 43.4504 45.4228 43.2516 45.1367C43.1302 44.9622 42.9435 44.6128 42.9048 44.4845C42.8903 44.4336 42.8611 44.3585 42.8441 44.3195C42.8271 44.2783 42.7982 44.1912 42.7834 44.1255C42.7689 44.0579 42.7472 43.9874 42.735 43.9632C42.7231 43.9412 42.701 43.8273 42.6866 43.7085C42.6721 43.5921 42.6454 43.4733 42.6309 43.4466C42.6089 43.4104 42.5992 42.5447 42.5944 39.96L42.5872 36.5243H45.4263L45.4263 39.5308Z" fill="white"/>
<path d="M37.0487 41.8853C36.9303 41.8973 36.8089 41.9167 36.7821 41.9288C36.7554 41.9435 36.6683 41.9652 36.5881 41.9822C36.5108 41.9967 36.4064 42.0259 36.3579 42.0476C35.9941 42.2052 35.8171 42.3096 35.6961 42.4356C35.5797 42.557 35.463 42.7825 35.4439 42.923C35.4388 42.9714 35.4218 43.0346 35.4074 43.0611C35.3807 43.117 35.3904 43.2891 35.4341 43.5145C35.4825 43.7594 35.6766 44.0578 35.8485 44.1475C36.1542 44.305 36.2124 44.3292 36.3822 44.356C36.6875 44.4019 37.2695 44.3755 37.3956 44.3075C37.4173 44.2953 37.5073 44.2541 37.5944 44.2153C37.6818 44.1742 37.7956 44.1084 37.8491 44.0672C37.9025 44.0261 37.9629 43.9776 37.9849 43.9607C38.1229 43.8566 38.3777 43.4346 38.4116 43.2601C38.4188 43.2164 38.4383 43.1654 38.4528 43.1459C38.4697 43.1242 38.4818 42.901 38.4868 42.501L38.4964 41.89L38.3654 41.8756C38.1883 41.8536 37.3157 41.8611 37.0487 41.8853Z" fill="white"/>
</svg>
