<svg width="128" height="68" viewBox="0 0 128 68" fill="none" xmlns="http://www.w3.org/2000/svg">
<path d="M78.1589 48.9324H79.1731V42.4604H78.1589V48.9324ZM95.8243 42.4604V48.9324H101.013V47.987H96.8346V45.9638H100.472V45.09H96.8346V43.3356H100.88V42.4604H95.8243ZM53.0153 48.9324H54.0268V42.4604H53.0153V48.9324ZM69.7313 48.9324H74.4515V48.0559H70.7456V42.4604H69.7313V48.9324ZM61.9803 46.1016C61.2376 46.1016 60.4961 45.8991 60.0261 45.6276V43.2019H62.6569C63.9372 43.2019 64.41 43.8759 64.41 44.4836C64.41 45.3588 63.7321 46.1016 61.9803 46.1016ZM46.3394 46.3692H43.3721L44.8551 43.3356L46.3394 46.3692ZM85.1048 48.9324V43.6059L89.5523 48.661C89.6887 48.8662 89.8873 48.9324 90.16 48.9324H90.7639V42.4604H89.8224V47.5833L85.4397 42.7293C85.3047 42.5268 85.171 42.4604 84.8361 42.4604H84.1595V48.9324H85.1048ZM60.0261 48.9324V46.573C60.4961 46.8417 61.1728 46.9768 61.9141 46.9768C62.318 46.9768 62.5867 46.9768 62.9257 46.9106L64.271 48.9324H65.3514L63.8711 46.6406C64.8138 46.2353 65.4175 45.4263 65.4175 44.4836C65.4175 43.2695 64.41 42.3916 62.5867 42.3916H59.0157V48.9324H60.0261ZM47.5535 48.9324H48.5651L45.5291 42.7293C45.398 42.5268 45.263 42.4604 45.0604 42.4604H44.3175L41.1504 48.9324H42.1607L42.9697 47.2456H46.7432L47.5535 48.9324ZM108.429 42.3241C106.678 42.3241 105.531 43.0669 105.531 44.2121C105.531 45.2912 106.407 45.6965 107.823 45.9638L108.499 46.1016C109.507 46.3029 110.046 46.6406 110.046 47.1794C110.046 47.7183 109.507 48.1222 108.16 48.1222C106.946 48.1222 106.001 47.7183 105.731 47.5157L105.462 48.4584C105.731 48.5935 106.678 49 108.092 49C109.98 49 111.056 48.2572 111.056 47.1118C111.056 46.0314 110.115 45.4927 108.629 45.2238L107.958 45.09C106.876 44.8889 106.538 44.6849 106.538 44.146C106.538 43.6059 107.149 43.2019 108.36 43.2019C109.372 43.2019 110.115 43.4046 110.451 43.537L110.652 42.7293C110.248 42.5956 109.507 42.3241 108.429 42.3241Z" fill="white"/>
<path d="M70.7323 35.2288H73.5855V27.2753L78.5772 26.9455V24.8933H65.7445V26.9455L70.7323 27.2753V35.2288ZM50.1301 35.2288L51.2993 32.8469H44.3705V24.8933H41.4033V35.2288H50.1301ZM61.1594 31.2341H57.3117L59.2542 27.0925L61.1594 31.2341ZM86.973 31.2341H83.1201L85.0638 27.0925L86.973 31.2341ZM100.02 32.7012C100.134 33.0666 100.572 33.3248 101.046 33.3248H104.017L106.219 27.2394L108.306 35.2288H111.091L108.783 26.069C108.564 25.1501 108.052 24.8933 107.21 24.8933H104.31L102.222 30.9428L100.572 25.8068C100.351 25.1501 99.9473 24.8933 99.288 24.8933H96.0255L93.3497 35.2288H96.1725L98.2234 27.2394L100.02 32.7012ZM88.9114 35.2288H92.0322L87.1134 25.55C86.8592 25.076 86.6036 24.8933 86.0198 24.8933H83.3042L78.135 35.2288H81.2888L82.2065 33.3248H87.9979L88.9114 35.2288ZM63.0674 35.2288H66.2226L61.3077 25.55C61.0522 25.076 60.7966 24.8933 60.2074 24.8933H57.4985L52.3294 35.2288H55.4779L56.3968 33.3248H62.1882L63.0674 35.2288Z" fill="white"/>
<path d="M31.0349 26.5528L22.6126 23.5591C21.756 23.2375 21.2767 22.7568 21.2767 21.8564V20.261C21.2767 19.8518 21.5799 20.0121 21.9625 20.1511C24.7656 21.1838 33.6923 24.3456 34.4377 24.6184C34.5357 24.6528 34.6178 24.6912 34.68 24.7337C34.9316 24.9242 34.6549 25.2434 33.7518 25.573C33.5823 25.63 32.5337 26.0126 31.0349 26.5528ZM31.0454 31.7471C32.4886 31.2241 33.5572 30.8348 33.7518 30.7659C34.8005 30.3833 34.9792 30.0113 34.5171 29.8417C34.541 29.851 34.5622 29.859 34.5833 29.8656C34.541 29.8431 34.4933 29.8272 34.4377 29.806C34.2894 29.7504 33.6088 29.5055 32.6078 29.1467C31.4599 29.5611 29.8684 30.1384 28.2372 30.7302L31.0454 31.7471ZM17.0066 31.1076C17.0278 31.4928 17.1906 31.5431 17.6011 31.4187C17.7971 31.3473 18.087 31.2386 18.4604 31.1076C18.5491 31.0731 18.6471 31.0374 18.7464 31.0003H18.7504C19.37 30.7766 20.1685 30.488 21.0661 30.1648C19.6017 29.6327 18.2499 29.1467 17.5071 28.8699C17.1801 28.7495 17.0066 28.8368 17.0066 29.2181V30.7263V31.1076ZM18.3359 27.1447L23.8678 29.1519C25.3176 28.6236 26.835 28.0742 28.2372 27.5671C24.1432 26.0867 19.2641 24.3192 17.6872 23.7367C17.3045 23.5975 17 23.44 17 23.8465V25.442C17 26.3423 17.4767 26.8216 18.3359 27.1447Z" fill="white"/>
<path d="M34.325 33.7193L21.2222 38.4701V35.3056C21.2222 35.3056 33.0724 31.0131 33.7517 30.764C34.8003 30.3814 34.9804 30.008 34.5183 29.8412C34.991 30.012 34.9804 30.0676 34.9804 31.4684C34.9804 32.9713 34.946 33.4942 34.325 33.7193ZM24.2715 45.7776C24.2715 45.1155 24.3417 44.5514 23.7552 44.7607L21.2249 45.6835V48.8228L23.6095 47.9687C24.2305 47.741 24.2715 47.304 24.2715 46.642V45.7776ZM28.2172 39.1704C28.2172 38.5098 28.2847 37.943 27.6994 38.1577L21.2249 40.5011V43.639L27.5539 41.3617C28.1749 41.1367 28.2172 40.6985 28.2172 40.0364V39.1704ZM34.5183 24.6496C35.0056 24.8205 34.8003 25.1871 33.7517 25.5725C33.1996 25.7697 22.6509 29.5896 18.7503 31.0011V30.9998C18.647 31.0382 18.5503 31.0726 18.4616 31.1083C18.0869 31.2381 17.7983 31.3466 17.601 31.4195C17.1919 31.5426 17.029 31.4923 17.0078 31.1083C17.0078 31.3466 17.0012 31.8325 17.4209 31.9822L20.8595 33.2321C20.8595 33.2321 21.1044 33.3089 21.3348 33.2321C21.6499 33.1209 34.325 28.5224 34.325 28.5224C34.946 28.2961 34.9804 27.7743 34.9804 26.273C34.9804 24.8721 34.9804 24.8112 34.5183 24.6496Z" fill="white"/>
</svg>
