<svg width="91" height="68" viewBox="0 0 91 68" fill="none" xmlns="http://www.w3.org/2000/svg">
<g clip-path="url(#clip0_20_753)">
<path d="M49.4781 38.4292C49.4781 39.5996 48.313 40.77 47.4115 40.77C46.5099 40.77 44.3627 40.77 43.57 40.77C42.7772 40.77 41.1639 39.995 41.1639 38.1445V37.7807C41.1639 36.0883 42.3027 35.2026 43.4415 35.2026H49.4781C49.4781 36.8743 49.4781 38.1218 49.4781 38.4292ZM61.8995 30.5683C62.3265 29.7617 63.1648 29.2552 64.272 29.2552C65.3791 29.2552 66.1541 29.2552 66.9843 29.2552C67.8146 29.2552 68.1787 29.7775 68.1787 30.3943C68.1787 31.0112 67.7042 31.6174 66.9924 31.6174C66.6967 31.6174 64.271 31.6174 61.5367 31.6174C61.6063 31.2588 61.7179 30.9111 61.8995 30.5683ZM28.5898 29.2552H30.9306C33.05 29.2552 32.449 31.6174 30.9939 31.6174C30.3041 31.6174 28.1427 31.6174 25.7232 31.6174C26.061 30.2357 27.1725 29.2552 28.5898 29.2552ZM64.525 37.185C63.5919 37.185 63.0084 36.9597 62.3423 36.4046C61.9848 36.1067 61.767 35.6749 61.6333 35.2026H66.7868C67.9098 35.2026 69.5389 34.8704 70.6619 33.8601C71.7848 32.8497 71.943 31.7388 71.943 31.0586V30.078C71.943 29.3346 71.3894 27.7846 70.6619 27.057C69.9343 26.3295 68.3052 25.7123 67.0715 25.7123H64.873C63.75 25.7123 61.9153 26.0448 59.9382 27.5632C58.6023 28.5891 57.9747 30.1924 57.7077 31.6174C55.2316 31.6174 53.232 31.6174 53.232 31.6174C53.232 27.2147 53.232 22.4649 53.232 22.4649H49.4781C49.4781 22.4649 49.4781 27.2682 49.4781 31.6174C46.7816 31.6174 44.3919 31.6174 43.7895 31.6174C42.2395 31.6174 40.4364 32.2133 39.4716 33.1148C38.5067 34.0163 37.5419 35.4557 37.4154 37.185L37.4149 37.1932C35.3484 37.1902 31.4935 37.185 29.001 37.185C27.0243 37.185 26.2003 36.3018 25.8575 35.2026C28.4093 35.2026 30.7465 35.2026 31.4367 35.2026C33.0184 35.2026 34.3786 34.5067 35.0745 33.874C35.7705 33.2413 36.2766 32.4189 36.2766 30.5841C36.2766 28.7494 35.8337 28.0535 35.2643 27.2943C34.695 26.5351 32.9235 25.7123 31.3735 25.7123H28.9377C26.8183 25.7123 24.6989 26.9147 23.4019 28.3066C22.5315 29.2406 22.0613 30.4123 21.8453 31.6174C20.4795 31.6174 19.2425 31.6174 18.3723 31.6174C14.7239 31.6174 13.7116 33.6209 13.7116 33.6209V31.6174H10C10 31.6174 10 43.5221 10 44.5344C10 45.5466 10.2742 46 11.065 46C11.8558 46 11.9824 46 12.615 46C13.2477 46 13.7116 45.515 13.7116 45.0405C13.7116 44.566 13.7116 41.8457 13.7116 39.663C13.7116 37.4803 15.1246 35.2026 17.9821 35.2026C18.5315 35.2026 20.0385 35.2026 21.8609 35.2026C22.0909 36.3469 22.595 37.4651 23.5917 38.5241C25.1101 40.1374 26.755 40.77 29.0642 40.77C30.8718 40.77 35.8382 40.77 37.9109 40.77C38.1036 41.2894 38.3669 41.7938 38.7282 42.2252C40.0402 43.7916 42.4767 44.3129 43.3941 44.3129C44.3114 44.3129 46.1936 44.3129 47.2217 44.3129C48.8192 44.3129 50.6776 43.3085 51.7373 42.2488C52.7971 41.1891 53.232 39.995 53.232 38.9037C53.232 38.5938 53.232 37.1337 53.232 35.2026H57.6642C57.8468 36.1776 58.2748 37.1799 59.2581 38.3817C60.824 40.2955 63.1174 40.77 64.8572 40.77C66.597 40.77 80.9426 40.77 80.9426 40.77V37.185H64.525Z" fill="white"/>
</g>
<defs>
<clipPath id="clip0_20_753">
<rect width="90.6288" height="68" fill="white"/>
</clipPath>
</defs>
</svg>
