<svg width="92" height="68" viewBox="0 0 92 68" fill="none" xmlns="http://www.w3.org/2000/svg">
<path fill-rule="evenodd" clip-rule="evenodd" d="M23.7884 31.5907C24.7921 31.6199 25.7282 31.8734 26.5386 32.479C26.7494 32.6375 26.9334 32.8526 27.0716 33.0764C27.2443 33.3558 27.2443 33.6707 27.0375 33.9488C26.8257 34.2322 26.5257 34.389 26.1839 34.3174C25.8571 34.2484 25.529 34.1261 25.2386 33.9614C24.6575 33.6319 24.0509 33.4556 23.3867 33.5451C23.1639 33.5752 22.9296 33.6402 22.7347 33.7486C22.0946 34.1066 22.0041 34.92 22.5527 35.4745C22.7837 35.7089 23.0655 35.9061 23.3548 36.0672C24.0688 36.4656 24.807 36.826 25.5253 37.2181C26.1697 37.5721 26.7362 38.0196 27.0822 38.6875C27.9354 40.3276 27.3577 42.0894 25.7013 42.9144C24.1613 43.6804 21.8364 43.405 20.5549 42.3029C20.3096 42.0924 20.1018 41.8497 20.0388 41.5229C19.8989 40.7867 20.5841 40.2494 21.3229 40.5278C21.5805 40.6246 21.8218 40.7744 22.0584 40.9196C22.7406 41.3373 23.4682 41.5388 24.2697 41.4102C24.6761 41.3442 25.0384 41.1921 25.277 40.8384C25.5959 40.3667 25.4941 39.7916 25.0099 39.2888C24.6184 38.8801 24.1315 38.6083 23.6329 38.3567C23.036 38.056 22.4294 37.7743 21.847 37.4485C21.186 37.0802 20.6504 36.5724 20.3567 35.8597C19.7551 34.3946 20.3017 32.8901 21.7008 32.1141C22.3505 31.7541 23.0519 31.6036 23.7884 31.5907ZM64.1277 31.5907C65.1314 31.6199 66.0671 31.8734 66.8779 32.479C67.0884 32.6375 67.2723 32.8526 67.4106 33.0764C67.5836 33.3558 67.5836 33.6707 67.3768 33.9488C67.1649 34.2322 66.865 34.389 66.5232 34.3174C66.1961 34.2484 65.8682 34.1261 65.5775 33.9614C64.9968 33.6319 64.3902 33.4556 63.7259 33.5451C63.5032 33.5752 63.2688 33.6402 63.0736 33.7486C62.4339 34.1066 62.3434 34.92 62.8916 35.4745C63.123 35.7089 63.4044 35.9061 63.6941 36.0672C64.4078 36.4656 65.1463 36.826 65.8646 37.2181C66.509 37.5721 67.0754 38.0196 67.4215 38.6875C68.2744 40.3276 67.6966 42.0894 66.0403 42.9144C64.5006 43.6804 62.1756 43.405 60.8942 42.3029C60.6489 42.0924 60.4411 41.8497 60.3781 41.5229C60.2382 40.7867 60.9233 40.2494 61.6619 40.5278C61.9197 40.6246 62.1611 40.7744 62.3974 40.9196C63.0799 41.3373 63.8075 41.5388 64.609 41.4102C65.015 41.3442 65.3777 41.1921 65.6163 40.8384C65.9352 40.3667 65.8331 39.7916 65.3488 39.2888C64.9577 38.8801 64.4708 38.6083 63.9719 38.3567C63.3749 38.056 62.7683 37.7743 62.1862 37.4485C61.5253 37.0802 60.9896 36.5724 60.6956 35.8597C60.0943 34.3946 60.6406 32.8901 62.0401 32.1141C62.6898 31.7541 63.3911 31.6036 64.1277 31.5907ZM53.1181 31.649C54.616 31.649 55.9787 32.2131 57.0225 33.1389V32.6643C57.0225 32.1677 57.4752 31.7388 57.9976 31.7388C58.4743 31.7388 58.9513 32.1677 58.9513 32.6643V42.2839C58.9513 42.7801 58.4743 43.209 57.9976 43.209C57.4752 43.209 57.0225 42.7801 57.0225 42.2839V41.8092C55.9787 42.735 54.616 43.2995 53.1181 43.2995C49.8507 43.2995 47.2414 40.7038 47.2414 37.4507C47.2414 34.2454 49.8507 31.649 53.1181 31.649ZM74.5617 31.649C76.06 31.649 77.4227 32.2131 78.4658 33.1389V32.6643C78.4658 32.1677 78.9189 31.7388 79.4413 31.7388C79.918 31.7388 80.3946 32.1677 80.3946 32.6643V42.2839C80.3946 42.7801 79.918 43.209 79.4413 43.209C78.9189 43.209 78.4658 42.7801 78.4658 42.2839V41.8092C77.4227 42.735 76.06 43.2995 74.5617 43.2995C71.2947 43.2995 68.6854 40.7038 68.6854 37.4507C68.6854 34.2454 71.2947 31.649 74.5617 31.649ZM34.37 31.6486C37.5011 31.6486 40.1565 34.1774 40.2022 37.1355C40.2022 37.6526 39.8383 38.052 39.4113 38.1501C39.3984 38.1541 39.3848 38.1551 39.3716 38.1584C39.3457 38.1634 39.3205 38.1713 39.294 38.1737H39.2522C39.2463 38.1737 39.24 38.1756 39.234 38.1756H30.4891C30.8302 40.0276 32.4186 41.3581 34.37 41.3581C35.3906 41.3581 36.3661 41.0419 37.0244 40.3425C37.2286 40.1389 37.5011 39.958 37.7964 39.958C38.3185 39.958 38.7719 40.4101 38.7719 40.9292C38.7719 41.2 38.636 41.4711 38.4315 41.6515C37.3877 42.6903 35.9352 43.2989 34.37 43.2989C31.1017 43.2989 28.4913 40.7034 28.4913 37.451C28.4913 34.2451 31.1017 31.6486 34.37 31.6486ZM46.5973 31.6486C47.2102 31.6486 47.6637 32.1226 47.6637 32.5967C47.6637 33.1157 47.1877 33.5904 46.5973 33.5904C45.0769 33.6352 43.6704 34.1774 43.6704 36.4351V42.2839C43.6704 42.7804 43.1931 43.2087 42.7168 43.2087C42.1944 43.2087 41.7409 42.7804 41.7409 42.2839V32.6646C41.7409 32.1674 42.1944 31.7385 42.7168 31.7385C43.1716 31.7385 43.6469 32.1452 43.6704 32.6192C44.4643 32.0099 45.4856 31.6705 46.5973 31.6486ZM53.1181 33.5679C50.9171 33.5679 49.1931 35.2839 49.1931 37.4507C49.1931 39.6414 50.9171 41.3581 53.1181 41.3581C55.2972 41.3581 57.0225 39.6414 57.0225 37.4507C57.0225 35.2839 55.2972 33.5679 53.1181 33.5679ZM74.5617 33.5679C72.3608 33.5679 70.6368 35.2839 70.6368 37.4507C70.6368 39.6414 72.3608 41.3581 74.5617 41.3581C76.7408 41.3581 78.4658 39.6414 78.4658 37.4507C78.4658 35.2839 76.7408 33.5679 74.5617 33.5679ZM34.37 33.5682C32.5883 33.5682 31.1242 34.6915 30.6254 36.2574H38.0914C37.5919 34.6915 36.1291 33.5682 34.37 33.5682ZM84.1851 31.6489C84.2876 31.6489 84.3777 31.7394 84.3777 31.8415V33.2174C84.3777 33.288 84.3227 33.3411 84.2498 33.3411C84.1795 33.3411 84.1221 33.2854 84.1221 33.2174V32.1799C84.0618 32.3569 83.968 32.6354 83.8974 32.8442C83.7691 33.2244 83.7638 33.24 83.7618 33.2439C83.733 33.3092 83.6899 33.3434 83.6349 33.3434C83.5646 33.3434 83.5235 33.292 83.5086 33.2439L83.1453 32.1773V33.2174C83.1453 33.288 83.0903 33.3411 83.018 33.3411C82.9474 33.3411 82.8901 33.2854 82.8901 33.2174V31.8415C82.8901 31.7394 82.9796 31.6489 83.0823 31.6489C83.1635 31.6489 83.2398 31.7076 83.2666 31.7908L83.6349 32.8671L83.9988 31.7901C84.026 31.7076 84.1026 31.6489 84.1851 31.6489ZM82.5501 31.6578C82.6207 31.6578 82.6737 31.7128 82.6737 31.786C82.6737 31.8563 82.618 31.913 82.5501 31.913H82.2544V33.2173C82.2544 33.2879 82.1997 33.341 82.1264 33.341C82.0562 33.341 81.9988 33.2856 81.9988 33.2173V31.913H81.7075C81.6392 31.913 81.5838 31.8563 81.5838 31.786C81.5838 31.7128 81.6368 31.6578 81.7075 31.6578H82.5501Z" fill="white"/>
<path fill-rule="evenodd" clip-rule="evenodd" d="M18.6115 45.7023C17.738 45.7023 17.0293 46.409 17.0293 47.2848V50.2251C17.0293 51.1009 17.738 51.8076 18.6115 51.8076H21.5518C22.4259 51.8076 23.1343 51.1009 23.1343 50.2251V47.2848C23.1343 46.409 22.4259 45.7023 21.5518 45.7023H18.6115Z" fill="white"/>
<path fill-rule="evenodd" clip-rule="evenodd" d="M12.3901 38.8218C11.6509 38.8218 11.0498 39.4212 11.0498 40.1627V42.6481C11.0498 43.3893 11.6509 43.9876 12.3901 43.9876H14.8764C15.6156 43.9876 16.2158 43.3893 16.2158 42.6481V40.1627C16.2158 39.4212 15.6156 38.8218 14.8764 38.8218H12.3901Z" fill="white"/>
<path fill-rule="evenodd" clip-rule="evenodd" d="M11.1908 27.1345C9.98156 27.1345 9 28.116 9 29.3252V33.3971C9 34.609 9.98156 35.5876 11.1908 35.5876H15.2624C16.4723 35.5876 17.4537 34.609 17.4537 33.3971V29.3252C17.4537 28.116 16.4723 27.1345 15.2624 27.1345H11.1908Z" fill="white"/>
<path fill-rule="evenodd" clip-rule="evenodd" d="M21.0066 20C19.9297 20 19.0586 20.872 19.0586 21.9466V25.5664C19.0586 26.6414 19.9297 27.5136 21.0066 27.5136H24.6256C25.7012 27.5136 26.5728 26.6414 26.5728 25.5664V21.9466C26.5728 20.872 25.7012 20 24.6256 20H21.0066Z" fill="white"/>
<path fill-rule="evenodd" clip-rule="evenodd" d="M30.2893 24.7524C29.684 24.7524 29.1943 25.2438 29.1943 25.8494V27.8836C29.1943 28.4869 29.684 28.9788 30.2893 28.9788H32.3267C32.9313 28.9788 33.4208 28.4869 33.4208 27.8836V25.8494C33.4208 25.2438 32.9313 24.7524 32.3267 24.7524H30.2893Z" fill="white"/>
</svg>
