<svg width="95" height="68" viewBox="0 0 95 68" fill="none" xmlns="http://www.w3.org/2000/svg">
<path d="M39.2859 36.2699V39.0295H40.8786C41.794 39.0295 42.3764 38.4868 42.3764 37.664C42.3764 36.8412 41.7918 36.2853 40.8786 36.2853L39.2859 36.2699ZM37.3359 34.6772H41.0374C43.0404 34.6772 44.3661 35.8442 44.3661 37.6618C44.3661 38.8155 43.7551 39.7309 42.8131 40.1831L44.6043 43.6442H42.4558L40.9315 40.6331H39.2992V43.6442H37.3492L37.3359 34.6772Z" fill="#F8F8F8"/>
<path d="M49.8458 39.5721C49.7134 38.7625 49.1554 38.3125 48.3193 38.3125C47.4833 38.3125 46.9274 38.789 46.8326 39.5721H49.8458ZM44.8848 40.3552C44.8848 38.2993 46.2502 36.9736 48.3061 36.9736C50.3752 36.9736 51.648 38.2067 51.6745 40.1302C51.6745 40.3287 51.6612 40.5405 51.6215 40.7412H46.7796V40.8339C46.8193 41.7625 47.4304 42.3317 48.3458 42.3317C49.0892 42.3317 49.6054 42.014 49.7642 41.403H51.5686C51.3568 42.689 50.2032 43.7103 48.4252 43.7103C46.2237 43.7103 44.8848 42.3978 44.8848 40.3552Z" fill="#F8F8F8"/>
<path d="M56.9688 37.053H58.7997V43.6331H57.1806L57.0085 42.8368C56.585 43.3552 56.0004 43.7125 55.0453 43.7125C53.6666 43.7125 52.3916 43.0353 52.3916 40.7015V37.053H54.2225V40.4611C54.2225 41.6412 54.6063 42.2125 55.5218 42.2125C56.4372 42.2125 56.9666 41.5618 56.9666 40.342L56.9688 37.053Z" fill="#F8F8F8"/>
<path d="M59.8873 35.2088H61.7181V37.0529H63.2446V38.5772H61.7181V41.4559C61.7181 41.9213 61.9034 42.1066 62.3689 42.1066H63.3108V43.6309H61.7843C60.5115 43.6309 59.874 43.0066 59.874 41.747L59.8873 35.2088Z" fill="#F8F8F8"/>
<path d="M68.5772 39.5721C68.4449 38.7625 67.8868 38.3125 67.0508 38.3125C66.2147 38.3125 65.6589 38.789 65.5662 39.5721H68.5772ZM63.6162 40.3552C63.6162 38.2993 64.9817 36.9736 67.0397 36.9736C69.1089 36.9736 70.3817 38.2067 70.4081 40.1302C70.4081 40.3287 70.3949 40.5405 70.3552 40.7412H65.5133V40.8339C65.553 41.7625 66.164 42.3317 67.0794 42.3317C67.8228 42.3317 68.339 42.014 68.4978 41.403H70.3022C70.0905 42.689 68.9368 43.7103 67.1589 43.7103C64.9552 43.7103 63.6162 42.3978 63.6162 40.3552Z" fill="#F8F8F8"/>
<path d="M75.2895 37.053V38.6986H74.5594C73.4719 38.6986 73.0594 39.4155 73.0594 40.4103V43.6331H71.2285V37.053H72.8873L73.0594 38.0346C73.4167 37.45 73.9351 37.053 74.9829 37.053H75.2895Z" fill="#F8F8F8"/>
<path d="M77.3173 41.4427C77.3835 42.014 77.8887 42.411 78.7887 42.411C79.5585 42.411 80.0217 42.1728 80.0217 41.7074C80.0217 41.1647 79.5695 41.136 78.4953 40.9905C76.9423 40.8052 75.7357 40.461 75.7357 39.1066C75.7357 37.7522 76.8894 36.9449 78.6012 36.9581C80.3923 36.9581 81.6254 37.7412 81.7181 39.0802H79.9666C79.9137 38.5508 79.4085 38.2309 78.6673 38.2309C77.9262 38.2309 77.4872 38.4824 77.4872 38.9081C77.4872 39.4133 78.0585 39.4662 79.0137 39.5721C80.5401 39.7309 81.8129 40.0772 81.8129 41.5618C81.8129 42.861 80.5666 43.6971 78.7754 43.6971C76.9842 43.6971 75.6585 42.8346 75.5791 41.4294L77.3173 41.4427Z" fill="#F8F8F8"/>
<path d="M36.834 23.961H44.0384V25.6176H41.398V32.9279H39.4612V25.6176H36.834V23.961Z" fill="#F8F8F8"/>
<path d="M51.1079 29.2794V32.928H49.277V29.425C49.277 28.3508 48.8403 27.7397 47.9248 27.7397C47.0094 27.7397 46.4403 28.4037 46.4403 29.5309V32.9125H44.6094V23.9456H46.4403V27.1419C46.8638 26.6236 47.4616 26.253 48.4167 26.253C49.8881 26.2684 51.1079 27.0515 51.1079 29.2794Z" fill="#F8F8F8"/>
<path d="M56.9849 29.6368C56.9849 28.5228 56.3474 27.7398 55.326 27.7398C54.3047 27.7398 53.6804 28.5228 53.6804 29.6368C53.6804 30.7508 54.3047 31.5339 55.326 31.5339C56.3474 31.5339 56.9849 30.7508 56.9849 29.6368ZM51.7988 29.6368C51.7988 27.6074 53.1907 26.2684 55.315 26.2684C57.4371 26.2684 58.8312 27.6074 58.8312 29.6368C58.8312 31.6662 57.4393 33.0052 55.315 33.0052C53.1907 33.0052 51.7988 31.6662 51.7988 29.6368Z" fill="#F8F8F8"/>
<path d="M70.1038 29.1471V32.928H68.2729V29.253C68.2729 28.2714 67.9156 27.7552 67.1193 27.7552C66.3229 27.7552 65.7935 28.3265 65.7935 29.3346V32.9302H63.9626V29.2552C63.9626 28.2736 63.6053 27.7574 62.7957 27.7574C61.9862 27.7574 61.4832 28.3552 61.4832 29.35V32.9324H59.6523V26.3522H61.245L61.417 27.175C61.8141 26.6567 62.3987 26.2861 63.3803 26.2728C64.2031 26.2596 64.9597 26.5508 65.3832 27.3868C65.8487 26.6831 66.6296 26.2728 67.6376 26.2728C69.0031 26.2684 70.0906 27.0383 70.1038 29.1471Z" fill="#F8F8F8"/>
<path d="M72.5312 30.7376C72.5974 31.3089 73.1025 31.706 74.0025 31.706C74.7724 31.706 75.2356 31.4677 75.2356 31.0023C75.2356 30.4596 74.7834 30.431 73.6959 30.2854C72.143 30.1001 70.9363 29.756 70.9363 28.4016C70.9363 27.0494 72.09 26.2398 73.8018 26.253C75.593 26.253 76.8261 27.0361 76.9187 28.3751H75.1672C75.1143 27.8457 74.6091 27.5258 73.868 27.5258C73.1268 27.5258 72.6878 27.7773 72.6878 28.203C72.6878 28.706 73.2591 28.7611 74.2275 28.867C75.754 29.0258 77.0268 29.3721 77.0268 30.8567C77.0268 32.156 75.7805 32.992 73.9893 32.992C72.1981 32.992 70.8724 32.1295 70.793 30.7244L72.5312 30.7376Z" fill="#F8F8F8"/>
<path d="M82.6516 29.6368C82.6516 28.5228 82.0141 27.7398 80.9927 27.7398C79.9714 27.7398 79.3472 28.5228 79.3472 29.6368C79.3472 30.7508 79.9714 31.5339 80.9927 31.5339C82.0141 31.5339 82.6516 30.7508 82.6516 29.6368ZM77.4766 29.6368C77.4766 27.6074 78.8685 26.2684 80.9927 26.2684C83.117 26.2684 84.5067 27.6074 84.5067 29.6368C84.5067 31.6662 83.1148 33.0052 80.9905 33.0052C78.8663 33.0052 77.4766 31.6662 77.4766 29.6368Z" fill="#F8F8F8"/>
<path d="M91.8188 29.2794V32.9279H89.988V29.4515C89.988 28.3375 89.5644 27.7529 88.6358 27.7529C87.7203 27.7529 87.1512 28.4169 87.1512 29.5574V32.9257H85.3203V26.3456H86.913L87.085 27.1684C87.5085 26.65 88.1196 26.2662 89.1541 26.2662C90.5858 26.2684 91.8188 27.025 91.8188 29.2794Z" fill="#F8F8F8"/>
<path d="M27.8396 22.9926C28.2146 23.3676 28.4352 23.875 28.4352 24.4264C28.4352 24.9779 28.2367 25.4632 27.8396 25.8603C27.0455 26.6544 25.7661 26.6544 24.994 25.8603C24.619 25.4853 24.3984 24.9779 24.3984 24.4264C24.3984 23.875 24.597 23.3897 24.994 22.9926C25.3911 22.5956 25.8984 22.397 26.4279 22.397C26.9352 22.397 27.4426 22.5956 27.8396 22.9926Z" fill="white"/>
<path d="M6.04676 44.7868C5.25264 43.9927 5.25264 42.7133 6.04676 41.9412C6.42176 41.5662 6.92911 41.3456 7.48058 41.3456C8.01 41.3456 8.51735 41.5442 8.91441 41.9412C9.70853 42.7353 9.70853 44.0148 8.91441 44.7868C8.53941 45.1618 8.03205 45.3824 7.48058 45.3824C6.95117 45.3824 6.44382 45.1839 6.04676 44.7868Z" fill="white"/>
<path d="M21.3992 23.1471C20.9581 22.9706 20.6272 22.6177 20.4507 22.1986C20.2742 21.7574 20.2742 21.2942 20.4507 20.853C20.6272 20.4118 20.9801 20.0809 21.3992 19.9044C21.6198 19.8162 21.8404 19.7721 22.0831 19.7721C22.3037 19.7721 22.5463 19.8162 22.7669 19.9044C23.6713 20.2794 24.0904 21.3162 23.7154 22.1986C23.3404 23.0809 22.3037 23.5221 21.3992 23.1471Z" fill="white"/>
<path d="M11.8256 44.5001C12.0462 44.5001 12.2888 44.5442 12.5094 44.6324C13.4138 45.0074 13.833 46.0442 13.458 46.9265C13.2815 47.3677 12.9285 47.6986 12.5094 47.8751C12.0683 48.0515 11.605 48.0515 11.1638 47.8751C10.2594 47.5001 9.84031 46.4633 10.2153 45.5809C10.3918 45.1398 10.7447 44.8089 11.1638 44.6324C11.3624 44.5442 11.583 44.5001 11.8256 44.5001Z" fill="white"/>
<path d="M18.4668 20.5C18.4668 21.3162 17.8271 21.9779 17.033 22H16.9668C16.1286 22 15.4668 21.3162 15.4668 20.5C15.4668 19.6838 16.1506 19 16.9668 19C17.783 19 18.4668 19.6618 18.4668 20.5Z" fill="white"/>
<path d="M16.9395 48.786C17.7679 48.786 18.4395 48.1144 18.4395 47.286C18.4395 46.4576 17.7679 45.786 16.9395 45.786C16.111 45.786 15.4395 46.4576 15.4395 47.286C15.4395 48.1144 16.111 48.786 16.9395 48.786Z" fill="white"/>
<path d="M12.3108 22.6839C12.002 22.8162 11.649 22.8162 11.3402 22.6839C11.0314 22.5515 10.7887 22.3089 10.6564 22C10.3917 21.3603 10.7005 20.6103 11.3402 20.3456C11.4946 20.2794 11.649 20.2574 11.8255 20.2574C12.3108 20.2574 12.7961 20.5442 12.9946 21.0294C13.127 21.3383 13.127 21.6912 12.9946 22C12.8623 22.3089 12.6196 22.5515 12.3108 22.6839Z" fill="white"/>
<path d="M21.5985 45.0956C21.7529 45.0294 21.9294 45.0073 22.0838 45.0073C22.2382 45.0073 22.4147 45.0514 22.5691 45.0956C22.8779 45.2279 23.1206 45.4706 23.2529 45.7794C23.3853 46.0882 23.3853 46.4412 23.2529 46.75C23.1206 47.0588 22.8779 47.3014 22.5691 47.4338C22.2603 47.5661 21.9073 47.5661 21.5985 47.4338C21.2897 47.3014 21.047 47.0588 20.9147 46.75C20.7823 46.4412 20.7823 46.0882 20.9147 45.7794C21.047 45.4706 21.2676 45.2279 21.5985 45.0956Z" fill="white"/>
<path d="M8.18572 23.6986C8.58278 24.0956 8.58278 24.7133 8.20778 25.1103L8.18572 25.1324C7.78866 25.5295 7.14895 25.5295 6.7519 25.1324C6.35484 24.7353 6.35484 24.0956 6.7519 23.6986C6.95043 23.5 7.21513 23.4118 7.45778 23.4118C7.72248 23.4118 7.98719 23.5221 8.18572 23.6986Z" fill="white"/>
<path d="M25.7004 42.6471C25.899 42.4486 26.1637 42.3604 26.4063 42.3604C26.649 42.3604 26.9137 42.4486 27.1122 42.6471C27.3107 42.8456 27.399 43.0883 27.399 43.353C27.399 43.6177 27.2887 43.8824 27.1122 44.0589C26.7151 44.4559 26.0754 44.4559 25.6784 44.0589C25.4798 43.8604 25.3916 43.6177 25.3916 43.353C25.3916 43.0883 25.5019 42.8456 25.7004 42.6471Z" fill="white"/>
<path d="M4.08239 29.9191C3.44268 29.6544 3.13386 28.9044 3.39856 28.2647C3.53092 27.9559 3.77356 27.7132 4.08239 27.5808C4.2368 27.5147 4.41327 27.4926 4.56768 27.4926C4.72209 27.4926 4.89856 27.5147 5.05298 27.5808C5.69268 27.8456 6.00151 28.5956 5.7368 29.2353C5.60445 29.5441 5.3618 29.7867 5.05298 29.9191C4.74415 30.0514 4.39121 30.0514 4.08239 29.9191Z" fill="white"/>
<path d="M29.8025 37.8604C30.1113 37.9927 30.354 38.2354 30.4863 38.5442C30.6187 38.853 30.6187 39.206 30.4863 39.5148C30.2216 40.1545 29.4937 40.4633 28.8319 40.1986C28.5231 40.0663 28.2804 39.8236 28.1481 39.5148C28.0157 39.206 28.0157 38.853 28.1481 38.5442C28.3466 38.0589 28.8099 37.7722 29.3172 37.7722C29.4937 37.7722 29.6481 37.7942 29.8025 37.8604Z" fill="white"/>
<path d="M3.55274 35.3898C4.38116 35.3898 5.05273 34.7182 5.05273 33.8898C5.05273 33.0613 4.38116 32.3898 3.55274 32.3898C2.72431 32.3898 2.05273 33.0613 2.05273 33.8898C2.05273 34.7182 2.72431 35.3898 3.55274 35.3898Z" fill="white"/>
<path d="M30.3555 35.3898C31.1839 35.3898 31.8555 34.7182 31.8555 33.8898C31.8555 33.0613 31.1839 32.3898 30.3555 32.3898C29.527 32.3898 28.8555 33.0613 28.8555 33.8898C28.8555 34.7182 29.527 35.3898 30.3555 35.3898Z" fill="white"/>
<path d="M2.93504 39.6912C2.56004 38.7868 2.97916 37.7721 3.88357 37.3971C4.32474 37.2206 4.78798 37.2206 5.22916 37.3971C5.67033 37.5735 6.00121 37.9265 6.17768 38.3456C6.35416 38.7647 6.35416 39.25 6.17768 39.6912C6.00121 40.1324 5.64827 40.4632 5.22916 40.6397C4.78798 40.8162 4.32474 40.8162 3.88357 40.6397C3.44239 40.4632 3.11151 40.1324 2.93504 39.6912Z" fill="white"/>
<path d="M27.6851 29.4338C27.5086 28.9926 27.5086 28.5294 27.6851 28.0882C27.8616 27.647 28.2145 27.3161 28.6336 27.1397C28.8542 27.0514 29.0748 27.0073 29.2954 27.0073C29.9792 27.0073 30.641 27.4264 30.9277 28.0882C31.3027 28.9926 30.8836 30.0073 29.9792 30.3823C29.538 30.5588 29.0748 30.5588 28.6336 30.3823C28.2145 30.2059 27.8616 29.875 27.6851 29.4338Z" fill="white"/>
<path d="M21.2878 38.2354C20.7584 38.7648 20.7584 39.603 21.2878 40.1324C21.8172 40.6619 22.6554 40.6619 23.1849 40.1324C23.4496 39.8677 23.5819 39.5369 23.5819 39.1839C23.5819 38.831 23.4496 38.478 23.1849 38.2354C22.9201 37.9707 22.5893 37.8383 22.2363 37.8383C21.8834 37.8383 21.5525 37.9707 21.2878 38.2354ZM21.2437 38.1692C20.6922 38.7207 20.6922 39.6251 21.2437 40.1766C21.7952 40.728 22.6996 40.728 23.251 40.1766C23.5157 39.9119 23.6702 39.5589 23.6702 39.1839C23.6702 38.8089 23.5157 38.456 23.251 38.1913C22.9863 37.9266 22.6113 37.7722 22.2584 37.7722C21.9054 37.7722 21.5084 37.9045 21.2437 38.1692Z" fill="white"/>
<path d="M9.42118 33.0295C8.82559 32.8751 8.47265 32.2574 8.62706 31.6618C8.7153 31.3751 8.89176 31.1324 9.15647 30.978C9.33294 30.8677 9.53147 30.8236 9.70794 30.8236C9.79618 30.8236 9.90647 30.8457 9.99471 30.8677C10.2815 30.956 10.5241 31.1324 10.6785 31.3971C10.8329 31.6618 10.8771 31.9707 10.7888 32.2574C10.6344 32.831 10.0168 33.206 9.42118 33.0295Z" fill="white"/>
<path d="M23.8918 36.9118C23.6051 36.8236 23.3624 36.6471 23.208 36.3824C23.0536 36.1177 23.0095 35.8089 23.0977 35.5221C23.1859 35.2354 23.3624 34.9927 23.6271 34.8383C23.8036 34.728 24.0021 34.6839 24.1786 34.6839C24.2668 34.6839 24.333 34.6839 24.4212 34.706L24.4654 34.728C25.0609 34.8824 25.4139 35.5001 25.2595 36.0957C25.1712 36.3824 24.9948 36.6251 24.7301 36.7795C24.4654 36.9339 24.1786 36.978 23.8918 36.9118Z" fill="white"/>
<path d="M8.84766 36.0515C8.71531 35.5882 8.98002 35.125 9.42119 34.9706L9.46531 34.9485C9.9506 34.8162 10.4359 35.1029 10.5683 35.5882C10.6344 35.8309 10.5903 36.0515 10.48 36.2721C10.3697 36.4706 10.1712 36.625 9.92855 36.6912C9.6859 36.7574 9.46531 36.7132 9.24472 36.6029C9.06825 36.4927 8.91384 36.2941 8.84766 36.0515Z" fill="white"/>
<path d="M23.7151 32.7427L23.6709 32.7206C23.4945 32.5882 23.3401 32.4118 23.2959 32.1912C23.1636 31.7059 23.4504 31.2206 23.9357 31.0882C24.4209 30.9559 24.9062 31.2427 25.0386 31.7279C25.1709 32.2132 24.8842 32.6985 24.3989 32.8309C24.1783 32.8971 23.9357 32.8529 23.7151 32.7427Z" fill="white"/>
<path d="M12.1564 39.6251C11.8697 39.9118 11.4505 39.9118 11.1858 39.6471C10.9211 39.3824 10.9211 38.9633 11.1858 38.6986C11.4505 38.4339 11.8697 38.4339 12.1344 38.6986C12.2667 38.8309 12.3329 38.9854 12.3329 39.1839C12.3329 39.3383 12.2667 39.4927 12.1564 39.6251Z" fill="white"/>
<path d="M22.7017 28.1104C22.8341 28.2427 22.9003 28.3972 22.9003 28.5957C22.9003 28.7942 22.8341 28.9486 22.7017 29.081C22.437 29.3457 22.0179 29.3457 21.7532 29.081C21.6209 28.9486 21.5547 28.7942 21.5547 28.5957C21.5547 28.3972 21.6209 28.2427 21.7532 28.1104C21.8856 27.978 22.04 27.9119 22.2385 27.9119C22.437 27.9119 22.5915 28.0001 22.7017 28.1104Z" fill="white"/>
<path d="M15.797 40.6619C15.9073 40.8604 15.9514 41.1031 15.8853 41.3457C15.8191 41.5884 15.6647 41.7648 15.4662 41.8972C15.2676 42.0295 15.025 42.0516 14.7823 41.9854C14.297 41.8531 14.0103 41.3678 14.1426 40.8825C14.2088 40.6398 14.3632 40.4633 14.5617 40.331C14.7603 40.2207 15.0029 40.1766 15.2456 40.2428C15.4662 40.3089 15.6647 40.4633 15.797 40.6619Z" fill="white"/>
<path d="M18.09 27.1177C17.9797 26.9192 17.9356 26.6765 18.0018 26.4339C18.068 26.1912 18.2224 26.0147 18.4209 25.8824C18.5533 25.7942 18.7077 25.7721 18.8621 25.7721C18.9503 25.7721 19.0165 25.7721 19.1047 25.7942C19.3474 25.8603 19.5239 26.0147 19.6562 26.2133C19.7665 26.4118 19.8106 26.6544 19.7444 26.8971C19.6121 27.3824 19.1268 27.6692 18.6415 27.5368C18.4209 27.4706 18.2224 27.3383 18.09 27.1177Z" fill="white"/>
<path d="M19.4578 40.1544L19.5019 40.1765C19.7445 40.3309 19.8989 40.5515 19.9651 40.8383C20.1195 41.4338 19.7666 42.0515 19.171 42.2059C18.8842 42.2941 18.5754 42.25 18.3107 42.0956C18.046 41.9412 17.8695 41.6986 17.7813 41.4118C17.6931 41.125 17.7372 40.8162 17.8916 40.5515C18.046 40.2868 18.2887 40.1103 18.5754 40.0221C18.6637 40 18.7739 39.978 18.8622 39.978C19.0828 40 19.2813 40.0441 19.4578 40.1544Z" fill="white"/>
<path d="M15.3111 27.7573C14.7155 27.9117 14.0979 27.5588 13.9435 26.9632C13.7891 26.3676 14.142 25.75 14.7376 25.5956C14.8258 25.5735 14.9361 25.5515 15.0243 25.5515C15.5096 25.5515 15.9729 25.8823 16.1052 26.3897C16.2596 26.9853 15.9067 27.5809 15.3111 27.7573Z" fill="white"/>
<path d="M11.6481 30.0074C12.4278 30.0074 13.0599 29.3753 13.0599 28.5956C13.0599 27.8159 12.4278 27.1838 11.6481 27.1838C10.8684 27.1838 10.2363 27.8159 10.2363 28.5956C10.2363 29.3753 10.8684 30.0074 11.6481 30.0074Z" fill="white"/>
</svg>
