<svg width="123" height="68" viewBox="0 0 123 68" fill="none" xmlns="http://www.w3.org/2000/svg">
<path d="M67.6293 31.6353H70.8943V29.4301H67.6293V28.2387H71.3101V26.0345H65.0742V35.0436H71.3466V32.8385H67.6303L67.6293 31.6353Z" fill="white"/>
<path d="M40.9096 28.9353C40.9096 27.0106 39.8243 26.0345 37.6866 26.0345H33.6953V35.0436H36.2507V31.8607H36.6661L38.6956 35.0436H41.3266V34.5226L39.302 31.5335C40.3278 31.123 40.9096 30.1935 40.9096 28.9353ZM36.2507 28.2387H37.5287C38.0404 28.2387 38.2687 28.4568 38.2687 28.9465C38.2687 29.4362 38.0404 29.6542 37.5287 29.6542H36.2507V28.2387Z" fill="white"/>
<path d="M26.2852 28.2387H28.5597V35.0426H31.115V28.2387H33.4024V26.0345H26.2852V28.2387Z" fill="white"/>
<path d="M77.6018 31.5335C78.6295 31.123 79.211 30.1931 79.211 28.9353C79.211 27.0106 78.1257 26.0345 75.988 26.0345H71.9951V35.0436H74.5505V31.8607H74.9659L76.9954 35.0436H79.6247V34.5226L77.6018 31.5335ZM74.5521 28.2397H75.8302C76.3416 28.2397 76.5695 28.4578 76.5695 28.9475C76.5695 29.4372 76.3416 29.6552 75.8302 29.6552H74.5521V28.2397Z" fill="white"/>
<path d="M46.6705 31.153C46.6705 32.7984 45.9341 32.9888 45.3803 32.9888C44.8264 32.9888 44.0901 32.7984 44.0901 31.153V26.0345H41.5469V31.0778C41.5469 33.834 42.8367 35.2317 45.3803 35.2317C47.9238 35.2317 49.2137 33.834 49.2137 31.0778V26.0345H46.6705V31.153Z" fill="white"/>
<path d="M64.8157 26.4835V26.0345H62.2034L59.7536 29.6242V26.0345H57.1982V35.0436H59.7536V31.7229L62.2597 35.0436H64.9752V34.5887L61.8696 30.6198L64.8157 26.4835Z" fill="white"/>
<path d="M54.1086 28.0894C54.737 28.0865 55.3574 28.234 55.9204 28.5202L56.1595 28.6277L56.8475 26.5135L56.6557 26.4212C55.8568 26.045 54.9882 25.8496 54.1089 25.8482C51.3825 25.8482 49.6885 27.6463 49.6885 30.5407C49.6885 33.435 51.3825 35.2334 54.1089 35.2334C54.9882 35.232 55.8568 35.0366 56.6557 34.6605L56.8475 34.5681L56.1595 32.454L55.9204 32.5615C55.3574 32.8477 54.737 32.9952 54.1086 32.9922C53.0371 32.9922 52.3172 32.0077 52.3172 30.542C52.3172 29.0763 53.0381 28.0894 54.1086 28.0894Z" fill="white"/>
<path d="M59.0332 48L61.2785 37.687H65.2888C67.9971 37.687 68.5677 39.2794 68.1385 41.2507C67.7027 43.253 66.4053 44.8603 63.7273 44.8603H62.2329L61.5491 47.9993L59.0332 48ZM63.7829 42.768C64.7596 42.768 65.2977 42.2675 65.5157 41.2669C65.7338 40.2662 65.443 39.7651 64.4367 39.7651H63.3422L62.6883 42.768H63.7829Z" fill="white"/>
<path d="M76.6017 48H73.8493L73.6849 46.1649H70.0015L69.0398 48H66.2871L72.174 37.687H75.2221L76.6017 48ZM73.1097 40.2507L71.0772 44.1485H73.4895L73.1544 40.2507H73.1097Z" fill="white"/>
<path d="M79.7081 37.6876L80.8635 41.6912H80.8931L83.7921 37.6876H86.5445L86.5116 37.8396L81.6413 43.9661L80.7628 48H78.2472L79.1254 43.9661L76.9219 37.8396L76.9548 37.6876H79.7081Z" fill="white"/>
<path d="M83.0581 45.8615L82.9512 46.3283H88.725L88.8384 45.8622L83.0581 45.8615Z" fill="white"/>
<path d="M89.3358 43.8892L94.4876 37.7688H88.5221L83.5156 43.8892H89.3358Z" fill="white"/>
<path d="M88.5269 47.1466L88.64 46.6808H82.8725L82.7676 47.1466H88.5269Z" fill="white"/>
<path d="M82.6866 47.4984L82.5811 47.9645L88.3272 47.9625L88.44 47.4984H82.6866Z" fill="white"/>
<path d="M83.4298 44.2138L83.3223 44.6907H89.1243L89.2404 44.2138H83.4298Z" fill="white"/>
<path d="M83.2429 45.0436L83.1377 45.509H88.9259L89.0391 45.0436H83.2429Z" fill="white"/>
<path d="M90.4751 45.8615L90.3682 46.3283H96.1419L96.2554 45.8622L90.4751 45.8615Z" fill="white"/>
<path d="M96.7527 43.8892L101.905 37.7688H95.9391L90.9326 43.8892H96.7527Z" fill="white"/>
<path d="M95.9429 47.1466L96.056 46.6808H90.2885L90.1836 47.1466H95.9429Z" fill="white"/>
<path d="M90.1036 47.4984L89.998 47.9645L95.7439 47.9625L95.8567 47.4984H90.1036Z" fill="white"/>
<path d="M90.8468 44.2138L90.7393 44.6907H96.5413L96.6574 44.2138H90.8468Z" fill="white"/>
<path d="M90.659 45.0436L90.5537 45.509H96.342L96.4551 45.0436H90.659Z" fill="white"/>
<path d="M85.6079 21.0027V35.32H85.2626V21.3572H21.346V40.0047H58.2246L58.1533 40.3592H21.0053V40.3549H21V21H21.346V21.0037L85.6079 21.0027Z" fill="white"/>
</svg>
